<?xml version="1.0" standalone="no"?><!-- Generator: Gravit.io --><svg xmlns="http://www.w3.org/2000/svg" xmlns:xlink="http://www.w3.org/1999/xlink" style="isolation:isolate" viewBox="0 0 469.188 132" width="469.188" height="132"><defs><clipPath id="_clipPath_clvKGg7voNph7epNIA2qkokQHx2iTfDB"><rect width="469.19" height="132"/></clipPath></defs><g clip-path="url(#_clipPath_clvKGg7voNph7epNIA2qkokQHx2iTfDB)"><g><path d=" M 17.5 123.2 L 13.3 123.2 L 13.3 42 L 17.5 42 L 63.14 115.5 L 63.14 42 L 67.34 42 L 67.34 123.2 L 63.14 123.2 L 17.5 49.56 L 17.5 123.2 L 17.5 123.2 Z  M 151.48 103.46 L 155.26 105.28 L 155.26 105.28 Q 151.48 114.52 144.62 119.56 L 144.62 119.56 L 144.62 119.56 Q 137.76 124.6 124.04 124.6 L 124.04 124.6 L 124.04 124.6 Q 106.82 124.6 99.12 114.03 L 99.12 114.03 L 99.12 114.03 Q 91.42 103.46 91.42 81.06 L 91.42 81.06 L 91.42 67.34 L 91.42 67.34 Q 91.42 44.94 99.12 34.37 L 99.12 34.37 L 99.12 34.37 Q 106.82 23.8 124.04 23.8 L 124.04 23.8 L 124.04 23.8 Q 137.76 23.8 144.62 28.84 L 144.62 28.84 L 144.62 28.84 Q 151.48 33.88 155.26 43.12 L 155.26 43.12 L 151.48 44.94 L 151.48 44.94 Q 148.26 36.82 142.38 32.41 L 142.38 32.41 L 142.38 32.41 Q 136.5 28 124.04 28 L 124.04 28 L 124.04 28 Q 117.18 28 112.28 29.75 L 112.28 29.75 L 112.28 29.75 Q 107.38 31.5 103.46 35.7 L 103.46 35.7 L 103.46 35.7 Q 99.54 39.9 97.58 47.81 L 97.58 47.81 L 97.58 47.81 Q 95.62 55.72 95.62 67.34 L 95.62 67.34 L 95.62 81.06 L 95.62 81.06 Q 95.62 92.68 97.58 100.59 L 97.58 100.59 L 97.58 100.59 Q 99.54 108.5 103.46 112.7 L 103.46 112.7 L 103.46 112.7 Q 107.38 116.9 112.28 118.65 L 112.28 118.65 L 112.28 118.65 Q 117.18 120.4 124.04 120.4 L 124.04 120.4 L 124.04 120.4 Q 136.5 120.4 142.38 115.99 L 142.38 115.99 L 142.38 115.99 Q 148.26 111.58 151.48 103.46 L 151.48 103.46 L 151.48 103.46 Z  M 226.52 42 L 226.52 123.2 L 222.32 123.2 L 222.32 82.6 L 180.32 82.6 L 180.32 123.2 L 176.12 123.2 L 176.12 42 L 180.32 42 L 180.32 78.4 L 222.32 78.4 L 222.32 42 L 226.52 42 L 226.52 42 Z  M 260.54 123.2 L 260.54 119 L 306.18 119 L 277.48 51.38 L 246.96 123.2 L 242.48 123.2 L 277.48 40.6 L 312.48 123.2 L 260.54 123.2 L 260.54 123.2 Z  M 362.6 82.46 L 362.6 82.46 L 381.64 123.2 L 377.02 123.2 L 357.42 81.2 L 357.42 81.2 Q 357.7 81.06 359.87 80.01 L 359.87 80.01 L 359.87 80.01 Q 362.04 78.96 362.88 78.47 L 362.88 78.47 L 362.88 78.47 Q 363.72 77.98 365.68 76.72 L 365.68 76.72 L 365.68 76.72 Q 367.64 75.46 368.62 74.27 L 368.62 74.27 L 368.62 74.27 Q 369.6 73.08 370.79 71.47 L 370.79 71.47 L 370.79 71.47 Q 371.98 69.86 372.54 67.83 L 372.54 67.83 L 372.54 67.83 Q 373.1 65.8 373.1 63.42 L 373.1 63.42 L 373.1 63.42 Q 373.1 54.6 364.7 50.4 L 364.7 50.4 L 364.7 50.4 Q 356.3 46.2 343.84 46.2 L 343.84 46.2 L 332.64 46.2 L 332.64 123.2 L 328.44 123.2 L 328.44 42 L 343.84 42 L 343.84 42 Q 360.36 42 368.83 47.74 L 368.83 47.74 L 368.83 47.74 Q 377.3 53.48 377.3 63.42 L 377.3 63.42 L 377.3 63.42 Q 377.3 69.86 372.96 74.83 L 372.96 74.83 L 372.96 74.83 Q 368.62 79.8 362.6 82.46 Z  M 390.18 42 L 453.18 42 L 453.18 46.2 L 423.78 46.2 L 423.78 123.2 L 419.58 123.2 L 419.58 46.2 L 390.18 46.2 L 390.18 42 L 390.18 42 Z " fill-rule="evenodd" fill="rgb(101,105,223)"/></g></g></svg>