<?xml version="1.0" standalone="no"?><!-- Generator: Gravit.io --><svg xmlns="http://www.w3.org/2000/svg" xmlns:xlink="http://www.w3.org/1999/xlink" style="isolation:isolate" viewBox="0 0 725 297.7" width="725" height="297.7"><defs><clipPath id="_clipPath_iGAUJ9tm1cJEMMBnse2E4mXy8NL9XZst"><rect width="725" height="297.7"/></clipPath></defs><g clip-path="url(#_clipPath_iGAUJ9tm1cJEMMBnse2E4mXy8NL9XZst)"><g><g><path d=" M 339.92 197.61 L 336.34 197.61 L 336.34 128.39 L 339.92 128.39 L 378.83 191.05 L 378.83 128.39 L 382.41 128.39 L 382.41 197.61 L 378.83 197.61 L 339.92 134.83 L 339.92 197.61 L 339.92 197.61 Z  M 454.14 180.78 L 457.36 182.34 L 457.36 182.34 Q 454.14 190.21 448.29 194.51 L 448.29 194.51 L 448.29 194.51 Q 442.45 198.81 430.75 198.81 L 430.75 198.81 L 430.75 198.81 Q 416.07 198.81 409.5 189.8 L 409.5 189.8 L 409.5 189.8 Q 402.94 180.78 402.94 161.69 L 402.94 161.69 L 402.94 149.99 L 402.94 149.99 Q 402.94 130.89 409.5 121.88 L 409.5 121.88 L 409.5 121.88 Q 416.07 112.87 430.75 112.87 L 430.75 112.87 L 430.75 112.87 Q 442.45 112.87 448.29 117.17 L 448.29 117.17 L 448.29 117.17 Q 454.14 121.47 457.36 129.34 L 457.36 129.34 L 454.14 130.89 L 454.14 130.89 Q 451.4 123.97 446.38 120.21 L 446.38 120.21 L 446.38 120.21 Q 441.37 116.45 430.75 116.45 L 430.75 116.45 L 430.75 116.45 Q 424.9 116.45 420.72 117.94 L 420.72 117.94 L 420.72 117.94 Q 416.55 119.44 413.2 123.02 L 413.2 123.02 L 413.2 123.02 Q 409.86 126.6 408.19 133.34 L 408.19 133.34 L 408.19 133.34 Q 406.52 140.08 406.52 149.99 L 406.52 149.99 L 406.52 161.69 L 406.52 161.69 Q 406.52 171.59 408.19 178.34 L 408.19 178.34 L 408.19 178.34 Q 409.86 185.08 413.2 188.66 L 413.2 188.66 L 413.2 188.66 Q 416.55 192.24 420.72 193.73 L 420.72 193.73 L 420.72 193.73 Q 424.9 195.23 430.75 195.23 L 430.75 195.23 L 430.75 195.23 Q 441.37 195.23 446.38 191.47 L 446.38 191.47 L 446.38 191.47 Q 451.4 187.71 454.14 180.78 L 454.14 180.78 L 454.14 180.78 Z  M 518.12 128.39 L 518.12 197.61 L 514.54 197.61 L 514.54 163 L 478.73 163 L 478.73 197.61 L 475.15 197.61 L 475.15 128.39 L 478.73 128.39 L 478.73 159.42 L 514.54 159.42 L 514.54 128.39 L 518.12 128.39 L 518.12 128.39 Z  M 547.12 197.61 L 547.12 194.03 L 586.03 194.03 L 561.56 136.38 L 535.54 197.61 L 531.72 197.61 L 561.56 127.19 L 591.4 197.61 L 547.12 197.61 L 547.12 197.61 Z  M 634.13 162.88 L 634.13 162.88 L 650.36 197.61 L 646.42 197.61 L 629.71 161.81 L 629.71 161.81 Q 629.95 161.69 631.8 160.79 L 631.8 160.79 L 631.8 160.79 Q 633.65 159.9 634.37 159.48 L 634.37 159.48 L 634.37 159.48 Q 635.08 159.06 636.76 157.99 L 636.76 157.99 L 636.76 157.99 Q 638.43 156.91 639.26 155.9 L 639.26 155.9 L 639.26 155.9 Q 640.1 154.88 641.11 153.51 L 641.11 153.51 L 641.11 153.51 Q 642.13 152.14 642.6 150.41 L 642.6 150.41 L 642.6 150.41 Q 643.08 148.68 643.08 146.65 L 643.08 146.65 L 643.08 146.65 Q 643.08 139.13 635.92 135.55 L 635.92 135.55 L 635.92 135.55 Q 628.76 131.97 618.14 131.97 L 618.14 131.97 L 608.59 131.97 L 608.59 197.61 L 605.01 197.61 L 605.01 128.39 L 618.14 128.39 L 618.14 128.39 Q 632.22 128.39 639.44 133.28 L 639.44 133.28 L 639.44 133.28 Q 646.66 138.17 646.66 146.65 L 646.66 146.65 L 646.66 146.65 Q 646.66 152.14 642.96 156.38 L 642.96 156.38 L 642.96 156.38 Q 639.26 160.61 634.13 162.88 Z  M 657.64 128.39 L 711.35 128.39 L 711.35 131.97 L 686.29 131.97 L 686.29 197.61 L 682.71 197.61 L 682.71 131.97 L 657.64 131.97 L 657.64 128.39 L 657.64 128.39 Z " fill-rule="evenodd" fill="rgb(101,105,223)"/></g><g><path d=" M 127.94 247.15 L 127.94 247.15 L 140.64 211.45 C 141.36 209.41 140.88 207.44 139.57 207.05 L 139.57 207.05 C 138.25 206.66 136.6 208 135.87 210.03 L 123.14 245.84 C 122.25 245.72 121.34 245.66 120.42 245.66 C 110.57 245.66 102.57 252.84 102.57 261.68 C 102.57 270.52 110.57 277.7 120.42 277.7 C 130.27 277.7 138.27 270.52 138.27 261.68 C 138.27 255.25 134.04 249.7 127.94 247.15 Z  M 103.93 204.04 L 103.93 204.04 C 104.43 203.84 104.94 203.53 105.39 203.1 L 126.35 183.27 C 127.53 182.15 127.88 180.71 127.14 180.05 L 127.14 180.05 C 126.39 179.4 124.83 179.77 123.65 180.88 L 102.69 200.71 C 102.12 201.25 101.74 201.86 101.6 202.43 C 99.74 201.43 97.57 200.85 95.26 200.85 C 88.35 200.85 82.74 205.98 82.74 212.3 C 82.74 218.61 88.35 223.74 95.26 223.74 C 102.18 223.74 107.79 218.61 107.79 212.3 C 107.79 209.05 106.31 206.12 103.93 204.04 L 103.93 204.04 L 103.93 204.04 L 103.93 204.04 L 103.93 204.04 L 103.93 204.04 L 103.93 204.04 L 103.93 204.04 L 103.93 204.04 L 103.93 204.04 L 103.93 204.04 L 103.93 204.04 L 103.93 204.04 L 103.93 204.04 L 103.93 204.04 L 103.93 204.04 L 103.93 204.04 L 103.93 204.04 L 103.93 204.04 L 103.93 204.04 L 103.93 204.04 L 103.93 204.04 L 103.93 204.04 L 103.93 204.04 L 103.93 204.04 L 103.93 204.04 L 103.93 204.04 L 103.93 204.04 L 103.93 204.04 L 103.93 204.04 L 103.93 204.04 L 103.93 204.04 L 103.93 204.04 L 103.93 204.04 L 103.93 204.04 L 103.93 204.04 L 103.93 204.04 L 103.93 204.04 L 103.93 204.04 L 103.93 204.04 L 103.93 204.04 L 103.93 204.04 L 103.93 204.04 L 103.93 204.04 L 103.93 204.04 L 103.93 204.04 L 103.93 204.04 L 103.93 204.04 Z  M 156.52 178.26 L 156.52 178.26 C 156.61 178.08 156.67 177.87 156.71 177.65 L 158.36 169.1 C 158.57 168.04 158.18 167.09 157.5 166.98 L 157.5 166.98 C 156.82 166.87 156.1 167.64 155.9 168.7 L 154.25 177.25 C 154.22 177.41 154.2 177.57 154.19 177.72 C 154.18 177.72 154.16 177.72 154.15 177.72 C 151.38 177.72 149.14 179.77 149.14 182.3 C 149.14 184.82 151.38 186.87 154.15 186.87 C 156.91 186.87 159.16 184.82 159.16 182.3 C 159.16 180.55 158.09 179.03 156.52 178.26 L 156.52 178.26 Z  M 210.77 243.65 C 206.32 246.57 203.43 251.28 203.43 256.59 C 203.43 265.44 211.43 272.61 221.28 272.61 C 231.13 272.61 239.13 265.44 239.13 256.59 L 239.13 256.59 L 239.13 256.59 L 239.13 256.59 L 239.13 256.59 L 239.13 256.59 L 239.13 256.59 L 239.13 256.59 L 239.13 256.59 L 239.13 256.59 L 239.13 256.59 L 239.13 256.59 L 239.13 256.59 L 239.13 256.59 L 239.13 256.59 L 239.13 256.59 L 239.13 256.59 L 239.13 256.59 L 239.13 256.59 L 239.13 256.59 L 239.13 256.59 L 239.13 256.59 L 239.13 256.59 L 239.13 256.59 L 239.13 256.59 L 239.13 256.59 L 239.13 256.59 L 239.13 256.59 L 239.13 256.59 L 239.13 256.59 L 239.13 256.59 L 239.13 256.59 L 239.13 256.59 L 239.13 256.59 L 239.13 256.59 L 239.13 256.59 L 239.13 256.59 L 239.13 256.59 L 239.13 256.59 L 239.13 256.59 L 239.13 256.59 L 239.13 256.59 L 239.13 256.59 L 239.13 256.59 L 239.13 256.59 L 239.13 256.59 L 239.13 256.59 C 239.13 247.75 231.13 240.58 221.28 240.58 C 219.09 240.58 216.98 240.93 215.04 241.58 C 214.95 241.3 214.83 241.02 214.69 240.74 L 196.76 206.26 C 195.76 204.34 193.94 203.22 192.69 203.76 L 192.69 203.76 C 191.44 204.3 191.24 206.3 192.24 208.22 L 210.16 242.7 C 210.34 243.05 210.54 243.36 210.77 243.65 L 210.77 243.65 L 210.77 243.65 Z  M 264.52 103.67 C 267.47 108.86 273.49 112.43 280.43 112.43 C 290.28 112.43 298.27 105.25 298.27 96.41 L 298.27 96.41 L 298.27 96.41 L 298.27 96.41 L 298.27 96.41 L 298.27 96.41 L 298.27 96.41 L 298.27 96.41 L 298.27 96.41 L 298.27 96.41 L 298.27 96.41 L 298.27 96.41 L 298.27 96.41 L 298.27 96.41 L 298.27 96.41 L 298.27 96.41 L 298.27 96.41 L 298.27 96.41 L 298.27 96.41 L 298.27 96.41 L 298.27 96.41 L 298.27 96.41 L 298.27 96.41 L 298.27 96.41 L 298.27 96.41 L 298.27 96.41 L 298.27 96.41 L 298.27 96.41 L 298.27 96.41 L 298.27 96.41 L 298.27 96.41 L 298.27 96.41 L 298.27 96.41 L 298.27 96.41 L 298.27 96.41 L 298.27 96.41 L 298.27 96.41 L 298.27 96.41 L 298.27 96.41 L 298.27 96.41 L 298.27 96.41 L 298.27 96.41 L 298.27 96.41 L 298.27 96.41 L 298.27 96.41 L 298.27 96.41 L 298.27 96.41 C 298.27 87.57 290.28 80.39 280.43 80.39 C 270.57 80.39 262.58 87.57 262.58 96.41 C 262.58 97.61 262.72 98.78 263.02 99.9 C 262.34 99.95 261.59 100.14 260.86 100.48 L 223.32 118.15 C 221.36 119.07 220.29 120.73 220.92 121.85 L 220.92 121.85 C 221.55 122.97 223.65 123.14 225.61 122.22 L 263.16 104.55 C 263.68 104.3 264.15 104 264.52 103.67 L 264.52 103.67 L 264.52 103.67 L 264.52 103.67 L 264.52 103.67 Z  M 58.55 192.54 C 55.28 189.25 50.52 187.18 45.23 187.18 C 35.38 187.18 27.38 194.36 27.38 203.2 C 27.38 212.04 35.38 219.22 45.23 219.22 C 55.08 219.22 63.08 212.04 63.08 203.2 L 63.08 203.2 L 63.08 203.2 L 63.08 203.2 L 63.08 203.2 L 63.08 203.2 L 63.08 203.2 L 63.08 203.2 L 63.08 203.2 L 63.08 203.2 L 63.08 203.2 L 63.08 203.2 L 63.08 203.2 L 63.08 203.2 L 63.08 203.2 L 63.08 203.2 L 63.08 203.2 L 63.08 203.2 L 63.08 203.2 L 63.08 203.2 L 63.08 203.2 L 63.08 203.2 L 63.08 203.2 L 63.08 203.2 L 63.08 203.2 L 63.08 203.2 L 63.08 203.2 L 63.08 203.2 L 63.08 203.2 L 63.08 203.2 L 63.08 203.2 L 63.08 203.2 L 63.08 203.2 L 63.08 203.2 L 63.08 203.2 L 63.08 203.2 L 63.08 203.2 L 63.08 203.2 L 63.08 203.2 L 63.08 203.2 L 63.08 203.2 L 63.08 203.2 L 63.08 203.2 L 63.08 203.2 C 63.08 200.66 62.42 198.25 61.24 196.11 C 61.53 196.04 61.82 195.94 62.11 195.82 L 100.38 179.46 C 102.37 178.61 103.51 176.99 102.92 175.85 L 102.92 175.85 C 102.34 174.7 100.25 174.46 98.26 175.31 L 59.99 191.67 C 59.43 191.91 58.94 192.21 58.55 192.54 L 58.55 192.54 L 58.55 192.54 L 58.55 192.54 L 58.55 192.54 L 58.55 192.54 L 58.55 192.54 L 58.55 192.54 L 58.55 192.54 Z  M 161.37 225.33 C 154.91 225.78 149.82 230.72 149.82 236.73 C 149.82 243.05 155.43 248.17 162.35 248.17 C 169.26 248.17 174.87 243.05 174.87 236.73 L 174.87 236.73 L 174.87 236.73 L 174.87 236.73 L 174.87 236.73 L 174.87 236.73 L 174.87 236.73 L 174.87 236.73 L 174.87 236.73 L 174.87 236.73 L 174.87 236.73 L 174.87 236.73 L 174.87 236.73 L 174.87 236.73 L 174.87 236.73 L 174.87 236.73 L 174.87 236.73 L 174.87 236.73 L 174.87 236.73 L 174.87 236.73 L 174.87 236.73 L 174.87 236.73 L 174.87 236.73 L 174.87 236.73 L 174.87 236.73 L 174.87 236.73 L 174.87 236.73 L 174.87 236.73 L 174.87 236.73 L 174.87 236.73 L 174.87 236.73 L 174.87 236.73 L 174.87 236.73 L 174.87 236.73 L 174.87 236.73 L 174.87 236.73 L 174.87 236.73 L 174.87 236.73 L 174.87 236.73 L 174.87 236.73 L 174.87 236.73 L 174.87 236.73 L 174.87 236.73 L 174.87 236.73 L 174.87 236.73 C 174.87 230.97 170.21 226.2 164.14 225.41 C 164.51 224.86 164.73 224.09 164.73 223.23 L 164.75 196.3 C 164.75 194.61 163.88 193.24 162.8 193.24 L 162.8 193.24 C 161.72 193.24 160.85 194.61 160.85 196.29 L 160.83 223.23 C 160.83 224.05 161.03 224.79 161.37 225.33 L 161.37 225.33 L 161.37 225.33 L 161.37 225.33 L 161.37 225.33 L 161.37 225.33 L 161.37 225.33 L 161.37 225.33 L 161.37 225.33 L 161.37 225.33 Z  M 220.52 204.57 C 218.93 206.49 217.98 208.88 217.98 211.47 C 217.98 217.79 223.59 222.91 230.51 222.91 C 237.42 222.91 243.03 217.79 243.03 211.47 L 243.03 211.47 L 243.03 211.47 L 243.03 211.47 L 243.03 211.47 L 243.03 211.47 L 243.03 211.47 L 243.03 211.47 L 243.03 211.47 L 243.03 211.47 L 243.03 211.47 L 243.03 211.47 L 243.03 211.47 L 243.03 211.47 L 243.03 211.47 L 243.03 211.47 L 243.03 211.47 L 243.03 211.47 L 243.03 211.47 L 243.03 211.47 L 243.03 211.47 L 243.03 211.47 L 243.03 211.47 L 243.03 211.47 L 243.03 211.47 L 243.03 211.47 L 243.03 211.47 L 243.03 211.47 L 243.03 211.47 L 243.03 211.47 L 243.03 211.47 L 243.03 211.47 L 243.03 211.47 L 243.03 211.47 C 243.03 205.16 237.42 200.03 230.51 200.03 C 227.56 200.03 224.85 200.96 222.72 202.52 C 222.53 202.04 222.18 201.53 221.7 201.07 L 201.12 181.41 C 199.9 180.25 198.28 179.86 197.5 180.54 L 197.5 180.54 C 196.72 181.22 197.08 182.71 198.29 183.88 L 218.88 203.54 C 219.39 204.02 219.96 204.37 220.52 204.57 L 220.52 204.57 L 220.52 204.57 L 220.52 204.57 L 220.52 204.57 L 220.52 204.57 L 220.52 204.57 L 220.52 204.57 L 220.52 204.57 L 220.52 204.57 L 220.52 204.57 Z  M 245.94 150.16 C 246.47 156.02 251.86 160.63 258.41 160.63 C 265.32 160.63 270.94 155.51 270.94 149.19 L 270.94 149.19 L 270.94 149.19 L 270.94 149.19 L 270.94 149.19 L 270.94 149.19 L 270.94 149.19 L 270.94 149.19 L 270.94 149.19 L 270.94 149.19 L 270.94 149.19 L 270.94 149.19 L 270.94 149.19 L 270.94 149.19 L 270.94 149.19 L 270.94 149.19 L 270.94 149.19 L 270.94 149.19 L 270.94 149.19 L 270.94 149.19 L 270.94 149.19 L 270.94 149.19 L 270.94 149.19 L 270.94 149.19 L 270.94 149.19 L 270.94 149.19 L 270.94 149.19 L 270.94 149.19 L 270.94 149.19 L 270.94 149.19 L 270.94 149.19 L 270.94 149.19 L 270.94 149.19 L 270.94 149.19 C 270.94 142.88 265.32 137.75 258.41 137.75 C 252.12 137.75 246.91 142 246.02 147.52 C 245.48 147.21 244.73 147.04 243.91 147.06 L 212.15 147.72 C 210.46 147.76 209.11 148.59 209.14 149.57 L 209.14 149.57 C 209.16 150.55 210.55 151.32 212.24 151.29 L 244 150.62 C 244.74 150.61 245.43 150.44 245.94 150.16 L 245.94 150.16 L 245.94 150.16 L 245.94 150.16 L 245.94 150.16 L 245.94 150.16 L 245.94 150.16 L 245.94 150.16 L 245.94 150.16 L 245.94 150.16 L 245.94 150.16 L 245.94 150.16 Z  M 222.03 96.55 C 224.11 97.95 226.68 98.78 229.46 98.78 C 236.38 98.78 241.99 93.65 241.99 87.34 L 241.99 87.34 L 241.99 87.34 L 241.99 87.34 L 241.99 87.34 L 241.99 87.34 L 241.99 87.34 L 241.99 87.34 L 241.99 87.34 L 241.99 87.34 L 241.99 87.34 L 241.99 87.34 L 241.99 87.34 L 241.99 87.34 L 241.99 87.34 L 241.99 87.34 L 241.99 87.34 L 241.99 87.34 L 241.99 87.34 L 241.99 87.34 L 241.99 87.34 L 241.99 87.34 L 241.99 87.34 L 241.99 87.34 L 241.99 87.34 L 241.99 87.34 L 241.99 87.34 L 241.99 87.34 L 241.99 87.34 L 241.99 87.34 L 241.99 87.34 L 241.99 87.34 L 241.99 87.34 L 241.99 87.34 C 241.99 81.02 236.38 75.9 229.46 75.9 C 222.55 75.9 216.94 81.02 216.94 87.34 C 216.94 90.1 218.01 92.64 219.81 94.61 C 219.25 94.79 218.67 95.12 218.16 95.58 L 196.96 114.72 C 195.71 115.84 195.31 117.33 196.07 118.03 L 196.07 118.03 C 196.83 118.73 198.46 118.38 199.71 117.25 L 220.91 98.12 C 221.45 97.63 221.83 97.08 222.03 96.55 L 222.03 96.55 L 222.03 96.55 L 222.03 96.55 L 222.03 96.55 L 222.03 96.55 L 222.03 96.55 L 222.03 96.55 L 222.03 96.55 L 222.03 96.55 L 222.03 96.55 L 222.03 96.55 L 222.03 96.55 Z  M 178.58 175.49 C 177.72 176.3 177.21 177.41 177.21 178.62 C 177.21 181.15 179.45 183.2 182.22 183.2 C 184.98 183.2 187.23 181.15 187.23 178.62 L 187.23 178.62 L 187.23 178.62 L 187.23 178.62 L 187.23 178.62 L 187.23 178.62 L 187.23 178.62 L 187.23 178.62 L 187.23 178.62 L 187.23 178.62 L 187.23 178.62 L 187.23 178.62 L 187.23 178.62 L 187.23 178.62 L 187.23 178.62 L 187.23 178.62 C 187.23 176.09 184.98 174.04 182.22 174.04 C 181.56 174.04 180.92 174.16 180.35 174.39 C 180.3 174.11 180.19 173.82 180.01 173.53 L 174.62 164.73 C 174.06 163.81 173.11 163.31 172.51 163.62 L 172.51 163.62 C 171.9 163.93 171.87 164.92 172.44 165.85 L 177.83 174.65 C 178.04 174.99 178.3 175.28 178.58 175.49 L 178.58 175.49 L 178.58 175.49 L 178.58 175.49 L 178.58 175.49 L 178.58 175.49 L 178.58 175.49 L 178.58 175.49 L 178.58 175.49 L 178.58 175.49 L 178.58 175.49 L 178.58 175.49 L 178.58 175.49 L 178.58 175.49 L 178.58 175.49 L 178.58 175.49 L 178.58 175.49 Z  M 194.71 156.96 C 194.69 157.13 194.68 157.3 194.68 157.47 C 194.68 160 196.93 162.05 199.69 162.05 C 202.46 162.05 204.7 160 204.7 157.47 L 204.7 157.47 L 204.7 157.47 L 204.7 157.47 L 204.7 157.47 L 204.7 157.47 L 204.7 157.47 L 204.7 157.47 L 204.7 157.47 L 204.7 157.47 L 204.7 157.47 L 204.7 157.47 L 204.7 157.47 L 204.7 157.47 L 204.7 157.47 L 204.7 157.47 C 204.7 154.95 202.46 152.9 199.69 152.9 C 197.63 152.9 195.86 154.04 195.1 155.67 C 194.84 155.31 194.33 154.98 193.7 154.82 L 182.82 152.06 C 181.78 151.8 180.78 152.07 180.59 152.68 L 180.59 152.68 C 180.4 153.29 181.1 154 182.15 154.27 L 193.03 157.03 C 193.66 157.19 194.28 157.15 194.71 156.96 L 194.71 156.96 L 194.71 156.96 L 194.71 156.96 L 194.71 156.96 L 194.71 156.96 L 194.71 156.96 L 194.71 156.96 L 194.71 156.96 L 194.71 156.96 L 194.71 156.96 L 194.71 156.96 L 194.71 156.96 L 194.71 156.96 L 194.71 156.96 L 194.71 156.96 L 194.71 156.96 L 194.71 156.96 Z  M 191.39 134.91 C 192.26 135.58 193.39 135.98 194.62 135.98 C 197.38 135.98 199.63 133.93 199.63 131.4 L 199.63 131.4 L 199.63 131.4 L 199.63 131.4 L 199.63 131.4 L 199.63 131.4 L 199.63 131.4 L 199.63 131.4 L 199.63 131.4 L 199.63 131.4 L 199.63 131.4 L 199.63 131.4 L 199.63 131.4 L 199.63 131.4 L 199.63 131.4 L 199.63 131.4 C 199.63 128.88 197.38 126.83 194.62 126.83 C 191.85 126.83 189.61 128.88 189.61 131.4 C 189.61 132.03 189.74 132.62 190.01 133.16 C 189.85 133.21 189.69 133.28 189.53 133.37 L 180.16 138.5 C 179.22 139.02 178.74 139.89 179.09 140.43 L 179.09 140.43 C 179.45 140.97 180.5 140.99 181.45 140.47 L 190.82 135.33 C 191.04 135.21 191.24 135.07 191.39 134.91 L 191.39 134.91 L 191.39 134.91 L 191.39 134.91 L 191.39 134.91 L 191.39 134.91 L 191.39 134.91 L 191.39 134.91 L 191.39 134.91 L 191.39 134.91 L 191.39 134.91 L 191.39 134.91 L 191.39 134.91 L 191.39 134.91 L 191.39 134.91 L 191.39 134.91 L 191.39 134.91 L 191.39 134.91 L 191.39 134.91 Z  M 175.1 201.04 L 170.15 181.47 C 169.89 180.43 170.22 179.46 170.89 179.32 L 170.89 179.32 C 171.57 179.18 172.33 179.91 172.59 180.96 L 177.52 200.47 C 177.83 200.44 178.14 200.42 178.46 200.42 C 183.3 200.42 187.23 204.01 187.23 208.43 C 187.23 212.85 183.3 216.44 178.46 216.44 C 173.62 216.44 169.69 212.85 169.69 208.43 C 169.69 205.1 171.92 202.24 175.1 201.04 L 175.1 201.04 L 175.1 201.04 L 175.1 201.04 L 175.1 201.04 L 175.1 201.04 L 175.1 201.04 L 175.1 201.04 L 175.1 201.04 L 175.1 201.04 L 175.1 201.04 L 175.1 201.04 L 175.1 201.04 L 175.1 201.04 L 175.1 201.04 L 175.1 201.04 L 175.1 201.04 L 175.1 201.04 L 175.1 201.04 L 175.1 201.04 L 175.1 201.04 L 175.1 201.04 L 175.1 201.04 L 175.1 201.04 L 175.1 201.04 L 175.1 201.04 L 175.1 201.04 L 175.1 201.04 L 175.1 201.04 L 175.1 201.04 L 175.1 201.04 L 175.1 201.04 L 175.1 201.04 L 175.1 201.04 L 175.1 201.04 L 175.1 201.04 L 175.1 201.04 L 175.1 201.04 L 175.1 201.04 L 175.1 201.04 L 175.1 201.04 L 175.1 201.04 L 175.1 201.04 L 175.1 201.04 L 175.1 201.04 L 175.1 201.04 L 175.1 201.04 L 175.1 201.04 L 175.1 201.04 L 175.1 201.04 L 175.1 201.04 L 175.1 201.04 L 175.1 201.04 L 175.1 201.04 L 175.1 201.04 Z  M 130.18 142.5 C 130.18 142.47 130.18 142.44 130.18 142.41 L 130.18 142.41 L 130.18 142.41 L 130.18 142.41 L 130.18 142.41 L 130.18 142.41 L 130.18 142.41 L 130.18 142.41 L 130.18 142.41 L 130.18 142.41 L 130.18 142.41 L 130.18 142.41 L 130.18 142.41 L 130.18 142.41 L 130.18 142.41 C 130.18 139.88 127.94 137.83 125.17 137.83 C 122.41 137.83 120.16 139.88 120.16 142.41 C 120.16 144.94 122.41 146.99 125.17 146.99 C 127.2 146.99 128.94 145.89 129.72 144.31 C 130.03 144.52 130.45 144.66 130.93 144.71 L 140.74 145.63 C 141.81 145.74 142.74 145.31 142.82 144.68 L 142.82 144.68 C 142.89 144.05 142.07 143.46 141 143.36 L 131.19 142.43 C 130.83 142.39 130.48 142.42 130.18 142.5 L 130.18 142.5 L 130.18 142.5 L 130.18 142.5 L 130.18 142.5 L 130.18 142.5 L 130.18 142.5 L 130.18 142.5 L 130.18 142.5 L 130.18 142.5 L 130.18 142.5 L 130.18 142.5 L 130.18 142.5 L 130.18 142.5 L 130.18 142.5 L 130.18 142.5 L 130.18 142.5 L 130.18 142.5 L 130.18 142.5 L 130.18 142.5 L 130.18 142.5 L 130.18 142.5 Z  M 133.97 164.59 C 133.12 163.98 132.05 163.61 130.88 163.61 C 128.12 163.61 125.87 165.67 125.87 168.19 C 125.87 170.72 128.12 172.77 130.88 172.77 C 133.65 172.77 135.89 170.72 135.89 168.19 L 135.89 168.19 L 135.89 168.19 L 135.89 168.19 L 135.89 168.19 L 135.89 168.19 L 135.89 168.19 L 135.89 168.19 L 135.89 168.19 L 135.89 168.19 L 135.89 168.19 L 135.89 168.19 L 135.89 168.19 L 135.89 168.19 L 135.89 168.19 C 135.89 167.42 135.68 166.68 135.31 166.04 C 135.57 166.02 135.85 165.94 136.12 165.82 L 144.97 161.98 C 145.96 161.55 146.52 160.74 146.23 160.17 L 146.23 160.17 C 145.93 159.59 144.88 159.48 143.89 159.91 L 135.04 163.76 C 134.56 163.97 134.18 164.27 133.97 164.59 L 133.97 164.59 L 133.97 164.59 L 133.97 164.59 L 133.97 164.59 L 133.97 164.59 L 133.97 164.59 L 133.97 164.59 L 133.97 164.59 L 133.97 164.59 L 133.97 164.59 L 133.97 164.59 L 133.97 164.59 L 133.97 164.59 L 133.97 164.59 L 133.97 164.59 L 133.97 164.59 L 133.97 164.59 L 133.97 164.59 L 133.97 164.59 L 133.97 164.59 L 133.97 164.59 L 133.97 164.59 Z  M 218.25 137.93 C 219.56 140.83 222.69 142.87 226.34 142.87 C 231.18 142.87 235.11 139.28 235.11 134.86 L 235.11 134.86 L 235.11 134.86 L 235.11 134.86 L 235.11 134.86 L 235.11 134.86 L 235.11 134.86 L 235.11 134.86 L 235.11 134.86 L 235.11 134.86 L 235.11 134.86 L 235.11 134.86 L 235.11 134.86 L 235.11 134.86 C 235.11 130.44 231.18 126.85 226.34 126.85 C 221.5 126.85 217.57 130.44 217.57 134.86 C 217.57 135.15 217.59 135.44 217.63 135.73 C 217.57 135.73 217.52 135.74 217.46 135.76 L 195.72 140.59 C 194.67 140.83 193.95 141.52 194.11 142.13 L 194.11 142.13 C 194.27 142.74 195.26 143.05 196.32 142.82 L 218.05 137.98 C 218.12 137.97 218.18 137.95 218.25 137.93 L 218.25 137.93 L 218.25 137.93 L 218.25 137.93 L 218.25 137.93 L 218.25 137.93 L 218.25 137.93 L 218.25 137.93 L 218.25 137.93 L 218.25 137.93 L 218.25 137.93 L 218.25 137.93 L 218.25 137.93 L 218.25 137.93 L 218.25 137.93 L 218.25 137.93 L 218.25 137.93 L 218.25 137.93 L 218.25 137.93 L 218.25 137.93 L 218.25 137.93 L 218.25 137.93 L 218.25 137.93 L 218.25 137.93 L 218.25 137.93 L 218.25 137.93 Z  M 268.99 184.24 C 268.87 185 268.8 185.78 268.8 186.58 C 268.8 195.42 276.8 202.59 286.65 202.59 C 296.5 202.59 304.5 195.42 304.5 186.58 L 304.5 186.58 L 304.5 186.58 L 304.5 186.58 L 304.5 186.58 L 304.5 186.58 L 304.5 186.58 L 304.5 186.58 L 304.5 186.58 L 304.5 186.58 L 304.5 186.58 L 304.5 186.58 L 304.5 186.58 L 304.5 186.58 L 304.5 186.58 L 304.5 186.58 L 304.5 186.58 L 304.5 186.58 L 304.5 186.58 L 304.5 186.58 L 304.5 186.58 L 304.5 186.58 L 304.5 186.58 L 304.5 186.58 L 304.5 186.58 L 304.5 186.58 L 304.5 186.58 L 304.5 186.58 L 304.5 186.58 L 304.5 186.58 L 304.5 186.58 L 304.5 186.58 L 304.5 186.58 L 304.5 186.58 L 304.5 186.58 L 304.5 186.58 L 304.5 186.58 L 304.5 186.58 L 304.5 186.58 L 304.5 186.58 L 304.5 186.58 L 304.5 186.58 L 304.5 186.58 L 304.5 186.58 L 304.5 186.58 L 304.5 186.58 L 304.5 186.58 C 304.5 177.73 296.5 170.56 286.65 170.56 C 279.08 170.56 272.6 174.8 270.02 180.78 C 269.51 180.32 268.81 179.93 268 179.67 L 228.02 167.03 C 225.95 166.38 223.91 166.82 223.46 168.02 L 223.46 168.02 C 223.01 169.21 224.32 170.71 226.38 171.36 L 266.36 184 C 267.29 184.29 268.21 184.36 268.99 184.24 L 268.99 184.24 L 268.99 184.24 L 268.99 184.24 Z  M 106.15 160.99 C 104.64 158.59 101.8 156.97 98.55 156.97 C 93.71 156.97 89.78 160.56 89.78 164.98 C 89.78 169.4 93.71 172.99 98.55 172.99 C 103.39 172.99 107.32 169.4 107.32 164.98 L 107.32 164.98 L 107.32 164.98 L 107.32 164.98 L 107.32 164.98 L 107.32 164.98 L 107.32 164.98 L 107.32 164.98 L 107.32 164.98 L 107.32 164.98 L 107.32 164.98 L 107.32 164.98 L 107.32 164.98 C 107.32 164.35 107.24 163.73 107.08 163.14 L 127.3 158.78 C 128.36 158.55 129.09 157.87 128.93 157.26 L 128.93 157.26 C 128.77 156.64 127.78 156.33 126.73 156.55 L 106.15 160.99 L 106.15 160.99 L 106.15 160.99 L 106.15 160.99 L 106.15 160.99 L 106.15 160.99 L 106.15 160.99 L 106.15 160.99 L 106.15 160.99 L 106.15 160.99 L 106.15 160.99 L 106.15 160.99 L 106.15 160.99 L 106.15 160.99 L 106.15 160.99 L 106.15 160.99 L 106.15 160.99 L 106.15 160.99 L 106.15 160.99 L 106.15 160.99 L 106.15 160.99 L 106.15 160.99 L 106.15 160.99 L 106.15 160.99 L 106.15 160.99 L 106.15 160.99 L 106.15 160.99 L 106.15 160.99 L 106.15 160.99 L 106.15 160.99 Z  M 113.83 121.94 C 114.33 120.93 114.61 119.81 114.61 118.64 L 114.61 118.64 L 114.61 118.64 L 114.61 118.64 L 114.61 118.64 L 114.61 118.64 L 114.61 118.64 L 114.61 118.64 L 114.61 118.64 L 114.61 118.64 L 114.61 118.64 L 114.61 118.64 L 114.61 118.64 C 114.61 114.22 110.68 110.63 105.84 110.63 C 101 110.63 97.08 114.22 97.08 118.64 C 97.08 123.06 101 126.65 105.84 126.65 C 108.54 126.65 110.95 125.53 112.56 123.78 C 112.7 123.91 112.88 124.03 113.08 124.13 L 132.46 134.21 C 133.42 134.71 134.47 134.67 134.82 134.12 L 134.82 134.12 C 135.16 133.57 134.66 132.72 133.7 132.22 L 114.32 122.14 C 114.15 122.06 113.99 121.99 113.83 121.94 L 113.83 121.94 L 113.83 121.94 L 113.83 121.94 L 113.83 121.94 L 113.83 121.94 L 113.83 121.94 L 113.83 121.94 L 113.83 121.94 L 113.83 121.94 L 113.83 121.94 L 113.83 121.94 L 113.83 121.94 L 113.83 121.94 L 113.83 121.94 L 113.83 121.94 L 113.83 121.94 L 113.83 121.94 L 113.83 121.94 L 113.83 121.94 L 113.83 121.94 L 113.83 121.94 L 113.83 121.94 L 113.83 121.94 L 113.83 121.94 L 113.83 121.94 L 113.83 121.94 L 113.83 121.94 L 113.83 121.94 Z  M 78.76 148.04 L 78.76 148.04 C 77.81 142.58 72.63 138.41 66.39 138.41 C 59.48 138.41 53.87 143.53 53.87 149.85 C 53.87 156.16 59.48 161.29 66.39 161.29 C 73.05 161.29 78.51 156.53 78.9 150.53 C 79.43 150.85 80.18 151.03 81 151.03 L 111.06 150.85 C 112.75 150.84 114.11 150.03 114.1 149.05 L 114.1 149.05 C 114.1 148.06 112.72 147.27 111.04 147.28 L 80.97 147.46 C 80.1 147.47 79.31 147.69 78.76 148.04 L 78.76 148.04 L 78.76 148.04 L 78.76 148.04 L 78.76 148.04 L 78.76 148.04 L 78.76 148.04 L 78.76 148.04 L 78.76 148.04 L 78.76 148.04 L 78.76 148.04 L 78.76 148.04 L 78.76 148.04 L 78.76 148.04 L 78.76 148.04 L 78.76 148.04 Z  M 131.88 194.15 C 130.8 193.71 129.61 193.47 128.36 193.47 C 123.52 193.47 119.59 197.06 119.59 201.48 C 119.59 205.9 123.52 209.49 128.36 209.49 C 133.2 209.49 137.12 205.9 137.12 201.48 L 137.12 201.48 L 137.12 201.48 L 137.12 201.48 L 137.12 201.48 L 137.12 201.48 L 137.12 201.48 L 137.12 201.48 L 137.12 201.48 L 137.12 201.48 L 137.12 201.48 L 137.12 201.48 L 137.12 201.48 C 137.12 199.02 135.91 196.82 133.99 195.36 C 134.02 195.32 134.05 195.29 134.07 195.25 L 145.7 178.05 C 146.3 177.15 146.31 176.16 145.73 175.83 L 145.73 175.83 C 145.14 175.49 144.17 175.95 143.56 176.85 L 131.94 194.05 C 131.92 194.08 131.89 194.12 131.88 194.15 L 131.88 194.15 L 131.88 194.15 L 131.88 194.15 L 131.88 194.15 L 131.88 194.15 L 131.88 194.15 L 131.88 194.15 L 131.88 194.15 L 131.88 194.15 L 131.88 194.15 L 131.88 194.15 L 131.88 194.15 L 131.88 194.15 L 131.88 194.15 L 131.88 194.15 L 131.88 194.15 L 131.88 194.15 L 131.88 194.15 L 131.88 194.15 L 131.88 194.15 L 131.88 194.15 L 131.88 194.15 L 131.88 194.15 L 131.88 194.15 L 131.88 194.15 L 131.88 194.15 L 131.88 194.15 L 131.88 194.15 L 131.88 194.15 L 131.88 194.15 Z  M 145.89 123.84 C 146.58 123.05 146.99 122.06 146.99 120.98 L 146.99 120.98 L 146.99 120.98 L 146.99 120.98 L 146.99 120.98 L 146.99 120.98 L 146.99 120.98 L 146.99 120.98 L 146.99 120.98 L 146.99 120.98 L 146.99 120.98 L 146.99 120.98 L 146.99 120.98 L 146.99 120.98 L 146.99 120.98 C 146.99 118.45 144.75 116.4 141.98 116.4 C 139.22 116.4 136.97 118.45 136.97 120.98 C 136.97 123.5 139.22 125.55 141.98 125.55 C 142.74 125.55 143.46 125.4 144.11 125.11 C 144.16 125.31 144.27 125.52 144.4 125.72 L 149.35 133.23 C 149.94 134.14 150.9 134.6 151.5 134.28 L 151.5 134.28 C 152.09 133.95 152.09 132.96 151.49 132.05 L 146.55 124.54 C 146.36 124.25 146.13 124.01 145.89 123.84 L 145.89 123.84 L 145.89 123.84 L 145.89 123.84 L 145.89 123.84 L 145.89 123.84 L 145.89 123.84 L 145.89 123.84 L 145.89 123.84 L 145.89 123.84 L 145.89 123.84 L 145.89 123.84 L 145.89 123.84 L 145.89 123.84 L 145.89 123.84 L 145.89 123.84 L 145.89 123.84 L 145.89 123.84 L 145.89 123.84 L 145.89 123.84 L 145.89 123.84 Z  M 211.32 177.46 C 210.85 178.43 210.59 179.5 210.59 180.63 C 210.59 185.05 214.52 188.64 219.36 188.64 C 224.2 188.64 228.13 185.05 228.13 180.63 L 228.13 180.63 L 228.13 180.63 L 228.13 180.63 L 228.13 180.63 L 228.13 180.63 L 228.13 180.63 L 228.13 180.63 L 228.13 180.63 L 228.13 180.63 L 228.13 180.63 L 228.13 180.63 L 228.13 180.63 L 228.13 180.63 C 228.13 176.21 224.2 172.62 219.36 172.62 C 216.54 172.62 214.02 173.84 212.42 175.74 C 212.26 175.53 212.03 175.34 211.76 175.17 L 193.24 163.85 C 192.32 163.28 191.26 163.25 190.88 163.78 L 190.88 163.78 C 190.49 164.3 190.93 165.19 191.85 165.75 L 210.37 177.07 C 210.68 177.26 211 177.39 211.32 177.46 L 211.32 177.46 L 211.32 177.46 L 211.32 177.46 L 211.32 177.46 L 211.32 177.46 L 211.32 177.46 L 211.32 177.46 L 211.32 177.46 L 211.32 177.46 L 211.32 177.46 L 211.32 177.46 L 211.32 177.46 L 211.32 177.46 L 211.32 177.46 L 211.32 177.46 L 211.32 177.46 L 211.32 177.46 L 211.32 177.46 L 211.32 177.46 L 211.32 177.46 L 211.32 177.46 L 211.32 177.46 L 211.32 177.46 L 211.32 177.46 Z  M 150.7 98.55 C 153.56 97.23 155.52 94.53 155.52 91.41 L 155.52 91.41 L 155.52 91.41 L 155.52 91.41 L 155.52 91.41 L 155.52 91.41 L 155.52 91.41 L 155.52 91.41 L 155.52 91.41 L 155.52 91.41 L 155.52 91.41 L 155.52 91.41 L 155.52 91.41 C 155.52 86.99 151.59 83.4 146.75 83.4 C 141.91 83.4 137.98 86.99 137.98 91.41 C 137.98 95.83 141.91 99.42 146.75 99.42 C 147.28 99.42 147.81 99.37 148.32 99.29 L 153.03 118.85 C 153.28 119.9 154.04 120.64 154.71 120.51 L 154.71 120.51 C 155.39 120.37 155.73 119.41 155.48 118.36 L 150.74 98.7 C 150.73 98.65 150.72 98.6 150.7 98.55 L 150.7 98.55 L 150.7 98.55 L 150.7 98.55 L 150.7 98.55 L 150.7 98.55 L 150.7 98.55 L 150.7 98.55 L 150.7 98.55 L 150.7 98.55 L 150.7 98.55 L 150.7 98.55 L 150.7 98.55 L 150.7 98.55 L 150.7 98.55 L 150.7 98.55 L 150.7 98.55 L 150.7 98.55 L 150.7 98.55 L 150.7 98.55 L 150.7 98.55 L 150.7 98.55 L 150.7 98.55 L 150.7 98.55 L 150.7 98.55 L 150.7 98.55 L 150.7 98.55 L 150.7 98.55 Z  M 193.5 105.76 C 194.53 106.15 195.66 106.37 196.85 106.37 C 201.69 106.37 205.62 102.78 205.62 98.36 C 205.62 93.94 201.69 90.35 196.85 90.35 C 192.01 90.35 188.08 93.94 188.08 98.36 C 188.08 100.87 189.35 103.12 191.34 104.59 L 179.85 122.86 C 179.54 123.36 179.71 123.99 180.23 124.26 L 180.51 124.4 C 181.03 124.68 181.71 124.5 182.02 124 L 193.5 105.76 L 193.5 105.76 L 193.5 105.76 L 193.5 105.76 L 193.5 105.76 L 193.5 105.76 L 193.5 105.76 L 193.5 105.76 L 193.5 105.76 L 193.5 105.76 L 193.5 105.76 L 193.5 105.76 L 193.5 105.76 L 193.5 105.76 L 193.5 105.76 L 193.5 105.76 L 193.5 105.76 L 193.5 105.76 L 193.5 105.76 L 193.5 105.76 L 193.5 105.76 L 193.5 105.76 L 193.5 105.76 L 193.5 105.76 L 193.5 105.76 L 193.5 105.76 L 193.5 105.76 Z  M 170.81 120.92 C 170.82 120.92 170.83 120.92 170.84 120.92 C 173.6 120.92 175.85 118.87 175.85 116.34 C 175.85 113.81 173.6 111.76 170.84 111.76 C 168.07 111.76 165.83 113.81 165.83 116.34 C 165.83 118.07 166.88 119.58 168.43 120.36 C 168.38 120.46 168.34 120.57 168.32 120.69 L 166.61 130.62 C 166.49 131.31 166.95 131.95 167.63 132.05 L 167.63 132.05 C 168.32 132.15 168.97 131.66 169.09 130.97 L 170.8 121.05 C 170.81 121 170.81 120.96 170.81 120.92 L 170.81 120.92 L 170.81 120.92 L 170.81 120.92 L 170.81 120.92 L 170.81 120.92 L 170.81 120.92 L 170.81 120.92 L 170.81 120.92 L 170.81 120.92 L 170.81 120.92 L 170.81 120.92 L 170.81 120.92 L 170.81 120.92 L 170.81 120.92 L 170.81 120.92 L 170.81 120.92 L 170.81 120.92 L 170.81 120.92 L 170.81 120.92 Z  M 105.08 94.76 C 106.52 92.9 107.36 90.63 107.36 88.18 C 107.36 81.86 101.75 76.74 94.84 76.74 C 87.93 76.74 82.31 81.86 82.31 88.18 C 82.31 94.49 87.93 99.62 94.84 99.62 C 97.91 99.62 100.72 98.61 102.89 96.93 C 103.1 97.38 103.46 97.84 103.92 98.25 L 125.38 117.15 C 126.65 118.26 128.28 118.59 129.03 117.88 L 129.03 117.88 C 129.78 117.17 129.36 115.69 128.09 114.58 L 106.63 95.69 C 106.14 95.26 105.6 94.95 105.08 94.76 L 105.08 94.76 L 105.08 94.76 L 105.08 94.76 L 105.08 94.76 L 105.08 94.76 L 105.08 94.76 L 105.08 94.76 L 105.08 94.76 L 105.08 94.76 L 105.08 94.76 L 105.08 94.76 L 105.08 94.76 L 105.08 94.76 L 105.08 94.76 Z  M 165.13 73.22 C 170.23 71.77 173.93 67.42 173.93 62.29 C 173.93 55.98 168.31 50.85 161.4 50.85 C 154.49 50.85 148.88 55.98 148.88 62.29 C 148.88 68.56 154.39 73.65 161.23 73.74 L 161.3 103.74 C 161.3 104.69 162.07 105.46 163.02 105.46 L 163.49 105.45 C 164.44 105.45 165.21 104.68 165.2 103.73 L 165.13 73.22 L 165.13 73.22 L 165.13 73.22 L 165.13 73.22 L 165.13 73.22 L 165.13 73.22 L 165.13 73.22 L 165.13 73.22 L 165.13 73.22 L 165.13 73.22 L 165.13 73.22 L 165.13 73.22 L 165.13 73.22 L 165.13 73.22 Z  M 55.47 113.99 C 55.62 113.15 55.7 112.29 55.7 111.42 C 55.7 102.57 47.7 95.4 37.85 95.4 C 28 95.4 20 102.57 20 111.42 C 20 120.26 28 127.43 37.85 127.43 C 45.15 127.43 51.43 123.49 54.18 117.84 C 54.63 118.15 55.16 118.42 55.75 118.61 L 95.6 131.59 C 97.65 132.26 99.7 131.83 100.16 130.64 L 100.16 130.64 C 100.63 129.45 99.34 127.95 97.28 127.28 L 57.44 114.3 C 56.76 114.08 56.09 113.98 55.47 113.99 L 55.47 113.99 L 55.47 113.99 L 55.47 113.99 L 55.47 113.99 L 55.47 113.99 L 55.47 113.99 L 55.47 113.99 Z  M 113.98 55.25 C 118.54 52.36 121.51 47.58 121.51 42.2 C 121.51 33.35 113.51 26.18 103.66 26.18 C 93.81 26.18 85.82 33.35 85.82 42.2 C 85.82 51.04 93.81 58.21 103.66 58.21 C 105.93 58.21 108.09 57.83 110.09 57.14 C 110.19 57.69 110.4 58.28 110.72 58.86 L 129.76 92.86 C 130.81 94.75 132.67 95.82 133.9 95.24 L 133.9 95.24 C 135.13 94.67 135.27 92.67 134.22 90.78 L 115.18 56.78 C 114.85 56.18 114.43 55.66 113.98 55.25 L 113.98 55.25 L 113.98 55.25 L 113.98 55.25 L 113.98 55.25 L 113.98 55.25 L 113.98 55.25 Z  M 200.66 51.88 C 201.49 51.98 202.33 52.04 203.19 52.04 C 213.04 52.04 221.04 44.86 221.04 36.02 C 221.04 27.18 213.04 20 203.19 20 C 193.34 20 185.34 27.18 185.34 36.02 C 185.34 42.51 189.65 48.11 195.84 50.62 L 181.79 89.43 C 181.39 90.53 181.98 91.7 183.1 92.04 L 183.8 92.25 C 184.92 92.59 186.15 91.97 186.55 90.87 L 196.16 64.33 L 200.66 51.88 L 200.66 51.88 L 200.66 51.88 L 200.66 51.88 L 200.66 51.88 L 200.66 51.88 Z " fill-rule="evenodd" fill="rgb(56,29,132)"/></g></g></g></svg>