<?xml version="1.0" standalone="no"?><!-- Generator: Gravit.io --><svg xmlns="http://www.w3.org/2000/svg" xmlns:xlink="http://www.w3.org/1999/xlink" style="isolation:isolate" viewBox="0 0 400 391" width="400" height="391"><defs><clipPath id="_clipPath_fE4Cng0JOIbTNlEeP6FM8RDs6IVBmUBl"><rect width="400" height="391"/></clipPath></defs><g clip-path="url(#_clipPath_fE4Cng0JOIbTNlEeP6FM8RDs6IVBmUBl)"><g><g><path d=" M 14.92 382.73 L 11.34 382.73 L 11.34 313.51 L 14.92 313.51 L 53.83 376.17 L 53.83 313.51 L 57.41 313.51 L 57.41 382.73 L 53.83 382.73 L 14.92 319.95 L 14.92 382.73 L 14.92 382.73 Z  M 129.14 365.9 L 132.36 367.46 L 132.36 367.46 Q 129.14 375.33 123.29 379.63 L 123.29 379.63 L 123.29 379.63 Q 117.45 383.93 105.75 383.93 L 105.75 383.93 L 105.75 383.93 Q 91.07 383.93 84.5 374.91 L 84.5 374.91 L 84.5 374.91 Q 77.94 365.9 77.94 346.81 L 77.94 346.81 L 77.94 335.11 L 77.94 335.11 Q 77.94 316.01 84.5 307 L 84.5 307 L 84.5 307 Q 91.07 297.99 105.75 297.99 L 105.75 297.99 L 105.75 297.99 Q 117.45 297.99 123.29 302.29 L 123.29 302.29 L 123.29 302.29 Q 129.14 306.58 132.36 314.46 L 132.36 314.46 L 129.14 316.01 L 129.14 316.01 Q 126.4 309.09 121.38 305.33 L 121.38 305.33 L 121.38 305.33 Q 116.37 301.57 105.75 301.57 L 105.75 301.57 L 105.75 301.57 Q 99.9 301.57 95.72 303.06 L 95.72 303.06 L 95.72 303.06 Q 91.55 304.55 88.2 308.14 L 88.2 308.14 L 88.2 308.14 Q 84.86 311.72 83.19 318.46 L 83.19 318.46 L 83.19 318.46 Q 81.52 325.2 81.52 335.11 L 81.52 335.11 L 81.52 346.81 L 81.52 346.81 Q 81.52 356.71 83.19 363.46 L 83.19 363.46 L 83.19 363.46 Q 84.86 370.2 88.2 373.78 L 88.2 373.78 L 88.2 373.78 Q 91.55 377.36 95.72 378.85 L 95.72 378.85 L 95.72 378.85 Q 99.9 380.35 105.75 380.35 L 105.75 380.35 L 105.75 380.35 Q 116.37 380.35 121.38 376.59 L 121.38 376.59 L 121.38 376.59 Q 126.4 372.83 129.14 365.9 L 129.14 365.9 L 129.14 365.9 Z  M 193.12 313.51 L 193.12 382.73 L 189.54 382.73 L 189.54 348.12 L 153.73 348.12 L 153.73 382.73 L 150.15 382.73 L 150.15 313.51 L 153.73 313.51 L 153.73 344.54 L 189.54 344.54 L 189.54 313.51 L 193.12 313.51 L 193.12 313.51 Z  M 222.12 382.73 L 222.12 379.15 L 261.03 379.15 L 236.56 321.5 L 210.54 382.73 L 206.72 382.73 L 236.56 312.31 L 266.4 382.73 L 222.12 382.73 L 222.12 382.73 Z  M 309.13 348 L 309.13 348 L 325.36 382.73 L 321.42 382.73 L 304.71 346.93 L 304.71 346.93 Q 304.95 346.81 306.8 345.91 L 306.8 345.91 L 306.8 345.91 Q 308.65 345.02 309.37 344.6 L 309.37 344.6 L 309.37 344.6 Q 310.08 344.18 311.76 343.11 L 311.76 343.11 L 311.76 343.11 Q 313.43 342.03 314.26 341.02 L 314.26 341.02 L 314.26 341.02 Q 315.1 340 316.11 338.63 L 316.11 338.63 L 316.11 338.63 Q 317.13 337.26 317.6 335.53 L 317.6 335.53 L 317.6 335.53 Q 318.08 333.8 318.08 331.77 L 318.08 331.77 L 318.08 331.77 Q 318.08 324.25 310.92 320.67 L 310.92 320.67 L 310.92 320.67 Q 303.76 317.09 293.14 317.09 L 293.14 317.09 L 283.59 317.09 L 283.59 382.73 L 280.01 382.73 L 280.01 313.51 L 293.14 313.51 L 293.14 313.51 Q 307.22 313.51 314.44 318.4 L 314.44 318.4 L 314.44 318.4 Q 321.66 323.29 321.66 331.77 L 321.66 331.77 L 321.66 331.77 Q 321.66 337.26 317.96 341.5 L 317.96 341.5 L 317.96 341.5 Q 314.26 345.73 309.13 348 Z  M 332.64 313.51 L 386.35 313.51 L 386.35 317.09 L 361.29 317.09 L 361.29 382.73 L 357.71 382.73 L 357.71 317.09 L 332.64 317.09 L 332.64 313.51 L 332.64 313.51 Z " fill-rule="evenodd" fill="rgb(101,105,223)"/></g><g><defs><filter id="hPcqBJQs8yycXTLThQkNafdA8QIdP3tX" x="46.75" y="17" width="306.5" height="279.697" filterUnits="userSpaceOnUse"><feGaussianBlur xmlns="http://www.w3.org/2000/svg" in="SourceGraphic" stdDeviation="3.4348872502712227"/><feOffset xmlns="http://www.w3.org/2000/svg" dx="0" dy="8" result="pf_100_offsetBlur"/><feFlood xmlns="http://www.w3.org/2000/svg" flood-color="#000000" flood-opacity="0.55"/><feComposite xmlns="http://www.w3.org/2000/svg" in2="pf_100_offsetBlur" operator="in" result="pf_100_dropShadow"/><feBlend xmlns="http://www.w3.org/2000/svg" in="SourceGraphic" in2="pf_100_dropShadow" mode="normal"/></filter></defs><g filter="url(#hPcqBJQs8yycXTLThQkNafdA8QIdP3tX)"><path d=" M 165.69 247.15 L 165.69 247.15 L 178.39 211.45 C 179.11 209.41 178.63 207.44 177.32 207.05 L 177.32 207.05 C 176 206.66 174.35 208 173.62 210.03 L 160.89 245.84 C 160 245.72 159.09 245.66 158.17 245.66 C 148.32 245.66 140.32 252.84 140.32 261.68 C 140.32 270.52 148.32 277.7 158.17 277.7 C 168.02 277.7 176.02 270.52 176.02 261.68 C 176.02 255.25 171.79 249.7 165.69 247.15 Z  M 141.68 204.04 L 141.68 204.04 C 142.18 203.84 142.69 203.53 143.14 203.1 L 164.1 183.27 C 165.28 182.15 165.63 180.71 164.89 180.05 L 164.89 180.05 C 164.14 179.4 162.58 179.77 161.4 180.88 L 140.44 200.71 C 139.87 201.25 139.49 201.86 139.35 202.43 C 137.49 201.43 135.32 200.85 133.01 200.85 C 126.1 200.85 120.49 205.98 120.49 212.3 C 120.49 218.61 126.1 223.74 133.01 223.74 C 139.93 223.74 145.54 218.61 145.54 212.3 C 145.54 209.05 144.06 206.12 141.68 204.04 L 141.68 204.04 L 141.68 204.04 L 141.68 204.04 L 141.68 204.04 L 141.68 204.04 L 141.68 204.04 L 141.68 204.04 L 141.68 204.04 L 141.68 204.04 L 141.68 204.04 L 141.68 204.04 L 141.68 204.04 L 141.68 204.04 L 141.68 204.04 L 141.68 204.04 L 141.68 204.04 L 141.68 204.04 L 141.68 204.04 L 141.68 204.04 L 141.68 204.04 L 141.68 204.04 L 141.68 204.04 L 141.68 204.04 L 141.68 204.04 L 141.68 204.04 L 141.68 204.04 L 141.68 204.04 L 141.68 204.04 L 141.68 204.04 L 141.68 204.04 L 141.68 204.04 L 141.68 204.04 L 141.68 204.04 L 141.68 204.04 L 141.68 204.04 L 141.68 204.04 L 141.68 204.04 L 141.68 204.04 L 141.68 204.04 L 141.68 204.04 L 141.68 204.04 L 141.68 204.04 L 141.68 204.04 L 141.68 204.04 L 141.68 204.04 L 141.68 204.04 L 141.68 204.04 Z  M 194.27 178.26 L 194.27 178.26 C 194.36 178.08 194.42 177.87 194.46 177.65 L 196.11 169.1 C 196.32 168.04 195.93 167.09 195.25 166.98 L 195.25 166.98 C 194.57 166.87 193.85 167.64 193.65 168.7 L 192 177.25 C 191.97 177.41 191.95 177.57 191.94 177.72 C 191.93 177.72 191.91 177.72 191.9 177.72 C 189.13 177.72 186.89 179.77 186.89 182.3 C 186.89 184.82 189.13 186.87 191.9 186.87 C 194.66 186.87 196.91 184.82 196.91 182.3 C 196.91 180.55 195.84 179.03 194.27 178.26 L 194.27 178.26 Z  M 248.52 243.65 C 244.07 246.57 241.18 251.28 241.18 256.59 C 241.18 265.44 249.18 272.61 259.03 272.61 C 268.88 272.61 276.88 265.44 276.88 256.59 L 276.88 256.59 L 276.88 256.59 L 276.88 256.59 L 276.88 256.59 L 276.88 256.59 L 276.88 256.59 L 276.88 256.59 L 276.88 256.59 L 276.88 256.59 L 276.88 256.59 L 276.88 256.59 L 276.88 256.59 L 276.88 256.59 L 276.88 256.59 L 276.88 256.59 L 276.88 256.59 L 276.88 256.59 L 276.88 256.59 L 276.88 256.59 L 276.88 256.59 L 276.88 256.59 L 276.88 256.59 L 276.88 256.59 L 276.88 256.59 L 276.88 256.59 L 276.88 256.59 L 276.88 256.59 L 276.88 256.59 L 276.88 256.59 L 276.88 256.59 L 276.88 256.59 L 276.88 256.59 L 276.88 256.59 L 276.88 256.59 L 276.88 256.59 L 276.88 256.59 L 276.88 256.59 L 276.88 256.59 L 276.88 256.59 L 276.88 256.59 L 276.88 256.59 L 276.88 256.59 L 276.88 256.59 L 276.88 256.59 L 276.88 256.59 L 276.88 256.59 C 276.88 247.75 268.88 240.58 259.03 240.58 C 256.84 240.58 254.73 240.93 252.79 241.58 C 252.7 241.3 252.58 241.02 252.44 240.74 L 234.51 206.26 C 233.51 204.34 231.69 203.22 230.44 203.76 L 230.44 203.76 C 229.19 204.3 228.99 206.3 229.99 208.22 L 247.91 242.7 C 248.09 243.05 248.29 243.36 248.52 243.65 L 248.52 243.65 L 248.52 243.65 Z  M 302.27 103.67 C 305.22 108.86 311.24 112.43 318.18 112.43 C 328.03 112.43 336.02 105.25 336.02 96.41 L 336.02 96.41 L 336.02 96.41 L 336.02 96.41 L 336.02 96.41 L 336.02 96.41 L 336.02 96.41 L 336.02 96.41 L 336.02 96.41 L 336.02 96.41 L 336.02 96.41 L 336.02 96.41 L 336.02 96.41 L 336.02 96.41 L 336.02 96.41 L 336.02 96.41 L 336.02 96.41 L 336.02 96.41 L 336.02 96.41 L 336.02 96.41 L 336.02 96.41 L 336.02 96.41 L 336.02 96.41 L 336.02 96.41 L 336.02 96.41 L 336.02 96.41 L 336.02 96.41 L 336.02 96.41 L 336.02 96.41 L 336.02 96.41 L 336.02 96.41 L 336.02 96.41 L 336.02 96.41 L 336.02 96.41 L 336.02 96.41 L 336.02 96.41 L 336.02 96.41 L 336.02 96.41 L 336.02 96.41 L 336.02 96.41 L 336.02 96.41 L 336.02 96.41 L 336.02 96.41 L 336.02 96.41 L 336.02 96.41 L 336.02 96.41 L 336.02 96.41 C 336.02 87.57 328.03 80.39 318.18 80.39 C 308.32 80.39 300.33 87.57 300.33 96.41 C 300.33 97.61 300.47 98.78 300.77 99.9 C 300.09 99.95 299.34 100.14 298.61 100.48 L 261.07 118.15 C 259.11 119.07 258.04 120.73 258.67 121.85 L 258.67 121.85 C 259.3 122.97 261.4 123.14 263.36 122.22 L 300.91 104.55 C 301.43 104.3 301.9 104 302.27 103.67 L 302.27 103.67 L 302.27 103.67 L 302.27 103.67 L 302.27 103.67 Z  M 96.3 192.54 C 93.03 189.25 88.27 187.18 82.98 187.18 C 73.13 187.18 65.13 194.36 65.13 203.2 C 65.13 212.04 73.13 219.22 82.98 219.22 C 92.83 219.22 100.83 212.04 100.83 203.2 L 100.83 203.2 L 100.83 203.2 L 100.83 203.2 L 100.83 203.2 L 100.83 203.2 L 100.83 203.2 L 100.83 203.2 L 100.83 203.2 L 100.83 203.2 L 100.83 203.2 L 100.83 203.2 L 100.83 203.2 L 100.83 203.2 L 100.83 203.2 L 100.83 203.2 L 100.83 203.2 L 100.83 203.2 L 100.83 203.2 L 100.83 203.2 L 100.83 203.2 L 100.83 203.2 L 100.83 203.2 L 100.83 203.2 L 100.83 203.2 L 100.83 203.2 L 100.83 203.2 L 100.83 203.2 L 100.83 203.2 L 100.83 203.2 L 100.83 203.2 L 100.83 203.2 L 100.83 203.2 L 100.83 203.2 L 100.83 203.2 L 100.83 203.2 L 100.83 203.2 L 100.83 203.2 L 100.83 203.2 L 100.83 203.2 L 100.83 203.2 L 100.83 203.2 L 100.83 203.2 L 100.83 203.2 C 100.83 200.66 100.17 198.25 98.99 196.11 C 99.28 196.04 99.57 195.94 99.86 195.82 L 138.13 179.46 C 140.12 178.61 141.26 176.99 140.67 175.85 L 140.67 175.85 C 140.09 174.7 138 174.46 136.01 175.31 L 97.74 191.67 C 97.18 191.91 96.69 192.21 96.3 192.54 L 96.3 192.54 L 96.3 192.54 L 96.3 192.54 L 96.3 192.54 L 96.3 192.54 L 96.3 192.54 L 96.3 192.54 L 96.3 192.54 Z  M 199.12 225.33 C 192.66 225.78 187.57 230.72 187.57 236.73 C 187.57 243.05 193.18 248.17 200.1 248.17 C 207.01 248.17 212.62 243.05 212.62 236.73 L 212.62 236.73 L 212.62 236.73 L 212.62 236.73 L 212.62 236.73 L 212.62 236.73 L 212.62 236.73 L 212.62 236.73 L 212.62 236.73 L 212.62 236.73 L 212.62 236.73 L 212.62 236.73 L 212.62 236.73 L 212.62 236.73 L 212.62 236.73 L 212.62 236.73 L 212.62 236.73 L 212.62 236.73 L 212.62 236.73 L 212.62 236.73 L 212.62 236.73 L 212.62 236.73 L 212.62 236.73 L 212.62 236.73 L 212.62 236.73 L 212.62 236.73 L 212.62 236.73 L 212.62 236.73 L 212.62 236.73 L 212.62 236.73 L 212.62 236.73 L 212.62 236.73 L 212.62 236.73 L 212.62 236.73 L 212.62 236.73 L 212.62 236.73 L 212.62 236.73 L 212.62 236.73 L 212.62 236.73 L 212.62 236.73 L 212.62 236.73 L 212.62 236.73 L 212.62 236.73 L 212.62 236.73 L 212.62 236.73 C 212.62 230.97 207.96 226.2 201.89 225.41 C 202.26 224.86 202.48 224.09 202.48 223.23 L 202.5 196.3 C 202.5 194.61 201.63 193.24 200.55 193.24 L 200.55 193.24 C 199.47 193.24 198.6 194.61 198.6 196.29 L 198.58 223.23 C 198.58 224.05 198.78 224.79 199.12 225.33 L 199.12 225.33 L 199.12 225.33 L 199.12 225.33 L 199.12 225.33 L 199.12 225.33 L 199.12 225.33 L 199.12 225.33 L 199.12 225.33 L 199.12 225.33 Z  M 258.27 204.57 C 256.68 206.49 255.73 208.88 255.73 211.47 C 255.73 217.79 261.34 222.91 268.26 222.91 C 275.17 222.91 280.78 217.79 280.78 211.47 L 280.78 211.47 L 280.78 211.47 L 280.78 211.47 L 280.78 211.47 L 280.78 211.47 L 280.78 211.47 L 280.78 211.47 L 280.78 211.47 L 280.78 211.47 L 280.78 211.47 L 280.78 211.47 L 280.78 211.47 L 280.78 211.47 L 280.78 211.47 L 280.78 211.47 L 280.78 211.47 L 280.78 211.47 L 280.78 211.47 L 280.78 211.47 L 280.78 211.47 L 280.78 211.47 L 280.78 211.47 L 280.78 211.47 L 280.78 211.47 L 280.78 211.47 L 280.78 211.47 L 280.78 211.47 L 280.78 211.47 L 280.78 211.47 L 280.78 211.47 L 280.78 211.47 L 280.78 211.47 L 280.78 211.47 C 280.78 205.16 275.17 200.03 268.26 200.03 C 265.31 200.03 262.6 200.96 260.47 202.52 C 260.28 202.04 259.93 201.53 259.45 201.07 L 238.87 181.41 C 237.65 180.25 236.03 179.86 235.25 180.54 L 235.25 180.54 C 234.47 181.22 234.83 182.71 236.04 183.88 L 256.63 203.54 C 257.14 204.02 257.71 204.37 258.27 204.57 L 258.27 204.57 L 258.27 204.57 L 258.27 204.57 L 258.27 204.57 L 258.27 204.57 L 258.27 204.57 L 258.27 204.57 L 258.27 204.57 L 258.27 204.57 L 258.27 204.57 Z  M 283.69 150.16 C 284.22 156.02 289.61 160.63 296.16 160.63 C 303.07 160.63 308.69 155.51 308.69 149.19 L 308.69 149.19 L 308.69 149.19 L 308.69 149.19 L 308.69 149.19 L 308.69 149.19 L 308.69 149.19 L 308.69 149.19 L 308.69 149.19 L 308.69 149.19 L 308.69 149.19 L 308.69 149.19 L 308.69 149.19 L 308.69 149.19 L 308.69 149.19 L 308.69 149.19 L 308.69 149.19 L 308.69 149.19 L 308.69 149.19 L 308.69 149.19 L 308.69 149.19 L 308.69 149.19 L 308.69 149.19 L 308.69 149.19 L 308.69 149.19 L 308.69 149.19 L 308.69 149.19 L 308.69 149.19 L 308.69 149.19 L 308.69 149.19 L 308.69 149.19 L 308.69 149.19 L 308.69 149.19 L 308.69 149.19 C 308.69 142.88 303.07 137.75 296.16 137.75 C 289.87 137.75 284.66 142 283.77 147.52 C 283.23 147.21 282.48 147.04 281.66 147.06 L 249.9 147.72 C 248.21 147.76 246.86 148.59 246.89 149.57 L 246.89 149.57 C 246.91 150.55 248.3 151.32 249.99 151.29 L 281.75 150.62 C 282.49 150.61 283.18 150.44 283.69 150.16 L 283.69 150.16 L 283.69 150.16 L 283.69 150.16 L 283.69 150.16 L 283.69 150.16 L 283.69 150.16 L 283.69 150.16 L 283.69 150.16 L 283.69 150.16 L 283.69 150.16 L 283.69 150.16 Z  M 259.78 96.55 C 261.86 97.95 264.43 98.78 267.21 98.78 C 274.13 98.78 279.74 93.65 279.74 87.34 L 279.74 87.34 L 279.74 87.34 L 279.74 87.34 L 279.74 87.34 L 279.74 87.34 L 279.74 87.34 L 279.74 87.34 L 279.74 87.34 L 279.74 87.34 L 279.74 87.34 L 279.74 87.34 L 279.74 87.34 L 279.74 87.34 L 279.74 87.34 L 279.74 87.34 L 279.74 87.34 L 279.74 87.34 L 279.74 87.34 L 279.74 87.34 L 279.74 87.34 L 279.74 87.34 L 279.74 87.34 L 279.74 87.34 L 279.74 87.34 L 279.74 87.34 L 279.74 87.34 L 279.74 87.34 L 279.74 87.34 L 279.74 87.34 L 279.74 87.34 L 279.74 87.34 L 279.74 87.34 L 279.74 87.34 C 279.74 81.02 274.13 75.9 267.21 75.9 C 260.3 75.9 254.69 81.02 254.69 87.34 C 254.69 90.1 255.76 92.64 257.56 94.61 C 257 94.79 256.42 95.12 255.91 95.58 L 234.71 114.72 C 233.46 115.84 233.06 117.33 233.82 118.03 L 233.82 118.03 C 234.58 118.73 236.21 118.38 237.46 117.25 L 258.66 98.12 C 259.2 97.63 259.58 97.08 259.78 96.55 L 259.78 96.55 L 259.78 96.55 L 259.78 96.55 L 259.78 96.55 L 259.78 96.55 L 259.78 96.55 L 259.78 96.55 L 259.78 96.55 L 259.78 96.55 L 259.78 96.55 L 259.78 96.55 L 259.78 96.55 Z  M 216.33 175.49 C 215.47 176.3 214.96 177.41 214.96 178.62 C 214.96 181.15 217.2 183.2 219.97 183.2 C 222.73 183.2 224.98 181.15 224.98 178.62 L 224.98 178.62 L 224.98 178.62 L 224.98 178.62 L 224.98 178.62 L 224.98 178.62 L 224.98 178.62 L 224.98 178.62 L 224.98 178.62 L 224.98 178.62 L 224.98 178.62 L 224.98 178.62 L 224.98 178.62 L 224.98 178.62 L 224.98 178.62 L 224.98 178.62 C 224.98 176.09 222.73 174.04 219.97 174.04 C 219.31 174.04 218.67 174.16 218.1 174.39 C 218.05 174.11 217.94 173.82 217.76 173.53 L 212.37 164.73 C 211.81 163.81 210.86 163.31 210.26 163.62 L 210.26 163.62 C 209.65 163.93 209.62 164.92 210.19 165.85 L 215.58 174.65 C 215.79 174.99 216.05 175.28 216.33 175.49 L 216.33 175.49 L 216.33 175.49 L 216.33 175.49 L 216.33 175.49 L 216.33 175.49 L 216.33 175.49 L 216.33 175.49 L 216.33 175.49 L 216.33 175.49 L 216.33 175.49 L 216.33 175.49 L 216.33 175.49 L 216.33 175.49 L 216.33 175.49 L 216.33 175.49 L 216.33 175.49 Z  M 232.46 156.96 C 232.44 157.13 232.43 157.3 232.43 157.47 C 232.43 160 234.68 162.05 237.44 162.05 C 240.21 162.05 242.45 160 242.45 157.47 L 242.45 157.47 L 242.45 157.47 L 242.45 157.47 L 242.45 157.47 L 242.45 157.47 L 242.45 157.47 L 242.45 157.47 L 242.45 157.47 L 242.45 157.47 L 242.45 157.47 L 242.45 157.47 L 242.45 157.47 L 242.45 157.47 L 242.45 157.47 L 242.45 157.47 C 242.45 154.95 240.21 152.9 237.44 152.9 C 235.38 152.9 233.61 154.04 232.85 155.67 C 232.59 155.31 232.08 154.98 231.45 154.82 L 220.57 152.06 C 219.53 151.8 218.53 152.07 218.34 152.68 L 218.34 152.68 C 218.15 153.29 218.85 154 219.9 154.27 L 230.78 157.03 C 231.41 157.19 232.03 157.15 232.46 156.96 L 232.46 156.96 L 232.46 156.96 L 232.46 156.96 L 232.46 156.96 L 232.46 156.96 L 232.46 156.96 L 232.46 156.96 L 232.46 156.96 L 232.46 156.96 L 232.46 156.96 L 232.46 156.96 L 232.46 156.96 L 232.46 156.96 L 232.46 156.96 L 232.46 156.96 L 232.46 156.96 L 232.46 156.96 Z  M 229.14 134.91 C 230.01 135.58 231.14 135.98 232.37 135.98 C 235.13 135.98 237.38 133.93 237.38 131.4 L 237.38 131.4 L 237.38 131.4 L 237.38 131.4 L 237.38 131.4 L 237.38 131.4 L 237.38 131.4 L 237.38 131.4 L 237.38 131.4 L 237.38 131.4 L 237.38 131.4 L 237.38 131.4 L 237.38 131.4 L 237.38 131.4 L 237.38 131.4 L 237.38 131.4 C 237.38 128.88 235.13 126.83 232.37 126.83 C 229.6 126.83 227.36 128.88 227.36 131.4 C 227.36 132.03 227.49 132.62 227.76 133.16 C 227.6 133.21 227.44 133.28 227.28 133.37 L 217.91 138.5 C 216.97 139.02 216.49 139.89 216.84 140.43 L 216.84 140.43 C 217.2 140.97 218.25 140.99 219.2 140.47 L 228.57 135.33 C 228.79 135.21 228.99 135.07 229.14 134.91 L 229.14 134.91 L 229.14 134.91 L 229.14 134.91 L 229.14 134.91 L 229.14 134.91 L 229.14 134.91 L 229.14 134.91 L 229.14 134.91 L 229.14 134.91 L 229.14 134.91 L 229.14 134.91 L 229.14 134.91 L 229.14 134.91 L 229.14 134.91 L 229.14 134.91 L 229.14 134.91 L 229.14 134.91 L 229.14 134.91 Z  M 212.85 201.04 L 207.9 181.47 C 207.64 180.43 207.97 179.46 208.64 179.32 L 208.64 179.32 C 209.32 179.18 210.08 179.91 210.34 180.96 L 215.27 200.47 C 215.58 200.44 215.89 200.42 216.21 200.42 C 221.05 200.42 224.98 204.01 224.98 208.43 C 224.98 212.85 221.05 216.44 216.21 216.44 C 211.37 216.44 207.44 212.85 207.44 208.43 C 207.44 205.1 209.67 202.24 212.85 201.04 L 212.85 201.04 L 212.85 201.04 L 212.85 201.04 L 212.85 201.04 L 212.85 201.04 L 212.85 201.04 L 212.85 201.04 L 212.85 201.04 L 212.85 201.04 L 212.85 201.04 L 212.85 201.04 L 212.85 201.04 L 212.85 201.04 L 212.85 201.04 L 212.85 201.04 L 212.85 201.04 L 212.85 201.04 L 212.85 201.04 L 212.85 201.04 L 212.85 201.04 L 212.85 201.04 L 212.85 201.04 L 212.85 201.04 L 212.85 201.04 L 212.85 201.04 L 212.85 201.04 L 212.85 201.04 L 212.85 201.04 L 212.85 201.04 L 212.85 201.04 L 212.85 201.04 L 212.85 201.04 L 212.85 201.04 L 212.85 201.04 L 212.85 201.04 L 212.85 201.04 L 212.85 201.04 L 212.85 201.04 L 212.85 201.04 L 212.85 201.04 L 212.85 201.04 L 212.85 201.04 L 212.85 201.04 L 212.85 201.04 L 212.85 201.04 L 212.85 201.04 L 212.85 201.04 L 212.85 201.04 L 212.85 201.04 L 212.85 201.04 L 212.85 201.04 L 212.85 201.04 L 212.85 201.04 L 212.85 201.04 Z  M 167.93 142.5 C 167.93 142.47 167.93 142.44 167.93 142.41 L 167.93 142.41 L 167.93 142.41 L 167.93 142.41 L 167.93 142.41 L 167.93 142.41 L 167.93 142.41 L 167.93 142.41 L 167.93 142.41 L 167.93 142.41 L 167.93 142.41 L 167.93 142.41 L 167.93 142.41 L 167.93 142.41 L 167.93 142.41 C 167.93 139.88 165.69 137.83 162.92 137.83 C 160.16 137.83 157.91 139.88 157.91 142.41 C 157.91 144.94 160.16 146.99 162.92 146.99 C 164.95 146.99 166.69 145.89 167.47 144.31 C 167.78 144.52 168.2 144.66 168.68 144.71 L 178.49 145.63 C 179.56 145.74 180.49 145.31 180.57 144.68 L 180.57 144.68 C 180.64 144.05 179.82 143.46 178.75 143.36 L 168.94 142.43 C 168.58 142.39 168.23 142.42 167.93 142.5 L 167.93 142.5 L 167.93 142.5 L 167.93 142.5 L 167.93 142.5 L 167.93 142.5 L 167.93 142.5 L 167.93 142.5 L 167.93 142.5 L 167.93 142.5 L 167.93 142.5 L 167.93 142.5 L 167.93 142.5 L 167.93 142.5 L 167.93 142.5 L 167.93 142.5 L 167.93 142.5 L 167.93 142.5 L 167.93 142.5 L 167.93 142.5 L 167.93 142.5 L 167.93 142.5 Z  M 171.72 164.59 C 170.87 163.98 169.8 163.61 168.63 163.61 C 165.87 163.61 163.62 165.67 163.62 168.19 C 163.62 170.72 165.87 172.77 168.63 172.77 C 171.4 172.77 173.64 170.72 173.64 168.19 L 173.64 168.19 L 173.64 168.19 L 173.64 168.19 L 173.64 168.19 L 173.64 168.19 L 173.64 168.19 L 173.64 168.19 L 173.64 168.19 L 173.64 168.19 L 173.64 168.19 L 173.64 168.19 L 173.64 168.19 L 173.64 168.19 L 173.64 168.19 C 173.64 167.42 173.43 166.68 173.06 166.04 C 173.32 166.02 173.6 165.94 173.87 165.82 L 182.72 161.98 C 183.71 161.55 184.27 160.74 183.98 160.17 L 183.98 160.17 C 183.68 159.59 182.63 159.48 181.64 159.91 L 172.79 163.76 C 172.31 163.97 171.93 164.27 171.72 164.59 L 171.72 164.59 L 171.72 164.59 L 171.72 164.59 L 171.72 164.59 L 171.72 164.59 L 171.72 164.59 L 171.72 164.59 L 171.72 164.59 L 171.72 164.59 L 171.72 164.59 L 171.72 164.59 L 171.72 164.59 L 171.72 164.59 L 171.72 164.59 L 171.72 164.59 L 171.72 164.59 L 171.72 164.59 L 171.72 164.59 L 171.72 164.59 L 171.72 164.59 L 171.72 164.59 L 171.72 164.59 Z  M 256 137.93 C 257.31 140.83 260.44 142.87 264.09 142.87 C 268.93 142.87 272.86 139.28 272.86 134.86 L 272.86 134.86 L 272.86 134.86 L 272.86 134.86 L 272.86 134.86 L 272.86 134.86 L 272.86 134.86 L 272.86 134.86 L 272.86 134.86 L 272.86 134.86 L 272.86 134.86 L 272.86 134.86 L 272.86 134.86 L 272.86 134.86 C 272.86 130.44 268.93 126.85 264.09 126.85 C 259.25 126.85 255.32 130.44 255.32 134.86 C 255.32 135.15 255.34 135.44 255.38 135.73 C 255.32 135.73 255.27 135.74 255.21 135.76 L 233.47 140.59 C 232.42 140.83 231.7 141.52 231.86 142.13 L 231.86 142.13 C 232.02 142.74 233.01 143.05 234.07 142.82 L 255.8 137.98 C 255.87 137.97 255.93 137.95 256 137.93 L 256 137.93 L 256 137.93 L 256 137.93 L 256 137.93 L 256 137.93 L 256 137.93 L 256 137.93 L 256 137.93 L 256 137.93 L 256 137.93 L 256 137.93 L 256 137.93 L 256 137.93 L 256 137.93 L 256 137.93 L 256 137.93 L 256 137.93 L 256 137.93 L 256 137.93 L 256 137.93 L 256 137.93 L 256 137.93 L 256 137.93 L 256 137.93 L 256 137.93 Z  M 306.74 184.24 C 306.62 185 306.55 185.78 306.55 186.58 C 306.55 195.42 314.55 202.59 324.4 202.59 C 334.25 202.59 342.25 195.42 342.25 186.58 L 342.25 186.58 L 342.25 186.58 L 342.25 186.58 L 342.25 186.58 L 342.25 186.58 L 342.25 186.58 L 342.25 186.58 L 342.25 186.58 L 342.25 186.58 L 342.25 186.58 L 342.25 186.58 L 342.25 186.58 L 342.25 186.58 L 342.25 186.58 L 342.25 186.58 L 342.25 186.58 L 342.25 186.58 L 342.25 186.58 L 342.25 186.58 L 342.25 186.58 L 342.25 186.58 L 342.25 186.58 L 342.25 186.58 L 342.25 186.58 L 342.25 186.58 L 342.25 186.58 L 342.25 186.58 L 342.25 186.58 L 342.25 186.58 L 342.25 186.58 L 342.25 186.58 L 342.25 186.58 L 342.25 186.58 L 342.25 186.58 L 342.25 186.58 L 342.25 186.58 L 342.25 186.58 L 342.25 186.58 L 342.25 186.58 L 342.25 186.58 L 342.25 186.58 L 342.25 186.58 L 342.25 186.58 L 342.25 186.58 L 342.25 186.58 L 342.25 186.58 C 342.25 177.73 334.25 170.56 324.4 170.56 C 316.83 170.56 310.35 174.8 307.77 180.78 C 307.26 180.32 306.56 179.93 305.75 179.67 L 265.77 167.03 C 263.7 166.38 261.66 166.82 261.21 168.02 L 261.21 168.02 C 260.76 169.21 262.07 170.71 264.13 171.36 L 304.11 184 C 305.04 184.29 305.96 184.36 306.74 184.24 L 306.74 184.24 L 306.74 184.24 L 306.74 184.24 Z  M 143.9 160.99 C 142.39 158.59 139.55 156.97 136.3 156.97 C 131.46 156.97 127.53 160.56 127.53 164.98 C 127.53 169.4 131.46 172.99 136.3 172.99 C 141.14 172.99 145.07 169.4 145.07 164.98 L 145.07 164.98 L 145.07 164.98 L 145.07 164.98 L 145.07 164.98 L 145.07 164.98 L 145.07 164.98 L 145.07 164.98 L 145.07 164.98 L 145.07 164.98 L 145.07 164.98 L 145.07 164.98 L 145.07 164.98 C 145.07 164.35 144.99 163.73 144.83 163.14 L 165.05 158.78 C 166.11 158.55 166.84 157.87 166.68 157.26 L 166.68 157.26 C 166.52 156.64 165.53 156.33 164.48 156.55 L 143.9 160.99 L 143.9 160.99 L 143.9 160.99 L 143.9 160.99 L 143.9 160.99 L 143.9 160.99 L 143.9 160.99 L 143.9 160.99 L 143.9 160.99 L 143.9 160.99 L 143.9 160.99 L 143.9 160.99 L 143.9 160.99 L 143.9 160.99 L 143.9 160.99 L 143.9 160.99 L 143.9 160.99 L 143.9 160.99 L 143.9 160.99 L 143.9 160.99 L 143.9 160.99 L 143.9 160.99 L 143.9 160.99 L 143.9 160.99 L 143.9 160.99 L 143.9 160.99 L 143.9 160.99 L 143.9 160.99 L 143.9 160.99 L 143.9 160.99 Z  M 151.58 121.94 C 152.08 120.93 152.36 119.81 152.36 118.64 L 152.36 118.64 L 152.36 118.64 L 152.36 118.64 L 152.36 118.64 L 152.36 118.64 L 152.36 118.64 L 152.36 118.64 L 152.36 118.64 L 152.36 118.64 L 152.36 118.64 L 152.36 118.64 L 152.36 118.64 C 152.36 114.22 148.43 110.63 143.59 110.63 C 138.75 110.63 134.83 114.22 134.83 118.64 C 134.83 123.06 138.75 126.65 143.59 126.65 C 146.29 126.65 148.7 125.53 150.31 123.78 C 150.45 123.91 150.63 124.03 150.83 124.13 L 170.21 134.21 C 171.17 134.71 172.22 134.67 172.57 134.12 L 172.57 134.12 C 172.91 133.57 172.41 132.72 171.45 132.22 L 152.07 122.14 C 151.9 122.06 151.74 121.99 151.58 121.94 L 151.58 121.94 L 151.58 121.94 L 151.58 121.94 L 151.58 121.94 L 151.58 121.94 L 151.58 121.94 L 151.58 121.94 L 151.58 121.94 L 151.58 121.94 L 151.58 121.94 L 151.58 121.94 L 151.58 121.94 L 151.58 121.94 L 151.58 121.94 L 151.58 121.94 L 151.58 121.94 L 151.58 121.94 L 151.58 121.94 L 151.58 121.94 L 151.58 121.94 L 151.58 121.94 L 151.58 121.94 L 151.58 121.94 L 151.58 121.94 L 151.58 121.94 L 151.58 121.94 L 151.58 121.94 L 151.58 121.94 Z  M 116.51 148.04 L 116.51 148.04 C 115.56 142.58 110.38 138.41 104.14 138.41 C 97.23 138.41 91.62 143.53 91.62 149.85 C 91.62 156.16 97.23 161.29 104.14 161.29 C 110.8 161.29 116.26 156.53 116.65 150.53 C 117.18 150.85 117.93 151.03 118.75 151.03 L 148.81 150.85 C 150.5 150.84 151.86 150.03 151.85 149.05 L 151.85 149.05 C 151.85 148.06 150.47 147.27 148.79 147.28 L 118.72 147.46 C 117.85 147.47 117.06 147.69 116.51 148.04 L 116.51 148.04 L 116.51 148.04 L 116.51 148.04 L 116.51 148.04 L 116.51 148.04 L 116.51 148.04 L 116.51 148.04 L 116.51 148.04 L 116.51 148.04 L 116.51 148.04 L 116.51 148.04 L 116.51 148.04 L 116.51 148.04 L 116.51 148.04 L 116.51 148.04 Z  M 169.63 194.15 C 168.55 193.71 167.36 193.47 166.11 193.47 C 161.27 193.47 157.34 197.06 157.34 201.48 C 157.34 205.9 161.27 209.49 166.11 209.49 C 170.95 209.49 174.87 205.9 174.87 201.48 L 174.87 201.48 L 174.87 201.48 L 174.87 201.48 L 174.87 201.48 L 174.87 201.48 L 174.87 201.48 L 174.87 201.48 L 174.87 201.48 L 174.87 201.48 L 174.87 201.48 L 174.87 201.48 L 174.87 201.48 C 174.87 199.02 173.66 196.82 171.74 195.36 C 171.77 195.32 171.8 195.29 171.82 195.25 L 183.45 178.05 C 184.05 177.15 184.06 176.16 183.48 175.83 L 183.48 175.83 C 182.89 175.49 181.92 175.95 181.31 176.85 L 169.69 194.05 C 169.67 194.08 169.64 194.12 169.63 194.15 L 169.63 194.15 L 169.63 194.15 L 169.63 194.15 L 169.63 194.15 L 169.63 194.15 L 169.63 194.15 L 169.63 194.15 L 169.63 194.15 L 169.63 194.15 L 169.63 194.15 L 169.63 194.15 L 169.63 194.15 L 169.63 194.15 L 169.63 194.15 L 169.63 194.15 L 169.63 194.15 L 169.63 194.15 L 169.63 194.15 L 169.63 194.15 L 169.63 194.15 L 169.63 194.15 L 169.63 194.15 L 169.63 194.15 L 169.63 194.15 L 169.63 194.15 L 169.63 194.15 L 169.63 194.15 L 169.63 194.15 L 169.63 194.15 L 169.63 194.15 Z  M 183.64 123.84 C 184.33 123.05 184.74 122.06 184.74 120.98 L 184.74 120.98 L 184.74 120.98 L 184.74 120.98 L 184.74 120.98 L 184.74 120.98 L 184.74 120.98 L 184.74 120.98 L 184.74 120.98 L 184.74 120.98 L 184.74 120.98 L 184.74 120.98 L 184.74 120.98 L 184.74 120.98 L 184.74 120.98 C 184.74 118.45 182.5 116.4 179.73 116.4 C 176.97 116.4 174.72 118.45 174.72 120.98 C 174.72 123.5 176.97 125.55 179.73 125.55 C 180.49 125.55 181.21 125.4 181.86 125.11 C 181.91 125.31 182.02 125.52 182.15 125.72 L 187.1 133.23 C 187.69 134.14 188.65 134.6 189.25 134.28 L 189.25 134.28 C 189.84 133.95 189.84 132.96 189.24 132.05 L 184.3 124.54 C 184.11 124.25 183.88 124.01 183.64 123.84 L 183.64 123.84 L 183.64 123.84 L 183.64 123.84 L 183.64 123.84 L 183.64 123.84 L 183.64 123.84 L 183.64 123.84 L 183.64 123.84 L 183.64 123.84 L 183.64 123.84 L 183.64 123.84 L 183.64 123.84 L 183.64 123.84 L 183.64 123.84 L 183.64 123.84 L 183.64 123.84 L 183.64 123.84 L 183.64 123.84 L 183.64 123.84 L 183.64 123.84 Z  M 249.07 177.46 C 248.6 178.43 248.34 179.5 248.34 180.63 C 248.34 185.05 252.27 188.64 257.11 188.64 C 261.95 188.64 265.88 185.05 265.88 180.63 L 265.88 180.63 L 265.88 180.63 L 265.88 180.63 L 265.88 180.63 L 265.88 180.63 L 265.88 180.63 L 265.88 180.63 L 265.88 180.63 L 265.88 180.63 L 265.88 180.63 L 265.88 180.63 L 265.88 180.63 L 265.88 180.63 C 265.88 176.21 261.95 172.62 257.11 172.62 C 254.29 172.62 251.77 173.84 250.17 175.74 C 250.01 175.53 249.78 175.34 249.51 175.17 L 230.99 163.85 C 230.07 163.28 229.01 163.25 228.63 163.78 L 228.63 163.78 C 228.24 164.3 228.68 165.19 229.6 165.75 L 248.12 177.07 C 248.43 177.26 248.75 177.39 249.07 177.46 L 249.07 177.46 L 249.07 177.46 L 249.07 177.46 L 249.07 177.46 L 249.07 177.46 L 249.07 177.46 L 249.07 177.46 L 249.07 177.46 L 249.07 177.46 L 249.07 177.46 L 249.07 177.46 L 249.07 177.46 L 249.07 177.46 L 249.07 177.46 L 249.07 177.46 L 249.07 177.46 L 249.07 177.46 L 249.07 177.46 L 249.07 177.46 L 249.07 177.46 L 249.07 177.46 L 249.07 177.46 L 249.07 177.46 L 249.07 177.46 Z  M 188.45 98.55 C 191.31 97.23 193.27 94.53 193.27 91.41 L 193.27 91.41 L 193.27 91.41 L 193.27 91.41 L 193.27 91.41 L 193.27 91.41 L 193.27 91.41 L 193.27 91.41 L 193.27 91.41 L 193.27 91.41 L 193.27 91.41 L 193.27 91.41 L 193.27 91.41 C 193.27 86.99 189.34 83.4 184.5 83.4 C 179.66 83.4 175.73 86.99 175.73 91.41 C 175.73 95.83 179.66 99.42 184.5 99.42 C 185.03 99.42 185.56 99.37 186.07 99.29 L 190.78 118.85 C 191.03 119.9 191.79 120.64 192.46 120.51 L 192.46 120.51 C 193.14 120.37 193.48 119.41 193.23 118.36 L 188.49 98.7 C 188.48 98.65 188.47 98.6 188.45 98.55 L 188.45 98.55 L 188.45 98.55 L 188.45 98.55 L 188.45 98.55 L 188.45 98.55 L 188.45 98.55 L 188.45 98.55 L 188.45 98.55 L 188.45 98.55 L 188.45 98.55 L 188.45 98.55 L 188.45 98.55 L 188.45 98.55 L 188.45 98.55 L 188.45 98.55 L 188.45 98.55 L 188.45 98.55 L 188.45 98.55 L 188.45 98.55 L 188.45 98.55 L 188.45 98.55 L 188.45 98.55 L 188.45 98.55 L 188.45 98.55 L 188.45 98.55 L 188.45 98.55 L 188.45 98.55 Z  M 231.25 105.76 C 232.28 106.15 233.41 106.37 234.6 106.37 C 239.44 106.37 243.37 102.78 243.37 98.36 C 243.37 93.94 239.44 90.35 234.6 90.35 C 229.76 90.35 225.83 93.94 225.83 98.36 C 225.83 100.87 227.1 103.12 229.09 104.59 L 217.6 122.86 C 217.29 123.36 217.46 123.99 217.98 124.26 L 218.26 124.4 C 218.78 124.68 219.46 124.5 219.77 124 L 231.25 105.76 L 231.25 105.76 L 231.25 105.76 L 231.25 105.76 L 231.25 105.76 L 231.25 105.76 L 231.25 105.76 L 231.25 105.76 L 231.25 105.76 L 231.25 105.76 L 231.25 105.76 L 231.25 105.76 L 231.25 105.76 L 231.25 105.76 L 231.25 105.76 L 231.25 105.76 L 231.25 105.76 L 231.25 105.76 L 231.25 105.76 L 231.25 105.76 L 231.25 105.76 L 231.25 105.76 L 231.25 105.76 L 231.25 105.76 L 231.25 105.76 L 231.25 105.76 L 231.25 105.76 Z  M 208.56 120.92 C 208.57 120.92 208.58 120.92 208.59 120.92 C 211.35 120.92 213.6 118.87 213.6 116.34 C 213.6 113.81 211.35 111.76 208.59 111.76 C 205.82 111.76 203.58 113.81 203.58 116.34 C 203.58 118.07 204.63 119.58 206.18 120.36 C 206.13 120.46 206.09 120.57 206.07 120.69 L 204.36 130.62 C 204.24 131.31 204.7 131.95 205.38 132.05 L 205.38 132.05 C 206.07 132.15 206.72 131.66 206.84 130.97 L 208.55 121.05 C 208.56 121 208.56 120.96 208.56 120.92 L 208.56 120.92 L 208.56 120.92 L 208.56 120.92 L 208.56 120.92 L 208.56 120.92 L 208.56 120.92 L 208.56 120.92 L 208.56 120.92 L 208.56 120.92 L 208.56 120.92 L 208.56 120.92 L 208.56 120.92 L 208.56 120.92 L 208.56 120.92 L 208.56 120.92 L 208.56 120.92 L 208.56 120.92 L 208.56 120.92 L 208.56 120.92 Z  M 142.83 94.76 C 144.27 92.9 145.11 90.63 145.11 88.18 C 145.11 81.86 139.5 76.74 132.59 76.74 C 125.68 76.74 120.06 81.86 120.06 88.18 C 120.06 94.49 125.68 99.62 132.59 99.62 C 135.66 99.62 138.47 98.61 140.64 96.93 C 140.85 97.38 141.21 97.84 141.67 98.25 L 163.13 117.15 C 164.4 118.26 166.03 118.59 166.78 117.88 L 166.78 117.88 C 167.53 117.17 167.11 115.69 165.84 114.58 L 144.38 95.69 C 143.89 95.26 143.35 94.95 142.83 94.76 L 142.83 94.76 L 142.83 94.76 L 142.83 94.76 L 142.83 94.76 L 142.83 94.76 L 142.83 94.76 L 142.83 94.76 L 142.83 94.76 L 142.83 94.76 L 142.83 94.76 L 142.83 94.76 L 142.83 94.76 L 142.83 94.76 L 142.83 94.76 Z  M 202.88 73.22 C 207.98 71.77 211.68 67.42 211.68 62.29 C 211.68 55.98 206.06 50.85 199.15 50.85 C 192.24 50.85 186.63 55.98 186.63 62.29 C 186.63 68.56 192.14 73.65 198.98 73.74 L 199.05 103.74 C 199.05 104.69 199.82 105.46 200.77 105.46 L 201.24 105.45 C 202.19 105.45 202.96 104.68 202.95 103.73 L 202.88 73.22 L 202.88 73.22 L 202.88 73.22 L 202.88 73.22 L 202.88 73.22 L 202.88 73.22 L 202.88 73.22 L 202.88 73.22 L 202.88 73.22 L 202.88 73.22 L 202.88 73.22 L 202.88 73.22 L 202.88 73.22 L 202.88 73.22 Z  M 93.22 113.99 C 93.37 113.15 93.45 112.29 93.45 111.42 C 93.45 102.57 85.45 95.4 75.6 95.4 C 65.75 95.4 57.75 102.57 57.75 111.42 C 57.75 120.26 65.75 127.43 75.6 127.43 C 82.9 127.43 89.18 123.49 91.93 117.84 C 92.38 118.15 92.91 118.42 93.5 118.61 L 133.35 131.59 C 135.4 132.26 137.45 131.83 137.91 130.64 L 137.91 130.64 C 138.38 129.45 137.09 127.95 135.03 127.28 L 95.19 114.3 C 94.51 114.08 93.84 113.98 93.22 113.99 L 93.22 113.99 L 93.22 113.99 L 93.22 113.99 L 93.22 113.99 L 93.22 113.99 L 93.22 113.99 L 93.22 113.99 Z  M 151.73 55.25 C 156.29 52.36 159.26 47.58 159.26 42.2 C 159.26 33.35 151.26 26.18 141.41 26.18 C 131.56 26.18 123.57 33.35 123.57 42.2 C 123.57 51.04 131.56 58.21 141.41 58.21 C 143.68 58.21 145.84 57.83 147.84 57.14 C 147.94 57.69 148.15 58.28 148.47 58.86 L 167.51 92.86 C 168.56 94.75 170.42 95.82 171.65 95.24 L 171.65 95.24 C 172.88 94.67 173.02 92.67 171.97 90.78 L 152.93 56.78 C 152.6 56.18 152.18 55.66 151.73 55.25 L 151.73 55.25 L 151.73 55.25 L 151.73 55.25 L 151.73 55.25 L 151.73 55.25 L 151.73 55.25 Z  M 238.41 51.88 C 239.24 51.98 240.08 52.04 240.94 52.04 C 250.79 52.04 258.79 44.86 258.79 36.02 C 258.79 27.18 250.79 20 240.94 20 C 231.09 20 223.09 27.18 223.09 36.02 C 223.09 42.51 227.4 48.11 233.59 50.62 L 219.54 89.43 C 219.14 90.53 219.73 91.7 220.85 92.04 L 221.55 92.25 C 222.67 92.59 223.9 91.97 224.3 90.87 L 233.91 64.33 L 238.41 51.88 L 238.41 51.88 L 238.41 51.88 L 238.41 51.88 L 238.41 51.88 L 238.41 51.88 Z " fill-rule="evenodd" fill="rgb(56,29,132)"/></g></g></g></g></svg>