<?xml version="1.0" standalone="no"?><!-- Generator: Gravit.io --><svg xmlns="http://www.w3.org/2000/svg" xmlns:xlink="http://www.w3.org/1999/xlink" style="isolation:isolate" viewBox="0 0 400 391" width="400" height="391"><defs><clipPath id="_clipPath_qfPEUalJbmsqWVMBWFkjOIDvLTlOxNfJ"><rect width="400" height="391"/></clipPath></defs><g clip-path="url(#_clipPath_qfPEUalJbmsqWVMBWFkjOIDvLTlOxNfJ)"><g><g><path d=" M 14.92 383.5 L 11.34 383.5 L 11.34 314.27 L 14.92 314.27 L 53.83 376.93 L 53.83 314.27 L 57.41 314.27 L 57.41 383.5 L 53.83 383.5 L 14.92 320.72 L 14.92 383.5 L 14.92 383.5 Z  M 129.14 366.67 L 132.36 368.22 L 132.36 368.22 Q 129.14 376.1 123.29 380.39 L 123.29 380.39 L 123.29 380.39 Q 117.45 384.69 105.75 384.69 L 105.75 384.69 L 105.75 384.69 Q 91.07 384.69 84.5 375.68 L 84.5 375.68 L 84.5 375.68 Q 77.94 366.67 77.94 347.57 L 77.94 347.57 L 77.94 335.88 L 77.94 335.88 Q 77.94 316.78 84.5 307.77 L 84.5 307.77 L 84.5 307.77 Q 91.07 298.76 105.75 298.76 L 105.75 298.76 L 105.75 298.76 Q 117.45 298.76 123.29 303.05 L 123.29 303.05 L 123.29 303.05 Q 129.14 307.35 132.36 315.23 L 132.36 315.23 L 129.14 316.78 L 129.14 316.78 Q 126.4 309.86 121.38 306.1 L 121.38 306.1 L 121.38 306.1 Q 116.37 302.34 105.75 302.34 L 105.75 302.34 L 105.75 302.34 Q 99.9 302.34 95.72 303.83 L 95.72 303.83 L 95.72 303.83 Q 91.55 305.32 88.2 308.9 L 88.2 308.9 L 88.2 308.9 Q 84.86 312.48 83.19 319.22 L 83.19 319.22 L 83.19 319.22 Q 81.52 325.97 81.52 335.88 L 81.52 335.88 L 81.52 347.57 L 81.52 347.57 Q 81.52 357.48 83.19 364.22 L 83.19 364.22 L 83.19 364.22 Q 84.86 370.97 88.2 374.55 L 88.2 374.55 L 88.2 374.55 Q 91.55 378.13 95.72 379.62 L 95.72 379.62 L 95.72 379.62 Q 99.9 381.11 105.75 381.11 L 105.75 381.11 L 105.75 381.11 Q 116.37 381.11 121.38 377.35 L 121.38 377.35 L 121.38 377.35 Q 126.4 373.59 129.14 366.67 L 129.14 366.67 L 129.14 366.67 Z  M 193.12 314.27 L 193.12 383.5 L 189.54 383.5 L 189.54 348.88 L 153.73 348.88 L 153.73 383.5 L 150.15 383.5 L 150.15 314.27 L 153.73 314.27 L 153.73 345.3 L 189.54 345.3 L 189.54 314.27 L 193.12 314.27 L 193.12 314.27 Z  M 222.12 383.5 L 222.12 379.92 L 261.03 379.92 L 236.56 322.27 L 210.54 383.5 L 206.72 383.5 L 236.56 313.08 L 266.4 383.5 L 222.12 383.5 L 222.12 383.5 Z  M 309.13 348.77 L 309.13 348.77 L 325.36 383.5 L 321.42 383.5 L 304.71 347.69 L 304.71 347.69 Q 304.95 347.57 306.8 346.68 L 306.8 346.68 L 306.8 346.68 Q 308.65 345.78 309.37 345.36 L 309.37 345.36 L 309.37 345.36 Q 310.08 344.95 311.76 343.87 L 311.76 343.87 L 311.76 343.87 Q 313.43 342.8 314.26 341.78 L 314.26 341.78 L 314.26 341.78 Q 315.1 340.77 316.11 339.4 L 316.11 339.4 L 316.11 339.4 Q 317.13 338.02 317.6 336.29 L 317.6 336.29 L 317.6 336.29 Q 318.08 334.56 318.08 332.53 L 318.08 332.53 L 318.08 332.53 Q 318.08 325.01 310.92 321.43 L 310.92 321.43 L 310.92 321.43 Q 303.76 317.85 293.14 317.85 L 293.14 317.85 L 283.59 317.85 L 283.59 383.5 L 280.01 383.5 L 280.01 314.27 L 293.14 314.27 L 293.14 314.27 Q 307.22 314.27 314.44 319.17 L 314.44 319.17 L 314.44 319.17 Q 321.66 324.06 321.66 332.53 L 321.66 332.53 L 321.66 332.53 Q 321.66 338.02 317.96 342.26 L 317.96 342.26 L 317.96 342.26 Q 314.26 346.5 309.13 348.77 Z  M 332.64 314.27 L 386.35 314.27 L 386.35 317.85 L 361.29 317.85 L 361.29 383.5 L 357.71 383.5 L 357.71 317.85 L 332.64 317.85 L 332.64 314.27 L 332.64 314.27 Z " fill-rule="evenodd" fill="rgb(101,105,223)"/></g><g><path d=" M 165.74 247.15 L 165.74 247.15 L 178.44 211.45 C 179.16 209.41 178.68 207.44 177.37 207.05 L 177.37 207.05 C 176.05 206.66 174.4 208 173.67 210.03 L 160.94 245.84 C 160.05 245.72 159.14 245.66 158.22 245.66 C 148.37 245.66 140.37 252.84 140.37 261.68 C 140.37 270.52 148.37 277.7 158.22 277.7 C 168.07 277.7 176.07 270.52 176.07 261.68 C 176.07 255.25 171.84 249.7 165.74 247.15 Z  M 141.73 204.04 L 141.73 204.04 C 142.23 203.84 142.74 203.53 143.19 203.1 L 164.15 183.27 C 165.33 182.15 165.68 180.71 164.94 180.05 L 164.94 180.05 C 164.19 179.4 162.63 179.77 161.45 180.88 L 140.49 200.71 C 139.92 201.25 139.54 201.86 139.4 202.43 C 137.54 201.43 135.37 200.85 133.06 200.85 C 126.15 200.85 120.54 205.98 120.54 212.3 C 120.54 218.61 126.15 223.74 133.06 223.74 C 139.98 223.74 145.59 218.61 145.59 212.3 C 145.59 209.05 144.11 206.12 141.73 204.04 L 141.73 204.04 L 141.73 204.04 L 141.73 204.04 L 141.73 204.04 L 141.73 204.04 L 141.73 204.04 L 141.73 204.04 L 141.73 204.04 L 141.73 204.04 L 141.73 204.04 L 141.73 204.04 L 141.73 204.04 L 141.73 204.04 L 141.73 204.04 L 141.73 204.04 L 141.73 204.04 L 141.73 204.04 L 141.73 204.04 L 141.73 204.04 L 141.73 204.04 L 141.73 204.04 L 141.73 204.04 L 141.73 204.04 L 141.73 204.04 L 141.73 204.04 L 141.73 204.04 L 141.73 204.04 L 141.73 204.04 L 141.73 204.04 L 141.73 204.04 L 141.73 204.04 L 141.73 204.04 L 141.73 204.04 L 141.73 204.04 L 141.73 204.04 L 141.73 204.04 L 141.73 204.04 L 141.73 204.04 L 141.73 204.04 L 141.73 204.04 L 141.73 204.04 L 141.73 204.04 L 141.73 204.04 L 141.73 204.04 L 141.73 204.04 L 141.73 204.04 L 141.73 204.04 Z  M 194.32 178.26 L 194.32 178.26 C 194.41 178.08 194.47 177.87 194.51 177.65 L 196.16 169.1 C 196.37 168.04 195.98 167.09 195.3 166.98 L 195.3 166.98 C 194.62 166.87 193.9 167.64 193.7 168.7 L 192.05 177.25 C 192.02 177.41 192 177.57 191.99 177.72 C 191.98 177.72 191.96 177.72 191.95 177.72 C 189.18 177.72 186.94 179.77 186.94 182.3 C 186.94 184.82 189.18 186.87 191.95 186.87 C 194.71 186.87 196.96 184.82 196.96 182.3 C 196.96 180.55 195.89 179.03 194.32 178.26 L 194.32 178.26 Z  M 248.57 243.65 C 244.12 246.57 241.23 251.28 241.23 256.59 C 241.23 265.44 249.23 272.61 259.08 272.61 C 268.93 272.61 276.93 265.44 276.93 256.59 L 276.93 256.59 L 276.93 256.59 L 276.93 256.59 L 276.93 256.59 L 276.93 256.59 L 276.93 256.59 L 276.93 256.59 L 276.93 256.59 L 276.93 256.59 L 276.93 256.59 L 276.93 256.59 L 276.93 256.59 L 276.93 256.59 L 276.93 256.59 L 276.93 256.59 L 276.93 256.59 L 276.93 256.59 L 276.93 256.59 L 276.93 256.59 L 276.93 256.59 L 276.93 256.59 L 276.93 256.59 L 276.93 256.59 L 276.93 256.59 L 276.93 256.59 L 276.93 256.59 L 276.93 256.59 L 276.93 256.59 L 276.93 256.59 L 276.93 256.59 L 276.93 256.59 L 276.93 256.59 L 276.93 256.59 L 276.93 256.59 L 276.93 256.59 L 276.93 256.59 L 276.93 256.59 L 276.93 256.59 L 276.93 256.59 L 276.93 256.59 L 276.93 256.59 L 276.93 256.59 L 276.93 256.59 L 276.93 256.59 L 276.93 256.59 L 276.93 256.59 C 276.93 247.75 268.93 240.58 259.08 240.58 C 256.89 240.58 254.78 240.93 252.84 241.58 C 252.75 241.3 252.63 241.02 252.49 240.74 L 234.56 206.26 C 233.56 204.34 231.74 203.22 230.49 203.76 L 230.49 203.76 C 229.24 204.3 229.04 206.3 230.04 208.22 L 247.96 242.7 C 248.14 243.05 248.34 243.36 248.57 243.65 L 248.57 243.65 L 248.57 243.65 Z  M 302.32 103.67 C 305.27 108.86 311.29 112.43 318.23 112.43 C 328.08 112.43 336.07 105.25 336.07 96.41 L 336.07 96.41 L 336.07 96.41 L 336.07 96.41 L 336.07 96.41 L 336.07 96.41 L 336.07 96.41 L 336.07 96.41 L 336.07 96.41 L 336.07 96.41 L 336.07 96.41 L 336.07 96.41 L 336.07 96.41 L 336.07 96.41 L 336.07 96.41 L 336.07 96.41 L 336.07 96.41 L 336.07 96.41 L 336.07 96.41 L 336.07 96.41 L 336.07 96.41 L 336.07 96.41 L 336.07 96.41 L 336.07 96.41 L 336.07 96.41 L 336.07 96.41 L 336.07 96.41 L 336.07 96.41 L 336.07 96.41 L 336.07 96.41 L 336.07 96.41 L 336.07 96.41 L 336.07 96.41 L 336.07 96.41 L 336.07 96.41 L 336.07 96.41 L 336.07 96.41 L 336.07 96.41 L 336.07 96.41 L 336.07 96.41 L 336.07 96.41 L 336.07 96.41 L 336.07 96.41 L 336.07 96.41 L 336.07 96.41 L 336.07 96.41 L 336.07 96.41 C 336.07 87.57 328.08 80.39 318.23 80.39 C 308.37 80.39 300.38 87.57 300.38 96.41 C 300.38 97.61 300.52 98.78 300.82 99.9 C 300.14 99.95 299.39 100.14 298.66 100.48 L 261.12 118.15 C 259.16 119.07 258.09 120.73 258.72 121.85 L 258.72 121.85 C 259.35 122.97 261.45 123.14 263.41 122.22 L 300.96 104.55 C 301.48 104.3 301.95 104 302.32 103.67 L 302.32 103.67 L 302.32 103.67 L 302.32 103.67 L 302.32 103.67 Z  M 96.35 192.54 C 93.08 189.25 88.32 187.18 83.03 187.18 C 73.18 187.18 65.18 194.36 65.18 203.2 C 65.18 212.04 73.18 219.22 83.03 219.22 C 92.88 219.22 100.88 212.04 100.88 203.2 L 100.88 203.2 L 100.88 203.2 L 100.88 203.2 L 100.88 203.2 L 100.88 203.2 L 100.88 203.2 L 100.88 203.2 L 100.88 203.2 L 100.88 203.2 L 100.88 203.2 L 100.88 203.2 L 100.88 203.2 L 100.88 203.2 L 100.88 203.2 L 100.88 203.2 L 100.88 203.2 L 100.88 203.2 L 100.88 203.2 L 100.88 203.2 L 100.88 203.2 L 100.88 203.2 L 100.88 203.2 L 100.88 203.2 L 100.88 203.2 L 100.88 203.2 L 100.88 203.2 L 100.88 203.2 L 100.88 203.2 L 100.88 203.2 L 100.88 203.2 L 100.88 203.2 L 100.88 203.2 L 100.88 203.2 L 100.88 203.2 L 100.88 203.2 L 100.88 203.2 L 100.88 203.2 L 100.88 203.2 L 100.88 203.2 L 100.88 203.2 L 100.88 203.2 L 100.88 203.2 L 100.88 203.2 C 100.88 200.66 100.22 198.25 99.04 196.11 C 99.33 196.04 99.62 195.94 99.91 195.82 L 138.18 179.46 C 140.17 178.61 141.31 176.99 140.72 175.85 L 140.72 175.85 C 140.14 174.7 138.05 174.46 136.06 175.31 L 97.79 191.67 C 97.23 191.91 96.74 192.21 96.35 192.54 L 96.35 192.54 L 96.35 192.54 L 96.35 192.54 L 96.35 192.54 L 96.35 192.54 L 96.35 192.54 L 96.35 192.54 L 96.35 192.54 Z  M 199.17 225.33 C 192.71 225.78 187.62 230.72 187.62 236.73 C 187.62 243.05 193.23 248.17 200.15 248.17 C 207.06 248.17 212.67 243.05 212.67 236.73 L 212.67 236.73 L 212.67 236.73 L 212.67 236.73 L 212.67 236.73 L 212.67 236.73 L 212.67 236.73 L 212.67 236.73 L 212.67 236.73 L 212.67 236.73 L 212.67 236.73 L 212.67 236.73 L 212.67 236.73 L 212.67 236.73 L 212.67 236.73 L 212.67 236.73 L 212.67 236.73 L 212.67 236.73 L 212.67 236.73 L 212.67 236.73 L 212.67 236.73 L 212.67 236.73 L 212.67 236.73 L 212.67 236.73 L 212.67 236.73 L 212.67 236.73 L 212.67 236.73 L 212.67 236.73 L 212.67 236.73 L 212.67 236.73 L 212.67 236.73 L 212.67 236.73 L 212.67 236.73 L 212.67 236.73 L 212.67 236.73 L 212.67 236.73 L 212.67 236.73 L 212.67 236.73 L 212.67 236.73 L 212.67 236.73 L 212.67 236.73 L 212.67 236.73 L 212.67 236.73 L 212.67 236.73 L 212.67 236.73 C 212.67 230.97 208.01 226.2 201.94 225.41 C 202.31 224.86 202.53 224.09 202.53 223.23 L 202.55 196.3 C 202.55 194.61 201.68 193.24 200.6 193.24 L 200.6 193.24 C 199.52 193.24 198.65 194.61 198.65 196.29 L 198.63 223.23 C 198.63 224.05 198.83 224.79 199.17 225.33 L 199.17 225.33 L 199.17 225.33 L 199.17 225.33 L 199.17 225.33 L 199.17 225.33 L 199.17 225.33 L 199.17 225.33 L 199.17 225.33 L 199.17 225.33 Z  M 258.32 204.57 C 256.73 206.49 255.78 208.88 255.78 211.47 C 255.78 217.79 261.39 222.91 268.31 222.91 C 275.22 222.91 280.83 217.79 280.83 211.47 L 280.83 211.47 L 280.83 211.47 L 280.83 211.47 L 280.83 211.47 L 280.83 211.47 L 280.83 211.47 L 280.83 211.47 L 280.83 211.47 L 280.83 211.47 L 280.83 211.47 L 280.83 211.47 L 280.83 211.47 L 280.83 211.47 L 280.83 211.47 L 280.83 211.47 L 280.83 211.47 L 280.83 211.47 L 280.83 211.47 L 280.83 211.47 L 280.83 211.47 L 280.83 211.47 L 280.83 211.47 L 280.83 211.47 L 280.83 211.47 L 280.83 211.47 L 280.83 211.47 L 280.83 211.47 L 280.83 211.47 L 280.83 211.47 L 280.83 211.47 L 280.83 211.47 L 280.83 211.47 L 280.83 211.47 C 280.83 205.16 275.22 200.03 268.31 200.03 C 265.36 200.03 262.65 200.96 260.52 202.52 C 260.33 202.04 259.98 201.53 259.5 201.07 L 238.92 181.41 C 237.7 180.25 236.08 179.86 235.3 180.54 L 235.3 180.54 C 234.52 181.22 234.88 182.71 236.09 183.88 L 256.68 203.54 C 257.19 204.02 257.76 204.37 258.32 204.57 L 258.32 204.57 L 258.32 204.57 L 258.32 204.57 L 258.32 204.57 L 258.32 204.57 L 258.32 204.57 L 258.32 204.57 L 258.32 204.57 L 258.32 204.57 L 258.32 204.57 Z  M 283.74 150.16 C 284.27 156.02 289.66 160.63 296.21 160.63 C 303.12 160.63 308.74 155.51 308.74 149.19 L 308.74 149.19 L 308.74 149.19 L 308.74 149.19 L 308.74 149.19 L 308.74 149.19 L 308.74 149.19 L 308.74 149.19 L 308.74 149.19 L 308.74 149.19 L 308.74 149.19 L 308.74 149.19 L 308.74 149.19 L 308.74 149.19 L 308.74 149.19 L 308.74 149.19 L 308.74 149.19 L 308.74 149.19 L 308.74 149.19 L 308.74 149.19 L 308.74 149.19 L 308.74 149.19 L 308.74 149.19 L 308.74 149.19 L 308.74 149.19 L 308.74 149.19 L 308.74 149.19 L 308.74 149.19 L 308.74 149.19 L 308.74 149.19 L 308.74 149.19 L 308.74 149.19 L 308.74 149.19 L 308.74 149.19 C 308.74 142.88 303.12 137.75 296.21 137.75 C 289.92 137.75 284.71 142 283.82 147.52 C 283.28 147.21 282.53 147.04 281.71 147.06 L 249.95 147.72 C 248.26 147.76 246.91 148.59 246.94 149.57 L 246.94 149.57 C 246.96 150.55 248.35 151.32 250.04 151.29 L 281.8 150.62 C 282.54 150.61 283.23 150.44 283.74 150.16 L 283.74 150.16 L 283.74 150.16 L 283.74 150.16 L 283.74 150.16 L 283.74 150.16 L 283.74 150.16 L 283.74 150.16 L 283.74 150.16 L 283.74 150.16 L 283.74 150.16 L 283.74 150.16 Z  M 259.83 96.55 C 261.91 97.95 264.48 98.78 267.26 98.78 C 274.18 98.78 279.79 93.65 279.79 87.34 L 279.79 87.34 L 279.79 87.34 L 279.79 87.34 L 279.79 87.34 L 279.79 87.34 L 279.79 87.34 L 279.79 87.34 L 279.79 87.34 L 279.79 87.34 L 279.79 87.34 L 279.79 87.34 L 279.79 87.34 L 279.79 87.34 L 279.79 87.34 L 279.79 87.34 L 279.79 87.34 L 279.79 87.34 L 279.79 87.34 L 279.79 87.34 L 279.79 87.34 L 279.79 87.34 L 279.79 87.34 L 279.79 87.34 L 279.79 87.34 L 279.79 87.34 L 279.79 87.34 L 279.79 87.34 L 279.79 87.34 L 279.79 87.34 L 279.79 87.34 L 279.79 87.34 L 279.79 87.34 L 279.79 87.34 C 279.79 81.02 274.18 75.9 267.26 75.9 C 260.35 75.9 254.74 81.02 254.74 87.34 C 254.74 90.1 255.81 92.64 257.61 94.61 C 257.05 94.79 256.47 95.12 255.96 95.58 L 234.76 114.72 C 233.51 115.84 233.11 117.33 233.87 118.03 L 233.87 118.03 C 234.63 118.73 236.26 118.38 237.51 117.25 L 258.71 98.12 C 259.25 97.63 259.63 97.08 259.83 96.55 L 259.83 96.55 L 259.83 96.55 L 259.83 96.55 L 259.83 96.55 L 259.83 96.55 L 259.83 96.55 L 259.83 96.55 L 259.83 96.55 L 259.83 96.55 L 259.83 96.55 L 259.83 96.55 L 259.83 96.55 Z  M 216.38 175.49 C 215.52 176.3 215.01 177.41 215.01 178.62 C 215.01 181.15 217.25 183.2 220.02 183.2 C 222.78 183.2 225.03 181.15 225.03 178.62 L 225.03 178.62 L 225.03 178.62 L 225.03 178.62 L 225.03 178.62 L 225.03 178.62 L 225.03 178.62 L 225.03 178.62 L 225.03 178.62 L 225.03 178.62 L 225.03 178.62 L 225.03 178.62 L 225.03 178.62 L 225.03 178.62 L 225.03 178.62 L 225.03 178.62 C 225.03 176.09 222.78 174.04 220.02 174.04 C 219.36 174.04 218.72 174.16 218.15 174.39 C 218.1 174.11 217.99 173.82 217.81 173.53 L 212.42 164.73 C 211.86 163.81 210.91 163.31 210.31 163.62 L 210.31 163.62 C 209.7 163.93 209.67 164.92 210.24 165.85 L 215.63 174.65 C 215.84 174.99 216.1 175.28 216.38 175.49 L 216.38 175.49 L 216.38 175.49 L 216.38 175.49 L 216.38 175.49 L 216.38 175.49 L 216.38 175.49 L 216.38 175.49 L 216.38 175.49 L 216.38 175.49 L 216.38 175.49 L 216.38 175.49 L 216.38 175.49 L 216.38 175.49 L 216.38 175.49 L 216.38 175.49 L 216.38 175.49 Z  M 232.51 156.96 C 232.49 157.13 232.48 157.3 232.48 157.47 C 232.48 160 234.73 162.05 237.49 162.05 C 240.26 162.05 242.5 160 242.5 157.47 L 242.5 157.47 L 242.5 157.47 L 242.5 157.47 L 242.5 157.47 L 242.5 157.47 L 242.5 157.47 L 242.5 157.47 L 242.5 157.47 L 242.5 157.47 L 242.5 157.47 L 242.5 157.47 L 242.5 157.47 L 242.5 157.47 L 242.5 157.47 L 242.5 157.47 C 242.5 154.95 240.26 152.9 237.49 152.9 C 235.43 152.9 233.66 154.04 232.9 155.67 C 232.64 155.31 232.13 154.98 231.5 154.82 L 220.62 152.06 C 219.58 151.8 218.58 152.07 218.39 152.68 L 218.39 152.68 C 218.2 153.29 218.9 154 219.95 154.27 L 230.83 157.03 C 231.46 157.19 232.08 157.15 232.51 156.96 L 232.51 156.96 L 232.51 156.96 L 232.51 156.96 L 232.51 156.96 L 232.51 156.96 L 232.51 156.96 L 232.51 156.96 L 232.51 156.96 L 232.51 156.96 L 232.51 156.96 L 232.51 156.96 L 232.51 156.96 L 232.51 156.96 L 232.51 156.96 L 232.51 156.96 L 232.51 156.96 L 232.51 156.96 Z  M 229.19 134.91 C 230.06 135.58 231.19 135.98 232.42 135.98 C 235.18 135.98 237.43 133.93 237.43 131.4 L 237.43 131.4 L 237.43 131.4 L 237.43 131.4 L 237.43 131.4 L 237.43 131.4 L 237.43 131.4 L 237.43 131.4 L 237.43 131.4 L 237.43 131.4 L 237.43 131.4 L 237.43 131.4 L 237.43 131.4 L 237.43 131.4 L 237.43 131.4 L 237.43 131.4 C 237.43 128.88 235.18 126.83 232.42 126.83 C 229.65 126.83 227.41 128.88 227.41 131.4 C 227.41 132.03 227.54 132.62 227.81 133.16 C 227.65 133.21 227.49 133.28 227.33 133.37 L 217.96 138.5 C 217.02 139.02 216.54 139.89 216.89 140.43 L 216.89 140.43 C 217.25 140.97 218.3 140.99 219.25 140.47 L 228.62 135.33 C 228.84 135.21 229.04 135.07 229.19 134.91 L 229.19 134.91 L 229.19 134.91 L 229.19 134.91 L 229.19 134.91 L 229.19 134.91 L 229.19 134.91 L 229.19 134.91 L 229.19 134.91 L 229.19 134.91 L 229.19 134.91 L 229.19 134.91 L 229.19 134.91 L 229.19 134.91 L 229.19 134.91 L 229.19 134.91 L 229.19 134.91 L 229.19 134.91 L 229.19 134.91 Z  M 212.9 201.04 L 207.95 181.47 C 207.69 180.43 208.02 179.46 208.69 179.32 L 208.69 179.32 C 209.37 179.18 210.13 179.91 210.39 180.96 L 215.32 200.47 C 215.63 200.44 215.94 200.42 216.26 200.42 C 221.1 200.42 225.03 204.01 225.03 208.43 C 225.03 212.85 221.1 216.44 216.26 216.44 C 211.42 216.44 207.49 212.85 207.49 208.43 C 207.49 205.1 209.72 202.24 212.9 201.04 L 212.9 201.04 L 212.9 201.04 L 212.9 201.04 L 212.9 201.04 L 212.9 201.04 L 212.9 201.04 L 212.9 201.04 L 212.9 201.04 L 212.9 201.04 L 212.9 201.04 L 212.9 201.04 L 212.9 201.04 L 212.9 201.04 L 212.9 201.04 L 212.9 201.04 L 212.9 201.04 L 212.9 201.04 L 212.9 201.04 L 212.9 201.04 L 212.9 201.04 L 212.9 201.04 L 212.9 201.04 L 212.9 201.04 L 212.9 201.04 L 212.9 201.04 L 212.9 201.04 L 212.9 201.04 L 212.9 201.04 L 212.9 201.04 L 212.9 201.04 L 212.9 201.04 L 212.9 201.04 L 212.9 201.04 L 212.9 201.04 L 212.9 201.04 L 212.9 201.04 L 212.9 201.04 L 212.9 201.04 L 212.9 201.04 L 212.9 201.04 L 212.9 201.04 L 212.9 201.04 L 212.9 201.04 L 212.9 201.04 L 212.9 201.04 L 212.9 201.04 L 212.9 201.04 L 212.9 201.04 L 212.9 201.04 L 212.9 201.04 L 212.9 201.04 L 212.9 201.04 L 212.9 201.04 L 212.9 201.04 Z  M 167.98 142.5 C 167.98 142.47 167.98 142.44 167.98 142.41 L 167.98 142.41 L 167.98 142.41 L 167.98 142.41 L 167.98 142.41 L 167.98 142.41 L 167.98 142.41 L 167.98 142.41 L 167.98 142.41 L 167.98 142.41 L 167.98 142.41 L 167.98 142.41 L 167.98 142.41 L 167.98 142.41 L 167.98 142.41 C 167.98 139.88 165.74 137.83 162.97 137.83 C 160.21 137.83 157.96 139.88 157.96 142.41 C 157.96 144.94 160.21 146.99 162.97 146.99 C 165 146.99 166.74 145.89 167.52 144.31 C 167.83 144.52 168.25 144.66 168.73 144.71 L 178.54 145.63 C 179.61 145.74 180.54 145.31 180.62 144.68 L 180.62 144.68 C 180.69 144.05 179.87 143.46 178.8 143.36 L 168.99 142.43 C 168.63 142.39 168.28 142.42 167.98 142.5 L 167.98 142.5 L 167.98 142.5 L 167.98 142.5 L 167.98 142.5 L 167.98 142.5 L 167.98 142.5 L 167.98 142.5 L 167.98 142.5 L 167.98 142.5 L 167.98 142.5 L 167.98 142.5 L 167.98 142.5 L 167.98 142.5 L 167.98 142.5 L 167.98 142.5 L 167.98 142.5 L 167.98 142.5 L 167.98 142.5 L 167.98 142.5 L 167.98 142.5 L 167.98 142.5 Z  M 171.77 164.59 C 170.92 163.98 169.85 163.61 168.68 163.61 C 165.92 163.61 163.67 165.67 163.67 168.19 C 163.67 170.72 165.92 172.77 168.68 172.77 C 171.45 172.77 173.69 170.72 173.69 168.19 L 173.69 168.19 L 173.69 168.19 L 173.69 168.19 L 173.69 168.19 L 173.69 168.19 L 173.69 168.19 L 173.69 168.19 L 173.69 168.19 L 173.69 168.19 L 173.69 168.19 L 173.69 168.19 L 173.69 168.19 L 173.69 168.19 L 173.69 168.19 C 173.69 167.42 173.48 166.68 173.11 166.04 C 173.37 166.02 173.65 165.94 173.92 165.82 L 182.77 161.98 C 183.76 161.55 184.32 160.74 184.03 160.17 L 184.03 160.17 C 183.73 159.59 182.68 159.48 181.69 159.91 L 172.84 163.76 C 172.36 163.97 171.98 164.27 171.77 164.59 L 171.77 164.59 L 171.77 164.59 L 171.77 164.59 L 171.77 164.59 L 171.77 164.59 L 171.77 164.59 L 171.77 164.59 L 171.77 164.59 L 171.77 164.59 L 171.77 164.59 L 171.77 164.59 L 171.77 164.59 L 171.77 164.59 L 171.77 164.59 L 171.77 164.59 L 171.77 164.59 L 171.77 164.59 L 171.77 164.59 L 171.77 164.59 L 171.77 164.59 L 171.77 164.59 L 171.77 164.59 Z  M 256.05 137.93 C 257.36 140.83 260.49 142.87 264.14 142.87 C 268.98 142.87 272.91 139.28 272.91 134.86 L 272.91 134.86 L 272.91 134.86 L 272.91 134.86 L 272.91 134.86 L 272.91 134.86 L 272.91 134.86 L 272.91 134.86 L 272.91 134.86 L 272.91 134.86 L 272.91 134.86 L 272.91 134.86 L 272.91 134.86 L 272.91 134.86 C 272.91 130.44 268.98 126.85 264.14 126.85 C 259.3 126.85 255.37 130.44 255.37 134.86 C 255.37 135.15 255.39 135.44 255.43 135.73 C 255.37 135.73 255.32 135.74 255.26 135.76 L 233.52 140.59 C 232.47 140.83 231.75 141.52 231.91 142.13 L 231.91 142.13 C 232.07 142.74 233.06 143.05 234.12 142.82 L 255.85 137.98 C 255.92 137.97 255.98 137.95 256.05 137.93 L 256.05 137.93 L 256.05 137.93 L 256.05 137.93 L 256.05 137.93 L 256.05 137.93 L 256.05 137.93 L 256.05 137.93 L 256.05 137.93 L 256.05 137.93 L 256.05 137.93 L 256.05 137.93 L 256.05 137.93 L 256.05 137.93 L 256.05 137.93 L 256.05 137.93 L 256.05 137.93 L 256.05 137.93 L 256.05 137.93 L 256.05 137.93 L 256.05 137.93 L 256.05 137.93 L 256.05 137.93 L 256.05 137.93 L 256.05 137.93 L 256.05 137.93 Z  M 306.79 184.24 C 306.67 185 306.6 185.78 306.6 186.58 C 306.6 195.42 314.6 202.59 324.45 202.59 C 334.3 202.59 342.3 195.42 342.3 186.58 L 342.3 186.58 L 342.3 186.58 L 342.3 186.58 L 342.3 186.58 L 342.3 186.58 L 342.3 186.58 L 342.3 186.58 L 342.3 186.58 L 342.3 186.58 L 342.3 186.58 L 342.3 186.58 L 342.3 186.58 L 342.3 186.58 L 342.3 186.58 L 342.3 186.58 L 342.3 186.58 L 342.3 186.58 L 342.3 186.58 L 342.3 186.58 L 342.3 186.58 L 342.3 186.58 L 342.3 186.58 L 342.3 186.58 L 342.3 186.58 L 342.3 186.58 L 342.3 186.58 L 342.3 186.58 L 342.3 186.58 L 342.3 186.58 L 342.3 186.58 L 342.3 186.58 L 342.3 186.58 L 342.3 186.58 L 342.3 186.58 L 342.3 186.58 L 342.3 186.58 L 342.3 186.58 L 342.3 186.58 L 342.3 186.58 L 342.3 186.58 L 342.3 186.58 L 342.3 186.58 L 342.3 186.58 L 342.3 186.58 L 342.3 186.58 L 342.3 186.58 C 342.3 177.73 334.3 170.56 324.45 170.56 C 316.88 170.56 310.4 174.8 307.82 180.78 C 307.31 180.32 306.61 179.93 305.8 179.67 L 265.82 167.03 C 263.75 166.38 261.71 166.82 261.26 168.02 L 261.26 168.02 C 260.81 169.21 262.12 170.71 264.18 171.36 L 304.16 184 C 305.09 184.29 306.01 184.36 306.79 184.24 L 306.79 184.24 L 306.79 184.24 L 306.79 184.24 Z  M 143.95 160.99 C 142.44 158.59 139.6 156.97 136.35 156.97 C 131.51 156.97 127.58 160.56 127.58 164.98 C 127.58 169.4 131.51 172.99 136.35 172.99 C 141.19 172.99 145.12 169.4 145.12 164.98 L 145.12 164.98 L 145.12 164.98 L 145.12 164.98 L 145.12 164.98 L 145.12 164.98 L 145.12 164.98 L 145.12 164.98 L 145.12 164.98 L 145.12 164.98 L 145.12 164.98 L 145.12 164.98 L 145.12 164.98 C 145.12 164.35 145.04 163.73 144.88 163.14 L 165.1 158.78 C 166.16 158.55 166.89 157.87 166.73 157.26 L 166.73 157.26 C 166.57 156.64 165.58 156.33 164.53 156.55 L 143.95 160.99 L 143.95 160.99 L 143.95 160.99 L 143.95 160.99 L 143.95 160.99 L 143.95 160.99 L 143.95 160.99 L 143.95 160.99 L 143.95 160.99 L 143.95 160.99 L 143.95 160.99 L 143.95 160.99 L 143.95 160.99 L 143.95 160.99 L 143.95 160.99 L 143.95 160.99 L 143.95 160.99 L 143.95 160.99 L 143.95 160.99 L 143.95 160.99 L 143.95 160.99 L 143.95 160.99 L 143.95 160.99 L 143.95 160.99 L 143.95 160.99 L 143.95 160.99 L 143.95 160.99 L 143.95 160.99 L 143.95 160.99 L 143.95 160.99 Z  M 151.63 121.94 C 152.13 120.93 152.41 119.81 152.41 118.64 L 152.41 118.64 L 152.41 118.64 L 152.41 118.64 L 152.41 118.64 L 152.41 118.64 L 152.41 118.64 L 152.41 118.64 L 152.41 118.64 L 152.41 118.64 L 152.41 118.64 L 152.41 118.64 L 152.41 118.64 C 152.41 114.22 148.48 110.63 143.64 110.63 C 138.8 110.63 134.88 114.22 134.88 118.64 C 134.88 123.06 138.8 126.65 143.64 126.65 C 146.34 126.65 148.75 125.53 150.36 123.78 C 150.5 123.91 150.68 124.03 150.88 124.13 L 170.26 134.21 C 171.22 134.71 172.27 134.67 172.62 134.12 L 172.62 134.12 C 172.96 133.57 172.46 132.72 171.5 132.22 L 152.12 122.14 C 151.95 122.06 151.79 121.99 151.63 121.94 L 151.63 121.94 L 151.63 121.94 L 151.63 121.94 L 151.63 121.94 L 151.63 121.94 L 151.63 121.94 L 151.63 121.94 L 151.63 121.94 L 151.63 121.94 L 151.63 121.94 L 151.63 121.94 L 151.63 121.94 L 151.63 121.94 L 151.63 121.94 L 151.63 121.94 L 151.63 121.94 L 151.63 121.94 L 151.63 121.94 L 151.63 121.94 L 151.63 121.94 L 151.63 121.94 L 151.63 121.94 L 151.63 121.94 L 151.63 121.94 L 151.63 121.94 L 151.63 121.94 L 151.63 121.94 L 151.63 121.94 Z  M 116.56 148.04 L 116.56 148.04 C 115.61 142.58 110.43 138.41 104.19 138.41 C 97.28 138.41 91.67 143.53 91.67 149.85 C 91.67 156.16 97.28 161.29 104.19 161.29 C 110.85 161.29 116.31 156.53 116.7 150.53 C 117.23 150.85 117.98 151.03 118.8 151.03 L 148.86 150.85 C 150.55 150.84 151.91 150.03 151.9 149.05 L 151.9 149.05 C 151.9 148.06 150.52 147.27 148.84 147.28 L 118.77 147.46 C 117.9 147.47 117.11 147.69 116.56 148.04 L 116.56 148.04 L 116.56 148.04 L 116.56 148.04 L 116.56 148.04 L 116.56 148.04 L 116.56 148.04 L 116.56 148.04 L 116.56 148.04 L 116.56 148.04 L 116.56 148.04 L 116.56 148.04 L 116.56 148.04 L 116.56 148.04 L 116.56 148.04 L 116.56 148.04 Z  M 169.68 194.15 C 168.6 193.71 167.41 193.47 166.16 193.47 C 161.32 193.47 157.39 197.06 157.39 201.48 C 157.39 205.9 161.32 209.49 166.16 209.49 C 171 209.49 174.92 205.9 174.92 201.48 L 174.92 201.48 L 174.92 201.48 L 174.92 201.48 L 174.92 201.48 L 174.92 201.48 L 174.92 201.48 L 174.92 201.48 L 174.92 201.48 L 174.92 201.48 L 174.92 201.48 L 174.92 201.48 L 174.92 201.48 C 174.92 199.02 173.71 196.82 171.79 195.36 C 171.82 195.32 171.85 195.29 171.87 195.25 L 183.5 178.05 C 184.1 177.15 184.11 176.16 183.53 175.83 L 183.53 175.83 C 182.94 175.49 181.97 175.95 181.36 176.85 L 169.74 194.05 C 169.72 194.08 169.69 194.12 169.68 194.15 L 169.68 194.15 L 169.68 194.15 L 169.68 194.15 L 169.68 194.15 L 169.68 194.15 L 169.68 194.15 L 169.68 194.15 L 169.68 194.15 L 169.68 194.15 L 169.68 194.15 L 169.68 194.15 L 169.68 194.15 L 169.68 194.15 L 169.68 194.15 L 169.68 194.15 L 169.68 194.15 L 169.68 194.15 L 169.68 194.15 L 169.68 194.15 L 169.68 194.15 L 169.68 194.15 L 169.68 194.15 L 169.68 194.15 L 169.68 194.15 L 169.68 194.15 L 169.68 194.15 L 169.68 194.15 L 169.68 194.15 L 169.68 194.15 L 169.68 194.15 Z  M 183.69 123.84 C 184.38 123.05 184.79 122.06 184.79 120.98 L 184.79 120.98 L 184.79 120.98 L 184.79 120.98 L 184.79 120.98 L 184.79 120.98 L 184.79 120.98 L 184.79 120.98 L 184.79 120.98 L 184.79 120.98 L 184.79 120.98 L 184.79 120.98 L 184.79 120.98 L 184.79 120.98 L 184.79 120.98 C 184.79 118.45 182.55 116.4 179.78 116.4 C 177.02 116.4 174.77 118.45 174.77 120.98 C 174.77 123.5 177.02 125.55 179.78 125.55 C 180.54 125.55 181.26 125.4 181.91 125.11 C 181.96 125.31 182.07 125.52 182.2 125.72 L 187.15 133.23 C 187.74 134.14 188.7 134.6 189.3 134.28 L 189.3 134.28 C 189.89 133.95 189.89 132.96 189.29 132.05 L 184.35 124.54 C 184.16 124.25 183.93 124.01 183.69 123.84 L 183.69 123.84 L 183.69 123.84 L 183.69 123.84 L 183.69 123.84 L 183.69 123.84 L 183.69 123.84 L 183.69 123.84 L 183.69 123.84 L 183.69 123.84 L 183.69 123.84 L 183.69 123.84 L 183.69 123.84 L 183.69 123.84 L 183.69 123.84 L 183.69 123.84 L 183.69 123.84 L 183.69 123.84 L 183.69 123.84 L 183.69 123.84 L 183.69 123.84 Z  M 249.12 177.46 C 248.65 178.43 248.39 179.5 248.39 180.63 C 248.39 185.05 252.32 188.64 257.16 188.64 C 262 188.64 265.93 185.05 265.93 180.63 L 265.93 180.63 L 265.93 180.63 L 265.93 180.63 L 265.93 180.63 L 265.93 180.63 L 265.93 180.63 L 265.93 180.63 L 265.93 180.63 L 265.93 180.63 L 265.93 180.63 L 265.93 180.63 L 265.93 180.63 L 265.93 180.63 C 265.93 176.21 262 172.62 257.16 172.62 C 254.34 172.62 251.82 173.84 250.22 175.74 C 250.06 175.53 249.83 175.34 249.56 175.17 L 231.04 163.85 C 230.12 163.28 229.06 163.25 228.68 163.78 L 228.68 163.78 C 228.29 164.3 228.73 165.19 229.65 165.75 L 248.17 177.07 C 248.48 177.26 248.8 177.39 249.12 177.46 L 249.12 177.46 L 249.12 177.46 L 249.12 177.46 L 249.12 177.46 L 249.12 177.46 L 249.12 177.46 L 249.12 177.46 L 249.12 177.46 L 249.12 177.46 L 249.12 177.46 L 249.12 177.46 L 249.12 177.46 L 249.12 177.46 L 249.12 177.46 L 249.12 177.46 L 249.12 177.46 L 249.12 177.46 L 249.12 177.46 L 249.12 177.46 L 249.12 177.46 L 249.12 177.46 L 249.12 177.46 L 249.12 177.46 L 249.12 177.46 Z  M 188.5 98.55 C 191.36 97.23 193.32 94.53 193.32 91.41 L 193.32 91.41 L 193.32 91.41 L 193.32 91.41 L 193.32 91.41 L 193.32 91.41 L 193.32 91.41 L 193.32 91.41 L 193.32 91.41 L 193.32 91.41 L 193.32 91.41 L 193.32 91.41 L 193.32 91.41 C 193.32 86.99 189.39 83.4 184.55 83.4 C 179.71 83.4 175.78 86.99 175.78 91.41 C 175.78 95.83 179.71 99.42 184.55 99.42 C 185.08 99.42 185.61 99.37 186.12 99.29 L 190.83 118.85 C 191.08 119.9 191.84 120.64 192.51 120.51 L 192.51 120.51 C 193.19 120.37 193.53 119.41 193.28 118.36 L 188.54 98.7 C 188.53 98.65 188.52 98.6 188.5 98.55 L 188.5 98.55 L 188.5 98.55 L 188.5 98.55 L 188.5 98.55 L 188.5 98.55 L 188.5 98.55 L 188.5 98.55 L 188.5 98.55 L 188.5 98.55 L 188.5 98.55 L 188.5 98.55 L 188.5 98.55 L 188.5 98.55 L 188.5 98.55 L 188.5 98.55 L 188.5 98.55 L 188.5 98.55 L 188.5 98.55 L 188.5 98.55 L 188.5 98.55 L 188.5 98.55 L 188.5 98.55 L 188.5 98.55 L 188.5 98.55 L 188.5 98.55 L 188.5 98.55 L 188.5 98.55 Z  M 231.3 105.76 C 232.33 106.15 233.46 106.37 234.65 106.37 C 239.49 106.37 243.42 102.78 243.42 98.36 C 243.42 93.94 239.49 90.35 234.65 90.35 C 229.81 90.35 225.88 93.94 225.88 98.36 C 225.88 100.87 227.15 103.12 229.14 104.59 L 217.65 122.86 C 217.34 123.36 217.51 123.99 218.03 124.26 L 218.31 124.4 C 218.83 124.68 219.51 124.5 219.82 124 L 231.3 105.76 L 231.3 105.76 L 231.3 105.76 L 231.3 105.76 L 231.3 105.76 L 231.3 105.76 L 231.3 105.76 L 231.3 105.76 L 231.3 105.76 L 231.3 105.76 L 231.3 105.76 L 231.3 105.76 L 231.3 105.76 L 231.3 105.76 L 231.3 105.76 L 231.3 105.76 L 231.3 105.76 L 231.3 105.76 L 231.3 105.76 L 231.3 105.76 L 231.3 105.76 L 231.3 105.76 L 231.3 105.76 L 231.3 105.76 L 231.3 105.76 L 231.3 105.76 L 231.3 105.76 Z  M 208.61 120.92 C 208.62 120.92 208.63 120.92 208.64 120.92 C 211.4 120.92 213.65 118.87 213.65 116.34 C 213.65 113.81 211.4 111.76 208.64 111.76 C 205.87 111.76 203.63 113.81 203.63 116.34 C 203.63 118.07 204.68 119.58 206.23 120.36 C 206.18 120.46 206.14 120.57 206.12 120.69 L 204.41 130.62 C 204.29 131.31 204.75 131.95 205.43 132.05 L 205.43 132.05 C 206.12 132.15 206.77 131.66 206.89 130.97 L 208.6 121.05 C 208.61 121 208.61 120.96 208.61 120.92 L 208.61 120.92 L 208.61 120.92 L 208.61 120.92 L 208.61 120.92 L 208.61 120.92 L 208.61 120.92 L 208.61 120.92 L 208.61 120.92 L 208.61 120.92 L 208.61 120.92 L 208.61 120.92 L 208.61 120.92 L 208.61 120.92 L 208.61 120.92 L 208.61 120.92 L 208.61 120.92 L 208.61 120.92 L 208.61 120.92 L 208.61 120.92 Z  M 142.88 94.76 C 144.32 92.9 145.16 90.63 145.16 88.18 C 145.16 81.86 139.55 76.74 132.64 76.74 C 125.73 76.74 120.11 81.86 120.11 88.18 C 120.11 94.49 125.73 99.62 132.64 99.62 C 135.71 99.62 138.52 98.61 140.69 96.93 C 140.9 97.38 141.26 97.84 141.72 98.25 L 163.18 117.15 C 164.45 118.26 166.08 118.59 166.83 117.88 L 166.83 117.88 C 167.58 117.17 167.16 115.69 165.89 114.58 L 144.43 95.69 C 143.94 95.26 143.4 94.95 142.88 94.76 L 142.88 94.76 L 142.88 94.76 L 142.88 94.76 L 142.88 94.76 L 142.88 94.76 L 142.88 94.76 L 142.88 94.76 L 142.88 94.76 L 142.88 94.76 L 142.88 94.76 L 142.88 94.76 L 142.88 94.76 L 142.88 94.76 L 142.88 94.76 Z  M 202.93 73.22 C 208.03 71.77 211.73 67.42 211.73 62.29 C 211.73 55.98 206.11 50.85 199.2 50.85 C 192.29 50.85 186.68 55.98 186.68 62.29 C 186.68 68.56 192.19 73.65 199.03 73.74 L 199.1 103.74 C 199.1 104.69 199.87 105.46 200.82 105.46 L 201.29 105.45 C 202.24 105.45 203.01 104.68 203 103.73 L 202.93 73.22 L 202.93 73.22 L 202.93 73.22 L 202.93 73.22 L 202.93 73.22 L 202.93 73.22 L 202.93 73.22 L 202.93 73.22 L 202.93 73.22 L 202.93 73.22 L 202.93 73.22 L 202.93 73.22 L 202.93 73.22 L 202.93 73.22 Z  M 93.27 113.99 C 93.42 113.15 93.5 112.29 93.5 111.42 C 93.5 102.57 85.5 95.4 75.65 95.4 C 65.8 95.4 57.8 102.57 57.8 111.42 C 57.8 120.26 65.8 127.43 75.65 127.43 C 82.95 127.43 89.23 123.49 91.98 117.84 C 92.43 118.15 92.96 118.42 93.55 118.61 L 133.4 131.59 C 135.45 132.26 137.5 131.83 137.96 130.64 L 137.96 130.64 C 138.43 129.45 137.14 127.95 135.08 127.28 L 95.24 114.3 C 94.56 114.08 93.89 113.98 93.27 113.99 L 93.27 113.99 L 93.27 113.99 L 93.27 113.99 L 93.27 113.99 L 93.27 113.99 L 93.27 113.99 L 93.27 113.99 Z  M 151.78 55.25 C 156.34 52.36 159.31 47.58 159.31 42.2 C 159.31 33.35 151.31 26.18 141.46 26.18 C 131.61 26.18 123.62 33.35 123.62 42.2 C 123.62 51.04 131.61 58.21 141.46 58.21 C 143.73 58.21 145.89 57.83 147.89 57.14 C 147.99 57.69 148.2 58.28 148.52 58.86 L 167.56 92.86 C 168.61 94.75 170.47 95.82 171.7 95.24 L 171.7 95.24 C 172.93 94.67 173.07 92.67 172.02 90.78 L 152.98 56.78 C 152.65 56.18 152.23 55.66 151.78 55.25 L 151.78 55.25 L 151.78 55.25 L 151.78 55.25 L 151.78 55.25 L 151.78 55.25 L 151.78 55.25 Z  M 238.46 51.88 C 239.29 51.98 240.13 52.04 240.99 52.04 C 250.84 52.04 258.84 44.86 258.84 36.02 C 258.84 27.18 250.84 20 240.99 20 C 231.14 20 223.14 27.18 223.14 36.02 C 223.14 42.51 227.45 48.11 233.64 50.62 L 219.59 89.43 C 219.19 90.53 219.78 91.7 220.9 92.04 L 221.6 92.25 C 222.72 92.59 223.95 91.97 224.35 90.87 L 233.96 64.33 L 238.46 51.88 L 238.46 51.88 L 238.46 51.88 L 238.46 51.88 L 238.46 51.88 L 238.46 51.88 Z " fill-rule="evenodd" fill="rgb(56,29,132)"/></g></g></g></svg>