<?xml version="1.0" standalone="no"?><!-- Generator: Gravit.io --><svg xmlns="http://www.w3.org/2000/svg" xmlns:xlink="http://www.w3.org/1999/xlink" style="isolation:isolate" viewBox="0 0 400 364" width="400" height="364"><defs><clipPath id="_clipPath_CsvzjE9ETIzqWZvBtIFPlZlRawjuHVU3"><rect width="400" height="364"/></clipPath></defs><g clip-path="url(#_clipPath_CsvzjE9ETIzqWZvBtIFPlZlRawjuHVU3)"><g><defs><filter id="tbVzWKFzXbcXai69GEU3eqaS9egSriSy" x="10.2" y="17" width="379.6" height="345.91" filterUnits="userSpaceOnUse"><feGaussianBlur xmlns="http://www.w3.org/2000/svg" in="SourceGraphic" stdDeviation="3.4348872502712227"/><feOffset xmlns="http://www.w3.org/2000/svg" dx="0" dy="8" result="pf_100_offsetBlur"/><feFlood xmlns="http://www.w3.org/2000/svg" flood-color="#000000" flood-opacity="0.55"/><feComposite xmlns="http://www.w3.org/2000/svg" in2="pf_100_offsetBlur" operator="in" result="pf_100_dropShadow"/><feBlend xmlns="http://www.w3.org/2000/svg" in="SourceGraphic" in2="pf_100_dropShadow" mode="normal"/></filter></defs><g filter="url(#tbVzWKFzXbcXai69GEU3eqaS9egSriSy)"><path d=" M 156.87 305.52 L 156.87 305.52 L 172.83 260.64 C 173.74 258.08 173.14 255.6 171.49 255.11 L 171.49 255.11 C 169.83 254.62 167.75 256.3 166.84 258.86 L 150.84 303.86 C 149.72 303.72 148.58 303.64 147.42 303.64 C 135.04 303.64 124.99 312.66 124.99 323.78 C 124.99 334.89 135.04 343.91 147.42 343.91 C 159.8 343.91 169.86 334.89 169.86 323.78 C 169.86 315.69 164.54 308.72 156.87 305.52 Z  M 126.69 251.33 L 126.69 251.33 C 127.32 251.08 127.96 250.68 128.53 250.14 L 154.88 225.22 C 156.36 223.81 156.8 222.01 155.86 221.18 L 155.86 221.18 C 154.92 220.35 152.96 220.82 151.48 222.22 L 125.13 247.15 C 124.42 247.82 123.94 248.59 123.76 249.3 C 121.43 248.04 118.71 247.32 115.8 247.32 C 107.11 247.32 100.06 253.77 100.06 261.7 C 100.06 269.64 107.11 276.09 115.8 276.09 C 124.49 276.09 131.54 269.64 131.54 261.7 C 131.54 257.63 129.68 253.95 126.69 251.33 L 126.69 251.33 L 126.69 251.33 L 126.69 251.33 L 126.69 251.33 L 126.69 251.33 L 126.69 251.33 L 126.69 251.33 L 126.69 251.33 L 126.69 251.33 L 126.69 251.33 L 126.69 251.33 L 126.69 251.33 L 126.69 251.33 L 126.69 251.33 L 126.69 251.33 L 126.69 251.33 L 126.69 251.33 L 126.69 251.33 L 126.69 251.33 L 126.69 251.33 L 126.69 251.33 L 126.69 251.33 L 126.69 251.33 L 126.69 251.33 L 126.69 251.33 L 126.69 251.33 L 126.69 251.33 L 126.69 251.33 L 126.69 251.33 L 126.69 251.33 L 126.69 251.33 L 126.69 251.33 L 126.69 251.33 L 126.69 251.33 L 126.69 251.33 L 126.69 251.33 L 126.69 251.33 L 126.69 251.33 L 126.69 251.33 L 126.69 251.33 L 126.69 251.33 L 126.69 251.33 L 126.69 251.33 L 126.69 251.33 L 126.69 251.33 L 126.69 251.33 L 126.69 251.33 Z  M 192.79 218.92 L 192.79 218.92 C 192.91 218.7 192.99 218.43 193.04 218.16 L 195.12 207.41 C 195.37 206.08 194.89 204.88 194.03 204.75 L 194.03 204.75 C 193.18 204.61 192.27 205.58 192.01 206.91 L 189.94 217.66 C 189.9 217.86 189.88 218.06 189.87 218.25 C 189.85 218.24 189.83 218.24 189.81 218.24 C 186.34 218.24 183.52 220.82 183.52 224 C 183.52 227.17 186.34 229.75 189.81 229.75 C 193.29 229.75 196.11 227.17 196.11 224 C 196.11 221.8 194.77 219.9 192.79 218.92 L 192.79 218.92 Z  M 260.98 301.12 C 255.39 304.78 251.76 310.71 251.76 317.39 C 251.76 328.5 261.81 337.52 274.2 337.52 C 286.58 337.52 296.63 328.5 296.63 317.39 L 296.63 317.39 L 296.63 317.39 L 296.63 317.39 L 296.63 317.39 L 296.63 317.39 L 296.63 317.39 L 296.63 317.39 L 296.63 317.39 L 296.63 317.39 L 296.63 317.39 L 296.63 317.39 L 296.63 317.39 L 296.63 317.39 L 296.63 317.39 L 296.63 317.39 L 296.63 317.39 L 296.63 317.39 L 296.63 317.39 L 296.63 317.39 L 296.63 317.39 L 296.63 317.39 L 296.63 317.39 L 296.63 317.39 L 296.63 317.39 L 296.63 317.39 L 296.63 317.39 L 296.63 317.39 L 296.63 317.39 L 296.63 317.39 L 296.63 317.39 L 296.63 317.39 L 296.63 317.39 L 296.63 317.39 L 296.63 317.39 L 296.63 317.39 L 296.63 317.39 L 296.63 317.39 L 296.63 317.39 L 296.63 317.39 L 296.63 317.39 L 296.63 317.39 L 296.63 317.39 L 296.63 317.39 L 296.63 317.39 L 296.63 317.39 L 296.63 317.39 C 296.63 306.27 286.58 297.25 274.2 297.25 C 271.44 297.25 268.8 297.7 266.35 298.51 C 266.24 298.16 266.09 297.81 265.91 297.46 L 243.38 254.11 C 242.13 251.7 239.83 250.3 238.26 250.98 L 238.26 250.98 C 236.69 251.66 236.44 254.17 237.69 256.58 L 260.22 299.92 C 260.45 300.36 260.7 300.76 260.98 301.12 L 260.98 301.12 L 260.98 301.12 Z  M 328.55 125.16 C 332.25 131.7 339.82 136.17 348.54 136.17 C 360.92 136.17 370.97 127.15 370.97 116.04 L 370.97 116.04 L 370.97 116.04 L 370.97 116.04 L 370.97 116.04 L 370.97 116.04 L 370.97 116.04 L 370.97 116.04 L 370.97 116.04 L 370.97 116.04 L 370.97 116.04 L 370.97 116.04 L 370.97 116.04 L 370.97 116.04 L 370.97 116.04 L 370.97 116.04 L 370.97 116.04 L 370.97 116.04 L 370.97 116.04 L 370.97 116.04 L 370.97 116.04 L 370.97 116.04 L 370.97 116.04 L 370.97 116.04 L 370.97 116.04 L 370.97 116.04 L 370.97 116.04 L 370.97 116.04 L 370.97 116.04 L 370.97 116.04 L 370.97 116.04 L 370.97 116.04 L 370.97 116.04 L 370.97 116.04 L 370.97 116.04 L 370.97 116.04 L 370.97 116.04 L 370.97 116.04 L 370.97 116.04 L 370.97 116.04 L 370.97 116.04 L 370.97 116.04 L 370.97 116.04 L 370.97 116.04 L 370.97 116.04 L 370.97 116.04 L 370.97 116.04 C 370.97 104.93 360.92 95.9 348.54 95.9 C 336.16 95.9 326.1 104.93 326.1 116.04 C 326.1 117.55 326.29 119.02 326.66 120.43 C 325.8 120.49 324.86 120.73 323.95 121.16 L 276.76 143.37 C 274.3 144.52 272.95 146.61 273.74 148.02 L 273.74 148.02 C 274.54 149.43 277.18 149.64 279.64 148.48 L 326.84 126.27 C 327.5 125.96 328.08 125.58 328.55 125.16 L 328.55 125.16 L 328.55 125.16 L 328.55 125.16 L 328.55 125.16 Z  M 69.65 236.87 C 65.54 232.74 59.56 230.14 52.91 230.14 C 40.53 230.14 30.48 239.16 30.48 250.27 C 30.48 261.38 40.53 270.41 52.91 270.41 C 65.3 270.41 75.35 261.38 75.35 250.27 L 75.35 250.27 L 75.35 250.27 L 75.35 250.27 L 75.35 250.27 L 75.35 250.27 L 75.35 250.27 L 75.35 250.27 L 75.35 250.27 L 75.35 250.27 L 75.35 250.27 L 75.35 250.27 L 75.35 250.27 L 75.35 250.27 L 75.35 250.27 L 75.35 250.27 L 75.35 250.27 L 75.35 250.27 L 75.35 250.27 L 75.35 250.27 L 75.35 250.27 L 75.35 250.27 L 75.35 250.27 L 75.35 250.27 L 75.35 250.27 L 75.35 250.27 L 75.35 250.27 L 75.35 250.27 L 75.35 250.27 L 75.35 250.27 L 75.35 250.27 L 75.35 250.27 L 75.35 250.27 L 75.35 250.27 L 75.35 250.27 L 75.35 250.27 L 75.35 250.27 L 75.35 250.27 L 75.35 250.27 L 75.35 250.27 L 75.35 250.27 L 75.35 250.27 L 75.35 250.27 L 75.35 250.27 C 75.35 247.07 74.52 244.05 73.04 241.37 C 73.4 241.28 73.77 241.15 74.13 240.99 L 122.24 220.43 C 124.74 219.36 126.17 217.33 125.43 215.89 L 125.43 215.89 C 124.69 214.45 122.07 214.15 119.57 215.22 L 71.46 235.78 C 70.76 236.08 70.15 236.45 69.65 236.87 L 69.65 236.87 L 69.65 236.87 L 69.65 236.87 L 69.65 236.87 L 69.65 236.87 L 69.65 236.87 L 69.65 236.87 L 69.65 236.87 Z  M 198.89 278.09 C 190.78 278.65 184.38 284.86 184.38 292.42 C 184.38 300.36 191.43 306.8 200.12 306.8 C 208.81 306.8 215.87 300.36 215.87 292.42 L 215.87 292.42 L 215.87 292.42 L 215.87 292.42 L 215.87 292.42 L 215.87 292.42 L 215.87 292.42 L 215.87 292.42 L 215.87 292.42 L 215.87 292.42 L 215.87 292.42 L 215.87 292.42 L 215.87 292.42 L 215.87 292.42 L 215.87 292.42 L 215.87 292.42 L 215.87 292.42 L 215.87 292.42 L 215.87 292.42 L 215.87 292.42 L 215.87 292.42 L 215.87 292.42 L 215.87 292.42 L 215.87 292.42 L 215.87 292.42 L 215.87 292.42 L 215.87 292.42 L 215.87 292.42 L 215.87 292.42 L 215.87 292.42 L 215.87 292.42 L 215.87 292.42 L 215.87 292.42 L 215.87 292.42 L 215.87 292.42 L 215.87 292.42 L 215.87 292.42 L 215.87 292.42 L 215.87 292.42 L 215.87 292.42 L 215.87 292.42 L 215.87 292.42 L 215.87 292.42 L 215.87 292.42 L 215.87 292.42 C 215.87 285.18 210 279.18 202.38 278.18 C 202.84 277.49 203.12 276.52 203.12 275.45 L 203.14 241.59 C 203.15 239.48 202.05 237.76 200.69 237.76 L 200.69 237.76 C 199.34 237.76 198.24 239.47 198.24 241.59 L 198.21 275.45 C 198.21 276.47 198.47 277.41 198.89 278.09 L 198.89 278.09 L 198.89 278.09 L 198.89 278.09 L 198.89 278.09 L 198.89 278.09 L 198.89 278.09 L 198.89 278.09 L 198.89 278.09 L 198.89 278.09 Z  M 273.24 251.99 C 271.24 254.4 270.05 257.41 270.05 260.67 C 270.05 268.61 277.11 275.05 285.8 275.05 C 294.48 275.05 301.54 268.61 301.54 260.67 L 301.54 260.67 L 301.54 260.67 L 301.54 260.67 L 301.54 260.67 L 301.54 260.67 L 301.54 260.67 L 301.54 260.67 L 301.54 260.67 L 301.54 260.67 L 301.54 260.67 L 301.54 260.67 L 301.54 260.67 L 301.54 260.67 L 301.54 260.67 L 301.54 260.67 L 301.54 260.67 L 301.54 260.67 L 301.54 260.67 L 301.54 260.67 L 301.54 260.67 L 301.54 260.67 L 301.54 260.67 L 301.54 260.67 L 301.54 260.67 L 301.54 260.67 L 301.54 260.67 L 301.54 260.67 L 301.54 260.67 L 301.54 260.67 L 301.54 260.67 L 301.54 260.67 L 301.54 260.67 L 301.54 260.67 C 301.54 252.73 294.48 246.29 285.8 246.29 C 282.09 246.29 278.69 247.46 276 249.42 C 275.76 248.81 275.33 248.17 274.73 247.6 L 248.85 222.89 C 247.32 221.42 245.28 220.93 244.3 221.79 L 244.3 221.79 C 243.33 222.64 243.77 224.52 245.31 225.99 L 271.18 250.7 C 271.82 251.3 272.54 251.75 273.24 251.99 L 273.24 251.99 L 273.24 251.99 L 273.24 251.99 L 273.24 251.99 L 273.24 251.99 L 273.24 251.99 L 273.24 251.99 L 273.24 251.99 L 273.24 251.99 L 273.24 251.99 Z  M 305.19 183.6 C 305.86 190.97 312.63 196.77 320.87 196.77 C 329.56 196.77 336.61 190.32 336.61 182.39 L 336.61 182.39 L 336.61 182.39 L 336.61 182.39 L 336.61 182.39 L 336.61 182.39 L 336.61 182.39 L 336.61 182.39 L 336.61 182.39 L 336.61 182.39 L 336.61 182.39 L 336.61 182.39 L 336.61 182.39 L 336.61 182.39 L 336.61 182.39 L 336.61 182.39 L 336.61 182.39 L 336.61 182.39 L 336.61 182.39 L 336.61 182.39 L 336.61 182.39 L 336.61 182.39 L 336.61 182.39 L 336.61 182.39 L 336.61 182.39 L 336.61 182.39 L 336.61 182.39 L 336.61 182.39 L 336.61 182.39 L 336.61 182.39 L 336.61 182.39 L 336.61 182.39 L 336.61 182.39 L 336.61 182.39 C 336.61 174.45 329.56 168 320.87 168 C 312.96 168 306.41 173.34 305.29 180.28 C 304.61 179.9 303.67 179.68 302.64 179.7 L 262.72 180.54 C 260.6 180.58 258.91 181.62 258.94 182.86 L 258.94 182.86 C 258.97 184.1 260.71 185.07 262.83 185.02 L 302.75 184.19 C 303.69 184.17 304.55 183.95 305.19 183.6 L 305.19 183.6 L 305.19 183.6 L 305.19 183.6 L 305.19 183.6 L 305.19 183.6 L 305.19 183.6 L 305.19 183.6 L 305.19 183.6 L 305.19 183.6 L 305.19 183.6 L 305.19 183.6 Z  M 275.14 116.21 C 277.75 117.98 280.99 119.02 284.48 119.02 C 293.17 119.02 300.23 112.58 300.23 104.64 L 300.23 104.64 L 300.23 104.64 L 300.23 104.64 L 300.23 104.64 L 300.23 104.64 L 300.23 104.64 L 300.23 104.64 L 300.23 104.64 L 300.23 104.64 L 300.23 104.64 L 300.23 104.64 L 300.23 104.64 L 300.23 104.64 L 300.23 104.64 L 300.23 104.64 L 300.23 104.64 L 300.23 104.64 L 300.23 104.64 L 300.23 104.64 L 300.23 104.64 L 300.23 104.64 L 300.23 104.64 L 300.23 104.64 L 300.23 104.64 L 300.23 104.64 L 300.23 104.64 L 300.23 104.64 L 300.23 104.64 L 300.23 104.64 L 300.23 104.64 L 300.23 104.64 L 300.23 104.64 L 300.23 104.64 C 300.23 96.7 293.17 90.26 284.48 90.26 C 275.79 90.26 268.74 96.7 268.74 104.64 C 268.74 108.11 270.09 111.3 272.35 113.78 C 271.65 114 270.92 114.42 270.28 115 L 243.63 139.05 C 242.06 140.47 241.56 142.34 242.51 143.22 L 242.51 143.22 C 243.46 144.1 245.51 143.66 247.08 142.24 L 273.73 118.19 C 274.41 117.58 274.89 116.88 275.14 116.21 L 275.14 116.21 L 275.14 116.21 L 275.14 116.21 L 275.14 116.21 L 275.14 116.21 L 275.14 116.21 L 275.14 116.21 L 275.14 116.21 L 275.14 116.21 L 275.14 116.21 L 275.14 116.21 L 275.14 116.21 Z  M 220.52 215.45 C 219.45 216.47 218.8 217.85 218.8 219.38 C 218.8 222.55 221.62 225.13 225.1 225.13 C 228.57 225.13 231.39 222.55 231.39 219.38 L 231.39 219.38 L 231.39 219.38 L 231.39 219.38 L 231.39 219.38 L 231.39 219.38 L 231.39 219.38 L 231.39 219.38 L 231.39 219.38 L 231.39 219.38 L 231.39 219.38 L 231.39 219.38 L 231.39 219.38 L 231.39 219.38 L 231.39 219.38 L 231.39 219.38 C 231.39 216.2 228.57 213.62 225.1 213.62 C 224.27 213.62 223.47 213.77 222.75 214.05 C 222.69 213.71 222.54 213.34 222.33 212.98 L 215.55 201.92 C 214.84 200.76 213.65 200.13 212.89 200.52 L 212.89 200.52 C 212.14 200.91 212.1 202.16 212.8 203.32 L 219.58 214.39 C 219.84 214.82 220.17 215.18 220.52 215.45 L 220.52 215.45 L 220.52 215.45 L 220.52 215.45 L 220.52 215.45 L 220.52 215.45 L 220.52 215.45 L 220.52 215.45 L 220.52 215.45 L 220.52 215.45 L 220.52 215.45 L 220.52 215.45 L 220.52 215.45 L 220.52 215.45 L 220.52 215.45 L 220.52 215.45 L 220.52 215.45 Z  M 240.8 192.16 C 240.78 192.37 240.76 192.58 240.76 192.8 C 240.76 195.97 243.59 198.55 247.06 198.55 C 250.54 198.55 253.36 195.97 253.36 192.8 L 253.36 192.8 L 253.36 192.8 L 253.36 192.8 L 253.36 192.8 L 253.36 192.8 L 253.36 192.8 L 253.36 192.8 L 253.36 192.8 L 253.36 192.8 L 253.36 192.8 L 253.36 192.8 L 253.36 192.8 L 253.36 192.8 L 253.36 192.8 L 253.36 192.8 C 253.36 189.62 250.54 187.04 247.06 187.04 C 244.47 187.04 242.24 188.48 241.29 190.53 C 240.96 190.07 240.33 189.67 239.53 189.47 L 225.86 185.99 C 224.54 185.66 223.28 186.01 223.05 186.77 L 223.05 186.77 C 222.82 187.54 223.7 188.43 225.02 188.76 L 238.69 192.24 C 239.48 192.44 240.26 192.39 240.8 192.16 L 240.8 192.16 L 240.8 192.16 L 240.8 192.16 L 240.8 192.16 L 240.8 192.16 L 240.8 192.16 L 240.8 192.16 L 240.8 192.16 L 240.8 192.16 L 240.8 192.16 L 240.8 192.16 L 240.8 192.16 L 240.8 192.16 L 240.8 192.16 L 240.8 192.16 L 240.8 192.16 L 240.8 192.16 Z  M 236.63 164.43 C 237.73 165.27 239.14 165.78 240.68 165.78 C 244.16 165.78 246.98 163.2 246.98 160.03 L 246.98 160.03 L 246.98 160.03 L 246.98 160.03 L 246.98 160.03 L 246.98 160.03 L 246.98 160.03 L 246.98 160.03 L 246.98 160.03 L 246.98 160.03 L 246.98 160.03 L 246.98 160.03 L 246.98 160.03 L 246.98 160.03 L 246.98 160.03 L 246.98 160.03 C 246.98 156.85 244.16 154.27 240.68 154.27 C 237.21 154.27 234.39 156.85 234.39 160.03 C 234.39 160.81 234.56 161.56 234.89 162.24 C 234.69 162.3 234.48 162.39 234.28 162.5 L 222.52 168.95 C 221.33 169.61 220.72 170.69 221.17 171.37 L 221.17 171.37 C 221.62 172.05 222.95 172.07 224.14 171.42 L 235.9 164.97 C 236.19 164.81 236.44 164.63 236.63 164.43 L 236.63 164.43 L 236.63 164.43 L 236.63 164.43 L 236.63 164.43 L 236.63 164.43 L 236.63 164.43 L 236.63 164.43 L 236.63 164.43 L 236.63 164.43 L 236.63 164.43 L 236.63 164.43 L 236.63 164.43 L 236.63 164.43 L 236.63 164.43 L 236.63 164.43 L 236.63 164.43 L 236.63 164.43 L 236.63 164.43 Z  M 216.15 247.55 L 209.93 222.96 C 209.6 221.65 210.02 220.43 210.86 220.25 L 210.86 220.25 C 211.71 220.07 212.67 221 213 222.32 L 219.2 246.84 C 219.58 246.8 219.98 246.78 220.37 246.78 C 226.45 246.78 231.39 251.29 231.39 256.85 C 231.39 262.41 226.45 266.92 220.37 266.92 C 214.29 266.92 209.35 262.41 209.35 256.85 C 209.35 252.66 212.16 249.07 216.15 247.55 L 216.15 247.55 L 216.15 247.55 L 216.15 247.55 L 216.15 247.55 L 216.15 247.55 L 216.15 247.55 L 216.15 247.55 L 216.15 247.55 L 216.15 247.55 L 216.15 247.55 L 216.15 247.55 L 216.15 247.55 L 216.15 247.55 L 216.15 247.55 L 216.15 247.55 L 216.15 247.55 L 216.15 247.55 L 216.15 247.55 L 216.15 247.55 L 216.15 247.55 L 216.15 247.55 L 216.15 247.55 L 216.15 247.55 L 216.15 247.55 L 216.15 247.55 L 216.15 247.55 L 216.15 247.55 L 216.15 247.55 L 216.15 247.55 L 216.15 247.55 L 216.15 247.55 L 216.15 247.55 L 216.15 247.55 L 216.15 247.55 L 216.15 247.55 L 216.15 247.55 L 216.15 247.55 L 216.15 247.55 L 216.15 247.55 L 216.15 247.55 L 216.15 247.55 L 216.15 247.55 L 216.15 247.55 L 216.15 247.55 L 216.15 247.55 L 216.15 247.55 L 216.15 247.55 L 216.15 247.55 L 216.15 247.55 L 216.15 247.55 L 216.15 247.55 L 216.15 247.55 L 216.15 247.55 L 216.15 247.55 Z  M 159.69 173.97 C 159.69 173.94 159.7 173.9 159.7 173.86 L 159.7 173.86 L 159.7 173.86 L 159.7 173.86 L 159.7 173.86 L 159.7 173.86 L 159.7 173.86 L 159.7 173.86 L 159.7 173.86 L 159.7 173.86 L 159.7 173.86 L 159.7 173.86 L 159.7 173.86 L 159.7 173.86 L 159.7 173.86 C 159.7 170.69 156.87 168.11 153.4 168.11 C 149.92 168.11 147.1 170.69 147.1 173.86 C 147.1 177.04 149.92 179.62 153.4 179.62 C 155.94 179.62 158.13 178.24 159.11 176.25 C 159.5 176.51 160.03 176.69 160.64 176.75 L 172.96 177.92 C 174.31 178.04 175.48 177.51 175.57 176.72 L 175.57 176.72 C 175.66 175.93 174.64 175.18 173.28 175.05 L 160.96 173.89 C 160.5 173.84 160.07 173.88 159.69 173.97 L 159.69 173.97 L 159.69 173.97 L 159.69 173.97 L 159.69 173.97 L 159.69 173.97 L 159.69 173.97 L 159.69 173.97 L 159.69 173.97 L 159.69 173.97 L 159.69 173.97 L 159.69 173.97 L 159.69 173.97 L 159.69 173.97 L 159.69 173.97 L 159.69 173.97 L 159.69 173.97 L 159.69 173.97 L 159.69 173.97 L 159.69 173.97 L 159.69 173.97 L 159.69 173.97 Z  M 164.45 201.74 C 163.38 200.97 162.04 200.52 160.57 200.52 C 157.1 200.52 154.27 203.09 154.27 206.27 C 154.27 209.44 157.1 212.02 160.57 212.02 C 164.05 212.02 166.87 209.44 166.87 206.27 L 166.87 206.27 L 166.87 206.27 L 166.87 206.27 L 166.87 206.27 L 166.87 206.27 L 166.87 206.27 L 166.87 206.27 L 166.87 206.27 L 166.87 206.27 L 166.87 206.27 L 166.87 206.27 L 166.87 206.27 L 166.87 206.27 L 166.87 206.27 C 166.87 205.29 166.6 204.37 166.14 203.57 C 166.46 203.54 166.81 203.44 167.15 203.29 L 178.28 198.46 C 179.52 197.92 180.23 196.9 179.86 196.18 L 179.86 196.18 C 179.48 195.46 178.17 195.32 176.92 195.86 L 165.8 200.7 C 165.19 200.96 164.71 201.34 164.45 201.74 L 164.45 201.74 L 164.45 201.74 L 164.45 201.74 L 164.45 201.74 L 164.45 201.74 L 164.45 201.74 L 164.45 201.74 L 164.45 201.74 L 164.45 201.74 L 164.45 201.74 L 164.45 201.74 L 164.45 201.74 L 164.45 201.74 L 164.45 201.74 L 164.45 201.74 L 164.45 201.74 L 164.45 201.74 L 164.45 201.74 L 164.45 201.74 L 164.45 201.74 L 164.45 201.74 L 164.45 201.74 Z  M 270.38 168.23 C 272.04 171.87 275.97 174.44 280.56 174.44 C 286.64 174.44 291.58 169.93 291.58 164.37 L 291.58 164.37 L 291.58 164.37 L 291.58 164.37 L 291.58 164.37 L 291.58 164.37 L 291.58 164.37 L 291.58 164.37 L 291.58 164.37 L 291.58 164.37 L 291.58 164.37 L 291.58 164.37 L 291.58 164.37 L 291.58 164.37 C 291.58 158.81 286.64 154.3 280.56 154.3 C 274.47 154.3 269.54 158.81 269.54 164.37 C 269.54 164.74 269.56 165.1 269.61 165.46 C 269.54 165.47 269.47 165.48 269.39 165.5 L 242.08 171.58 C 240.75 171.87 239.84 172.74 240.05 173.51 L 240.05 173.51 C 240.25 174.28 241.49 174.67 242.82 174.37 L 270.14 168.3 C 270.22 168.28 270.31 168.26 270.38 168.23 L 270.38 168.23 L 270.38 168.23 L 270.38 168.23 L 270.38 168.23 L 270.38 168.23 L 270.38 168.23 L 270.38 168.23 L 270.38 168.23 L 270.38 168.23 L 270.38 168.23 L 270.38 168.23 L 270.38 168.23 L 270.38 168.23 L 270.38 168.23 L 270.38 168.23 L 270.38 168.23 L 270.38 168.23 L 270.38 168.23 L 270.38 168.23 L 270.38 168.23 L 270.38 168.23 L 270.38 168.23 L 270.38 168.23 L 270.38 168.23 L 270.38 168.23 Z  M 334.17 226.44 C 334.01 227.4 333.93 228.38 333.93 229.38 C 333.93 240.49 343.98 249.51 356.37 249.51 C 368.75 249.51 378.8 240.49 378.8 229.38 L 378.8 229.38 L 378.8 229.38 L 378.8 229.38 L 378.8 229.38 L 378.8 229.38 L 378.8 229.38 L 378.8 229.38 L 378.8 229.38 L 378.8 229.38 L 378.8 229.38 L 378.8 229.38 L 378.8 229.38 L 378.8 229.38 L 378.8 229.38 L 378.8 229.38 L 378.8 229.38 L 378.8 229.38 L 378.8 229.38 L 378.8 229.38 L 378.8 229.38 L 378.8 229.38 L 378.8 229.38 L 378.8 229.38 L 378.8 229.38 L 378.8 229.38 L 378.8 229.38 L 378.8 229.38 L 378.8 229.38 L 378.8 229.38 L 378.8 229.38 L 378.8 229.38 L 378.8 229.38 L 378.8 229.38 L 378.8 229.38 L 378.8 229.38 L 378.8 229.38 L 378.8 229.38 L 378.8 229.38 L 378.8 229.38 L 378.8 229.38 L 378.8 229.38 L 378.8 229.38 L 378.8 229.38 L 378.8 229.38 L 378.8 229.38 L 378.8 229.38 C 378.8 218.26 368.75 209.24 356.37 209.24 C 346.85 209.24 338.71 214.57 335.46 222.09 C 334.82 221.51 333.94 221.02 332.92 220.7 L 282.66 204.81 C 280.07 203.99 277.51 204.55 276.94 206.05 L 276.94 206.05 C 276.37 207.55 278.01 209.43 280.6 210.25 L 330.86 226.14 C 332.03 226.5 333.19 226.59 334.17 226.44 L 334.17 226.44 L 334.17 226.44 L 334.17 226.44 Z  M 129.49 197.22 C 127.58 194.2 124.01 192.17 119.93 192.17 C 113.85 192.17 108.91 196.68 108.91 202.24 C 108.91 207.79 113.85 212.3 119.93 212.3 C 126.02 212.3 130.95 207.79 130.95 202.24 L 130.95 202.24 L 130.95 202.24 L 130.95 202.24 L 130.95 202.24 L 130.95 202.24 L 130.95 202.24 L 130.95 202.24 L 130.95 202.24 L 130.95 202.24 L 130.95 202.24 L 130.95 202.24 L 130.95 202.24 C 130.95 201.44 130.85 200.66 130.66 199.92 L 156.07 194.44 C 157.4 194.15 158.31 193.29 158.12 192.52 L 158.12 192.52 C 157.92 191.75 156.68 191.35 155.35 191.64 L 129.49 197.22 L 129.49 197.22 L 129.49 197.22 L 129.49 197.22 L 129.49 197.22 L 129.49 197.22 L 129.49 197.22 L 129.49 197.22 L 129.49 197.22 L 129.49 197.22 L 129.49 197.22 L 129.49 197.22 L 129.49 197.22 L 129.49 197.22 L 129.49 197.22 L 129.49 197.22 L 129.49 197.22 L 129.49 197.22 L 129.49 197.22 L 129.49 197.22 L 129.49 197.22 L 129.49 197.22 L 129.49 197.22 L 129.49 197.22 L 129.49 197.22 L 129.49 197.22 L 129.49 197.22 L 129.49 197.22 L 129.49 197.22 L 129.49 197.22 Z  M 139.14 148.13 C 139.77 146.87 140.12 145.46 140.12 143.98 L 140.12 143.98 L 140.12 143.98 L 140.12 143.98 L 140.12 143.98 L 140.12 143.98 L 140.12 143.98 L 140.12 143.98 L 140.12 143.98 L 140.12 143.98 L 140.12 143.98 L 140.12 143.98 L 140.12 143.98 C 140.12 138.42 135.18 133.91 129.1 133.91 C 123.02 133.91 118.08 138.42 118.08 143.98 C 118.08 149.54 123.02 154.05 129.1 154.05 C 132.49 154.05 135.52 152.65 137.54 150.44 C 137.72 150.61 137.94 150.76 138.19 150.89 L 162.56 163.56 C 163.76 164.18 165.09 164.13 165.52 163.44 L 165.52 163.44 C 165.95 162.75 165.32 161.68 164.11 161.06 L 139.75 148.39 C 139.55 148.28 139.34 148.19 139.14 148.13 L 139.14 148.13 L 139.14 148.13 L 139.14 148.13 L 139.14 148.13 L 139.14 148.13 L 139.14 148.13 L 139.14 148.13 L 139.14 148.13 L 139.14 148.13 L 139.14 148.13 L 139.14 148.13 L 139.14 148.13 L 139.14 148.13 L 139.14 148.13 L 139.14 148.13 L 139.14 148.13 L 139.14 148.13 L 139.14 148.13 L 139.14 148.13 L 139.14 148.13 L 139.14 148.13 L 139.14 148.13 L 139.14 148.13 L 139.14 148.13 L 139.14 148.13 L 139.14 148.13 L 139.14 148.13 L 139.14 148.13 Z  M 95.06 180.94 L 95.06 180.94 C 93.87 174.08 87.35 168.83 79.51 168.83 C 70.82 168.83 63.77 175.28 63.77 183.21 C 63.77 191.15 70.82 197.59 79.51 197.59 C 87.88 197.59 94.74 191.61 95.23 184.07 C 95.9 184.47 96.84 184.7 97.87 184.69 L 135.66 184.47 C 137.78 184.46 139.49 183.44 139.48 182.21 L 139.48 182.21 C 139.47 180.97 137.75 179.97 135.63 179.99 L 97.84 180.21 C 96.74 180.22 95.75 180.49 95.06 180.94 L 95.06 180.94 L 95.06 180.94 L 95.06 180.94 L 95.06 180.94 L 95.06 180.94 L 95.06 180.94 L 95.06 180.94 L 95.06 180.94 L 95.06 180.94 L 95.06 180.94 L 95.06 180.94 L 95.06 180.94 L 95.06 180.94 L 95.06 180.94 L 95.06 180.94 Z  M 161.82 238.9 C 160.47 238.35 158.97 238.05 157.4 238.05 C 151.32 238.05 146.38 242.56 146.38 248.11 C 146.38 253.67 151.32 258.18 157.4 258.18 C 163.48 258.18 168.42 253.67 168.42 248.11 L 168.42 248.11 L 168.42 248.11 L 168.42 248.11 L 168.42 248.11 L 168.42 248.11 L 168.42 248.11 L 168.42 248.11 L 168.42 248.11 L 168.42 248.11 L 168.42 248.11 L 168.42 248.11 L 168.42 248.11 C 168.42 245.02 166.89 242.25 164.48 240.41 C 164.52 240.37 164.55 240.33 164.58 240.28 L 179.19 218.66 C 179.95 217.53 179.97 216.28 179.23 215.86 L 179.23 215.86 C 178.49 215.45 177.27 216.02 176.51 217.15 L 161.9 238.77 C 161.87 238.81 161.84 238.85 161.82 238.9 L 161.82 238.9 L 161.82 238.9 L 161.82 238.9 L 161.82 238.9 L 161.82 238.9 L 161.82 238.9 L 161.82 238.9 L 161.82 238.9 L 161.82 238.9 L 161.82 238.9 L 161.82 238.9 L 161.82 238.9 L 161.82 238.9 L 161.82 238.9 L 161.82 238.9 L 161.82 238.9 L 161.82 238.9 L 161.82 238.9 L 161.82 238.9 L 161.82 238.9 L 161.82 238.9 L 161.82 238.9 L 161.82 238.9 L 161.82 238.9 L 161.82 238.9 L 161.82 238.9 L 161.82 238.9 L 161.82 238.9 L 161.82 238.9 L 161.82 238.9 Z  M 179.44 150.51 C 180.3 149.53 180.82 148.28 180.82 146.92 L 180.82 146.92 L 180.82 146.92 L 180.82 146.92 L 180.82 146.92 L 180.82 146.92 L 180.82 146.92 L 180.82 146.92 L 180.82 146.92 L 180.82 146.92 L 180.82 146.92 L 180.82 146.92 L 180.82 146.92 L 180.82 146.92 L 180.82 146.92 C 180.82 143.75 178 141.17 174.52 141.17 C 171.05 141.17 168.22 143.75 168.22 146.92 C 168.22 150.1 171.05 152.67 174.52 152.67 C 175.48 152.67 176.39 152.48 177.19 152.12 C 177.26 152.37 177.39 152.63 177.56 152.88 L 183.78 162.33 C 184.53 163.46 185.74 164.05 186.48 163.64 L 186.48 163.64 C 187.23 163.23 187.23 161.98 186.48 160.84 L 180.26 151.4 C 180.02 151.04 179.74 150.74 179.44 150.51 L 179.44 150.51 L 179.44 150.51 L 179.44 150.51 L 179.44 150.51 L 179.44 150.51 L 179.44 150.51 L 179.44 150.51 L 179.44 150.51 L 179.44 150.51 L 179.44 150.51 L 179.44 150.51 L 179.44 150.51 L 179.44 150.51 L 179.44 150.51 L 179.44 150.51 L 179.44 150.51 L 179.44 150.51 L 179.44 150.51 L 179.44 150.51 L 179.44 150.51 Z  M 261.67 217.92 C 261.09 219.13 260.77 220.48 260.77 221.9 C 260.77 227.45 265.7 231.96 271.79 231.96 C 277.87 231.96 282.81 227.45 282.81 221.9 L 282.81 221.9 L 282.81 221.9 L 282.81 221.9 L 282.81 221.9 L 282.81 221.9 L 282.81 221.9 L 282.81 221.9 L 282.81 221.9 L 282.81 221.9 L 282.81 221.9 L 282.81 221.9 L 282.81 221.9 L 282.81 221.9 C 282.81 216.34 277.87 211.83 271.79 211.83 C 268.24 211.83 265.08 213.37 263.06 215.75 C 262.86 215.49 262.57 215.25 262.23 215.04 L 238.96 200.81 C 237.8 200.1 236.47 200.06 235.98 200.72 L 235.98 200.72 C 235.5 201.38 236.05 202.49 237.21 203.2 L 260.48 217.43 C 260.87 217.67 261.28 217.84 261.67 217.92 L 261.67 217.92 L 261.67 217.92 L 261.67 217.92 L 261.67 217.92 L 261.67 217.92 L 261.67 217.92 L 261.67 217.92 L 261.67 217.92 L 261.67 217.92 L 261.67 217.92 L 261.67 217.92 L 261.67 217.92 L 261.67 217.92 L 261.67 217.92 L 261.67 217.92 L 261.67 217.92 L 261.67 217.92 L 261.67 217.92 L 261.67 217.92 L 261.67 217.92 L 261.67 217.92 L 261.67 217.92 L 261.67 217.92 L 261.67 217.92 Z  M 185.48 118.74 C 189.07 117.08 191.54 113.68 191.54 109.75 L 191.54 109.75 L 191.54 109.75 L 191.54 109.75 L 191.54 109.75 L 191.54 109.75 L 191.54 109.75 L 191.54 109.75 L 191.54 109.75 L 191.54 109.75 L 191.54 109.75 L 191.54 109.75 L 191.54 109.75 C 191.54 104.2 186.6 99.69 180.52 99.69 C 174.43 99.69 169.5 104.2 169.5 109.75 C 169.5 115.31 174.43 119.82 180.52 119.82 C 181.19 119.82 181.85 119.77 182.49 119.66 L 188.41 144.25 C 188.73 145.57 189.68 146.5 190.52 146.33 L 190.52 146.33 C 191.37 146.16 191.8 144.95 191.49 143.63 L 185.54 118.92 C 185.52 118.86 185.51 118.8 185.48 118.74 L 185.48 118.74 L 185.48 118.74 L 185.48 118.74 L 185.48 118.74 L 185.48 118.74 L 185.48 118.74 L 185.48 118.74 L 185.48 118.74 L 185.48 118.74 L 185.48 118.74 L 185.48 118.74 L 185.48 118.74 L 185.48 118.74 L 185.48 118.74 L 185.48 118.74 L 185.48 118.74 L 185.48 118.74 L 185.48 118.74 L 185.48 118.74 L 185.48 118.74 L 185.48 118.74 L 185.48 118.74 L 185.48 118.74 L 185.48 118.74 L 185.48 118.74 L 185.48 118.74 L 185.48 118.74 Z  M 239.27 127.8 C 240.57 128.29 242 128.56 243.49 128.56 C 249.57 128.56 254.51 124.05 254.51 118.49 C 254.51 112.94 249.57 108.43 243.49 108.43 C 237.41 108.43 232.47 112.94 232.47 118.49 C 232.47 121.66 234.07 124.48 236.57 126.32 L 222.12 149.28 C 221.73 149.91 221.94 150.7 222.6 151.05 L 222.95 151.23 C 223.6 151.58 224.46 151.35 224.85 150.72 L 239.27 127.8 L 239.27 127.8 L 239.27 127.8 L 239.27 127.8 L 239.27 127.8 L 239.27 127.8 L 239.27 127.8 L 239.27 127.8 L 239.27 127.8 L 239.27 127.8 L 239.27 127.8 L 239.27 127.8 L 239.27 127.8 L 239.27 127.8 L 239.27 127.8 L 239.27 127.8 L 239.27 127.8 L 239.27 127.8 L 239.27 127.8 L 239.27 127.8 L 239.27 127.8 L 239.27 127.8 L 239.27 127.8 L 239.27 127.8 L 239.27 127.8 L 239.27 127.8 L 239.27 127.8 Z  M 210.76 146.85 C 210.77 146.85 210.78 146.85 210.79 146.85 C 214.27 146.85 217.09 144.27 217.09 141.09 C 217.09 137.92 214.27 135.34 210.79 135.34 C 207.32 135.34 204.49 137.92 204.49 141.09 C 204.49 143.27 205.82 145.17 207.77 146.15 C 207.7 146.28 207.66 146.42 207.64 146.56 L 205.48 159.04 C 205.33 159.91 205.91 160.71 206.77 160.84 L 206.77 160.84 C 207.62 160.96 208.44 160.36 208.59 159.49 L 210.75 147.01 C 210.75 146.96 210.76 146.9 210.76 146.85 L 210.76 146.85 L 210.76 146.85 L 210.76 146.85 L 210.76 146.85 L 210.76 146.85 L 210.76 146.85 L 210.76 146.85 L 210.76 146.85 L 210.76 146.85 L 210.76 146.85 L 210.76 146.85 L 210.76 146.85 L 210.76 146.85 L 210.76 146.85 L 210.76 146.85 L 210.76 146.85 L 210.76 146.85 L 210.76 146.85 L 210.76 146.85 Z  M 128.14 113.96 C 129.95 111.63 131.01 108.77 131.01 105.7 C 131.01 97.76 123.96 91.31 115.27 91.31 C 106.58 91.31 99.52 97.76 99.52 105.7 C 99.52 113.63 106.58 120.08 115.27 120.08 C 119.12 120.08 122.66 118.81 125.39 116.7 C 125.66 117.27 126.1 117.85 126.69 118.36 L 153.66 142.11 C 155.25 143.51 157.3 143.92 158.24 143.03 L 158.24 143.03 C 159.18 142.14 158.66 140.28 157.07 138.88 L 130.09 115.13 C 129.48 114.59 128.8 114.2 128.14 113.96 L 128.14 113.96 L 128.14 113.96 L 128.14 113.96 L 128.14 113.96 L 128.14 113.96 L 128.14 113.96 L 128.14 113.96 L 128.14 113.96 L 128.14 113.96 L 128.14 113.96 L 128.14 113.96 L 128.14 113.96 L 128.14 113.96 L 128.14 113.96 Z  M 203.62 86.89 C 210.02 85.07 214.68 79.61 214.68 73.16 C 214.68 65.22 207.62 58.78 198.93 58.78 C 190.24 58.78 183.19 65.22 183.19 73.16 C 183.19 81.03 190.13 87.43 198.71 87.54 L 198.8 125.25 C 198.81 126.45 199.78 127.42 200.97 127.41 L 201.55 127.41 C 202.75 127.41 203.71 126.44 203.71 125.24 L 203.62 86.89 L 203.62 86.89 L 203.62 86.89 L 203.62 86.89 L 203.62 86.89 L 203.62 86.89 L 203.62 86.89 L 203.62 86.89 L 203.62 86.89 L 203.62 86.89 L 203.62 86.89 L 203.62 86.89 L 203.62 86.89 L 203.62 86.89 Z  M 65.78 138.13 C 65.97 137.08 66.07 136 66.07 134.9 C 66.07 123.79 56.02 114.77 43.63 114.77 C 31.25 114.77 21.2 123.79 21.2 134.9 C 21.2 146.02 31.25 155.04 43.63 155.04 C 52.81 155.04 60.71 150.08 64.17 142.99 C 64.72 143.37 65.39 143.71 66.14 143.95 L 116.22 160.26 C 118.81 161.1 121.38 160.57 121.96 159.07 L 121.96 159.07 C 122.55 157.58 120.92 155.68 118.34 154.84 L 68.25 138.53 C 67.4 138.25 66.56 138.13 65.78 138.13 L 65.78 138.13 L 65.78 138.13 L 65.78 138.13 L 65.78 138.13 L 65.78 138.13 L 65.78 138.13 L 65.78 138.13 Z  M 139.33 64.31 C 145.06 60.67 148.8 54.67 148.8 47.9 C 148.8 36.79 138.74 27.76 126.36 27.76 C 113.98 27.76 103.93 36.79 103.93 47.9 C 103.93 59.01 113.98 68.03 126.36 68.03 C 129.21 68.03 131.93 67.56 134.43 66.68 C 134.56 67.38 134.83 68.12 135.24 68.85 L 159.16 111.59 C 160.48 113.96 162.82 115.3 164.36 114.57 L 164.36 114.57 C 165.91 113.85 166.09 111.34 164.76 108.97 L 140.84 66.23 C 140.42 65.48 139.9 64.83 139.33 64.31 L 139.33 64.31 L 139.33 64.31 L 139.33 64.31 L 139.33 64.31 L 139.33 64.31 L 139.33 64.31 Z  M 248.28 60.07 C 249.32 60.2 250.38 60.27 251.46 60.27 C 263.84 60.27 273.89 51.25 273.89 40.13 C 273.89 29.02 263.84 20 251.46 20 C 239.07 20 229.02 29.02 229.02 40.13 C 229.02 48.29 234.44 55.33 242.22 58.49 L 224.56 107.27 C 224.06 108.66 224.8 110.13 226.21 110.55 L 227.08 110.82 C 228.49 111.24 230.04 110.46 230.54 109.08 L 242.62 75.73 L 248.28 60.07 L 248.28 60.07 L 248.28 60.07 L 248.28 60.07 L 248.28 60.07 L 248.28 60.07 Z " fill-rule="evenodd" fill="rgb(56,29,132)"/></g></g></g></svg>