<svg id="Layer_1" data-name="Layer 1" xmlns="http://www.w3.org/2000/svg" viewBox="0 0 801.99 279"><defs><style>.cls-1{fill:#6569df;}.cls-2{fill:#381d84;}</style></defs><title>nChartLogo</title><path class="cls-1" d="M1048.32,416.2h-4.2V335h4.2L1094,408.5V335h4.2v81.2H1094l-45.64-73.64V416.2h0Zm134-19.74,3.78,1.82h0a32.41,32.41,0,0,1-10.64,14.28h0q-6.86,5-20.58,5h0q-17.22,0-24.92-10.57h0q-7.7-10.57-7.7-33h0V360.34h0q0-22.4,7.7-33h0q7.7-10.57,24.92-10.57h0q13.72,0,20.58,5h0a32.41,32.41,0,0,1,10.64,14.28h0l-3.78,1.82h0a28.16,28.16,0,0,0-9.1-12.53h0q-5.88-4.41-18.34-4.41h0a35.08,35.08,0,0,0-11.76,1.75h0a22.25,22.25,0,0,0-8.82,6h0q-3.92,4.2-5.88,12.11h0a82.64,82.64,0,0,0-2,19.53h0v13.72h0a82.64,82.64,0,0,0,2,19.53h0q2,7.91,5.88,12.11h0a22.25,22.25,0,0,0,8.82,5.95h0a35.08,35.08,0,0,0,11.76,1.75h0q12.46,0,18.34-4.41h0a28.16,28.16,0,0,0,9.1-12.53h0Zm75-61.46v81.2h-4.2V375.6h-42v40.6h-4.2V335h4.2v36.4h42V335h4.2Zm34,81.2V412H1337l-28.7-67.62-30.52,71.82h-4.48l35-82.6,35,82.6h-51.94Zm102.06-40.74h0l19,40.74h-4.62l-19.6-42h0l2.45-1.19h0q2.17-1.05,3-1.54h0q0.84-.49,2.8-1.75h0a12.7,12.7,0,0,0,2.94-2.45h0q1-1.19,2.17-2.8h0a11,11,0,0,0,1.75-3.64h0a16.53,16.53,0,0,0,.56-4.41h0q0-8.82-8.4-13h0q-8.4-4.2-20.86-4.2h-11.2v77h-4.2V335h15.4q16.52,0,25,5.74h0q8.47,5.74,8.47,15.68h0a16.84,16.84,0,0,1-4.34,11.41h0A29.34,29.34,0,0,1,1393.42,375.46ZM1421,335h63v4.2h-29.4v77h-4.2v-77H1421V335h0Z" transform="translate(-682.01 -219.5)"/><path class="cls-2" d="M851.78,417.33h0c-0.73.15-1.55-.64-1.84-1.78l-5.37-21.24c-0.29-1.13.07-2.18,0.8-2.33h0c0.73-.15,1.55.64,1.84,1.78L852.58,415C852.87,416.14,852.51,417.18,851.78,417.33Z" transform="translate(-682.01 -219.5)"/><path class="cls-2" d="M863.06,423.51c0,4.79-4.25,8.67-9.49,8.67s-9.49-3.89-9.49-8.67,4.25-8.67,9.49-8.67S863.06,418.73,863.06,423.51Z" transform="translate(-682.01 -219.5)"/><path class="cls-2" d="M770.68,418.63h0c-0.81-.71-0.43-2.27.85-3.48l22.7-21.47c1.28-1.21,3-1.61,3.77-.89h0c0.81,0.71.43,2.27-.85,3.48l-22.7,21.47C773.18,418.94,771.49,419.34,770.68,418.63Z" transform="translate(-682.01 -219.5)"/><path class="cls-2" d="M849.68,454.15c0,6.84-6.08,12.39-13.56,12.39s-13.56-5.55-13.56-12.39,6.08-12.39,13.56-12.39S849.68,447.31,849.68,454.15Z" transform="translate(-682.01 -219.5)"/><path class="cls-2" d="M794.66,469.24h0c-1.42-.42-1.94-2.56-1.16-4.76l14-39.24c0.78-2.2,2.58-3.65,4-3.23h0c1.42,0.42,1.94,2.55,1.16,4.76l-14,39.24C797.88,468.21,796.09,469.66,794.66,469.24Z" transform="translate(-682.01 -219.5)"/><path class="cls-2" d="M728.65,417.84c0,9.57-8.66,17.34-19.32,17.34S690,427.42,690,417.84s8.66-17.34,19.32-17.34S728.65,408.27,728.65,417.84Z" transform="translate(-682.01 -219.5)"/><path class="cls-2" d="M720.66,318.47c0,9.57-8.66,17.34-19.32,17.34S682,328,682,318.47s8.66-17.34,19.32-17.34S720.66,308.9,720.66,318.47Z" transform="translate(-682.01 -219.5)"/><path class="cls-2" d="M791.64,243.46c0,9.57-8.66,17.34-19.32,17.34S753,253,753,243.46s8.66-17.34,19.32-17.34S791.64,233.88,791.64,243.46Z" transform="translate(-682.01 -219.5)"/><path class="cls-2" d="M899.66,236.84c0,9.57-8.66,17.34-19.32,17.34S861,246.41,861,236.84s8.66-17.34,19.32-17.34S899.66,227.27,899.66,236.84Z" transform="translate(-682.01 -219.5)"/><path class="cls-2" d="M983.29,302.22c0,9.57-8.66,17.34-19.32,17.34s-19.32-7.77-19.32-17.34,8.66-17.34,19.32-17.34S983.29,292.65,983.29,302.22Z" transform="translate(-682.01 -219.5)"/><path class="cls-2" d="M990,399.85c0,9.57-8.66,17.34-19.32,17.34s-19.32-7.77-19.32-17.34S960,382.5,970.7,382.5,990,390.27,990,399.85Z" transform="translate(-682.01 -219.5)"/><path class="cls-2" d="M919.25,475.65c0,9.57-8.66,17.34-19.32,17.34s-19.32-7.77-19.32-17.34,8.66-17.34,19.32-17.34S919.25,466.08,919.25,475.65Z" transform="translate(-682.01 -219.5)"/><path class="cls-2" d="M777.05,427.69c0,6.84-6.08,12.39-13.56,12.39s-13.56-5.55-13.56-12.39S756,415.3,763.49,415.3,777.05,420.86,777.05,427.69Z" transform="translate(-682.01 -219.5)"/><path class="cls-2" d="M745.8,360.08c0,6.84-6.08,12.39-13.56,12.39s-13.56-5.55-13.56-12.39,6.08-12.39,13.56-12.39S745.8,353.25,745.8,360.08Z" transform="translate(-682.01 -219.5)"/><path class="cls-2" d="M776.59,293.32c0,6.84-6.08,12.39-13.56,12.39s-13.56-5.55-13.56-12.39,6.08-12.39,13.56-12.39S776.59,286.48,776.59,293.32Z" transform="translate(-682.01 -219.5)"/><path class="cls-2" d="M848.66,265.29c0,6.84-6.08,12.39-13.56,12.39s-13.56-5.55-13.56-12.39,6.08-12.39,13.56-12.39S848.66,258.45,848.66,265.29Z" transform="translate(-682.01 -219.5)"/><path class="cls-2" d="M922.35,292.4c0,6.84-6.08,12.39-13.56,12.39s-13.56-5.55-13.56-12.39S901.3,280,908.79,280,922.35,285.57,922.35,292.4Z" transform="translate(-682.01 -219.5)"/><path class="cls-2" d="M953.69,359.37c0,6.84-6.08,12.39-13.56,12.39s-13.56-5.55-13.56-12.39S932.65,347,940.13,347,953.69,352.54,953.69,359.37Z" transform="translate(-682.01 -219.5)"/><path class="cls-2" d="M923.48,426.8c0,6.84-6.08,12.39-13.56,12.39s-13.56-5.55-13.56-12.39,6.08-12.39,13.56-12.39S923.48,420,923.48,426.8Z" transform="translate(-682.01 -219.5)"/><path class="cls-2" d="M808.82,416c0,4.79-4.25,8.67-9.49,8.67s-9.49-3.89-9.49-8.67,4.25-8.67,9.49-8.67S808.82,411.2,808.82,416Z" transform="translate(-682.01 -219.5)"/><path class="cls-2" d="M776.55,376.47c0,4.79-4.25,8.67-9.49,8.67s-9.49-3.89-9.49-8.67,4.25-8.67,9.49-8.67S776.55,371.68,776.55,376.47Z" transform="translate(-682.01 -219.5)"/><path class="cls-2" d="M784.44,326.29c0,4.79-4.25,8.67-9.49,8.67s-9.49-3.89-9.49-8.67,4.25-8.67,9.49-8.67S784.44,321.5,784.44,326.29Z" transform="translate(-682.01 -219.5)"/><path class="cls-2" d="M828.73,296.81c0,4.79-4.25,8.67-9.49,8.67s-9.49-3.89-9.49-8.67,4.25-8.67,9.49-8.67S828.73,292,828.73,296.81Z" transform="translate(-682.01 -219.5)"/><path class="cls-2" d="M883,304.34c0,4.79-4.25,8.67-9.49,8.67s-9.49-3.89-9.49-8.67,4.25-8.67,9.49-8.67S883,299.55,883,304.34Z" transform="translate(-682.01 -219.5)"/><path class="cls-2" d="M914.9,343.85c0,4.79-4.25,8.67-9.49,8.67s-9.49-3.88-9.49-8.67,4.25-8.67,9.49-8.67S914.9,339.07,914.9,343.85Z" transform="translate(-682.01 -219.5)"/><path class="cls-2" d="M907.34,393.4c0,4.79-4.25,8.67-9.49,8.67s-9.49-3.89-9.49-8.67,4.25-8.67,9.49-8.67S907.34,388.62,907.34,393.4Z" transform="translate(-682.01 -219.5)"/><path class="cls-2" d="M807.48,379.94a5.45,5.45,0,1,1-5.42-5A5.21,5.21,0,0,1,807.48,379.94Z" transform="translate(-682.01 -219.5)"/><path class="cls-2" d="M801.3,352a5.45,5.45,0,1,1-5.42-5A5.21,5.21,0,0,1,801.3,352Z" transform="translate(-682.01 -219.5)"/><path class="cls-2" d="M819.5,328.82a5.45,5.45,0,1,1-5.42-5A5.21,5.21,0,0,1,819.5,328.82Z" transform="translate(-682.01 -219.5)"/><path class="cls-2" d="M850.74,323.8a5.45,5.45,0,1,1-5.42-5A5.21,5.21,0,0,1,850.74,323.8Z" transform="translate(-682.01 -219.5)"/><path class="cls-2" d="M876.49,340.11a5.45,5.45,0,1,1-5.42-5A5.21,5.21,0,0,1,876.49,340.11Z" transform="translate(-682.01 -219.5)"/><path class="cls-2" d="M882,368.34a5.45,5.45,0,1,1-5.42-5A5.21,5.21,0,0,1,882,368.34Z" transform="translate(-682.01 -219.5)"/><path class="cls-2" d="M863.06,391.23a5.45,5.45,0,1,1-5.42-5A5.21,5.21,0,0,1,863.06,391.23Z" transform="translate(-682.01 -219.5)"/><path class="cls-2" d="M803.17,410.34h0c-0.64-.36-0.62-1.44,0-2.41l12.59-18.62c0.65-1,1.7-1.46,2.34-1.1h0c0.64,0.36.62,1.44,0,2.41l-12.58,18.62C804.85,410.21,803.81,410.7,803.17,410.34Z" transform="translate(-682.01 -219.5)"/><path class="cls-2" d="M772.22,374.08h0c-0.17-.66.62-1.41,1.76-1.65l23.57-5.08c1.14-.25,2.21.09,2.38,0.76h0c0.17,0.67-.62,1.41-1.76,1.65l-23.57,5.08C773.47,375.08,772.4,374.74,772.22,374.08Z" transform="translate(-682.01 -219.5)"/><path class="cls-2" d="M781.57,330.18h0c0.37-.59,1.51-0.64,2.55-0.1l21,10.92c1,0.54,1.58,1.46,1.21,2.05h0c-0.37.59-1.51,0.64-2.55,0.1l-21-10.92C781.74,331.7,781.2,330.78,781.57,330.18Z" transform="translate(-682.01 -219.5)"/><path class="cls-2" d="M821.74,302.91h0c0.73-.15,1.55.66,1.82,1.79L828.68,326c0.27,1.14-.1,2.18-0.83,2.33h0c-0.73.15-1.55-.66-1.82-1.8l-5.12-21.28C820.64,304.1,821,303.06,821.74,302.91Z" transform="translate(-682.01 -219.5)"/><path class="cls-2" d="M869.82,309.9h0c0.65,0.34.67,1.42,0,2.41l-11.93,19c-0.62,1-1.65,1.52-2.3,1.18h0c-0.65-.34-0.67-1.42,0-2.41l11.93-19C868.14,310.09,869.17,309.56,869.82,309.9Z" transform="translate(-682.01 -219.5)"/><path class="cls-2" d="M898.18,345.57h0c0.18,0.66-.61,1.41-1.75,1.66l-23.53,5.23c-1.14.25-2.21-.08-2.39-0.74h0c-0.18-.66.61-1.41,1.75-1.66l23.53-5.23C896.93,344.57,898,344.91,898.18,345.57Z" transform="translate(-682.01 -219.5)"/><path class="cls-2" d="M890.67,389.64h0c-0.42.57-1.57,0.53-2.56-.08l-20-12.26c-1-.61-1.47-1.57-1.05-2.14h0c0.42-.57,1.57-0.53,2.56.08l20,12.26C890.62,388.11,891.09,389.07,890.67,389.64Z" transform="translate(-682.01 -219.5)"/><path class="cls-2" d="M828.29,392h0c-0.74-.12-1.15-1.15-0.93-2.3l1.79-9.26c0.22-1.15,1-2,1.74-1.87h0c0.74,0.12,1.16,1.15.93,2.3L830,390.18C829.8,391.33,829,392.17,828.29,392Z" transform="translate(-682.01 -219.5)"/><path class="cls-2" d="M805.2,377.11h0c-0.32-.62.29-1.5,1.36-2l9.58-4.16c1.07-.47,2.21-0.34,2.53.27h0c0.32,0.62-.29,1.5-1.36,2l-9.58,4.16C806.65,377.85,805.52,377.72,805.2,377.11Z" transform="translate(-682.01 -219.5)"/><path class="cls-2" d="M800.14,353.08h0c0.08-.68,1.09-1.14,2.25-1l10.62,1c1.16,0.11,2,.75,2,1.43h0c-0.08.68-1.09,1.14-2.25,1l-10.62-1C800.95,354.4,800.06,353.76,800.14,353.08Z" transform="translate(-682.01 -219.5)"/><path class="cls-2" d="M816.69,331.55h0c0.64-.35,1.68.15,2.33,1.13l5.36,8.14c0.64,1,.65,2.06,0,2.41h0c-0.64.35-1.68-.15-2.33-1.13L816.69,334C816,333,816,331.9,816.69,331.55Z" transform="translate(-682.01 -219.5)"/><path class="cls-2" d="M844.17,327.35h0c0.74,0.11,1.18,1.13,1,2.28l-1.6,9.28c-0.2,1.15-1,2-1.7,1.9h0c-0.74-.11-1.18-1.13-1-2.28l1.6-9.28C842.67,328.09,843.43,327.24,844.17,327.35Z" transform="translate(-682.01 -219.5)"/><path class="cls-2" d="M868.11,342.29h0c0.39,0.59-.14,1.52-1.16,2.08l-10.14,5.56c-1,.56-2.17.54-2.56,0h0c-0.39-.59.14-1.52,1.16-2.08l10.14-5.56C866.58,341.68,867.72,341.7,868.11,342.29Z" transform="translate(-682.01 -219.5)"/><path class="cls-2" d="M855.88,363.15h0c0.2-.66,1.28-1,2.42-0.67l11.78,3c1.13,0.29,1.89,1.06,1.69,1.72h0c-0.2.66-1.28,1-2.42,0.67l-11.78-3C856.43,364.58,855.67,363.81,855.88,363.15Z" transform="translate(-682.01 -219.5)"/><path class="cls-2" d="M847.13,375h0c0.65-.33,1.68.21,2.29,1.2l5.83,9.53c0.61,1,.58,2.08-0.08,2.41h0c-0.65.33-1.68-.21-2.29-1.2L847,377.4C846.44,376.4,846.47,375.32,847.13,375Z" transform="translate(-682.01 -219.5)"/><path class="cls-2" d="M744.73,359.45h0c0-1.07,1.47-1.94,3.29-2l32.55-.19c1.82,0,3.31.85,3.32,1.91h0c0,1.07-1.47,1.94-3.29,2l-32.55.19C746.23,361.37,744.74,360.51,744.73,359.45Z" transform="translate(-682.01 -219.5)"/><path class="cls-2" d="M771.85,300.65h0c0.81-.77,2.58-0.41,3.95.79L799,321.9c1.37,1.21,1.82,2.81,1,3.57h0c-0.81.77-2.58,0.41-3.95-.79l-23.23-20.46C771.5,303,771,301.42,771.85,300.65Z" transform="translate(-682.01 -219.5)"/><path class="cls-2" d="M837,276.25h0c1.17,0,2.12,1.48,2.12,3.3l0.07,29.16c0,1.82-.94,3.31-2.11,3.31h0c-1.17,0-2.12-1.48-2.12-3.3l-0.07-29.16C834.91,277.73,835.85,276.25,837,276.25Z" transform="translate(-682.01 -219.5)"/><path class="cls-2" d="M900.49,300.49h0c0.82,0.76.39,2.37-1,3.59l-22.95,20.71c-1.35,1.22-3.12,1.6-3.94.84h0c-0.82-.76-0.39-2.37,1-3.59l22.95-20.71C897.91,300.11,899.67,299.73,900.49,300.49Z" transform="translate(-682.01 -219.5)"/><path class="cls-2" d="M927.78,358.92h0c0,1.07-1.43,2-3.26,2l-34.39.72c-1.82,0-3.33-.8-3.35-1.86h0c0-1.07,1.43-2,3.26-2l34.39-.72C926.25,357,927.75,357.86,927.78,358.92Z" transform="translate(-682.01 -219.5)"/><path class="cls-2" d="M901.25,419.16h0c-0.84.74-2.6,0.31-3.92-.95L875,396.92c-1.32-1.26-1.71-2.88-.86-3.62h0c0.84-.74,2.6-0.31,3.92.95l22.29,21.29C901.71,416.8,902.09,418.42,901.25,419.16Z" transform="translate(-682.01 -219.5)"/><path class="cls-2" d="M836.59,442.84h0c-1.17,0-2.11-1.48-2.11-3.31l0-29.16c0-1.82.95-3.3,2.12-3.3h0c1.17,0,2.11,1.48,2.11,3.31l0,29.16C838.71,441.36,837.76,442.84,836.59,442.84Z" transform="translate(-682.01 -219.5)"/><path class="cls-2" d="M722.55,409.28h0c-0.63-1.24.6-3,2.75-3.91l41.44-17.71c2.15-.92,4.41-0.66,5,0.58h0c0.64,1.24-.6,3-2.75,3.91L727.6,409.85C725.45,410.77,723.19,410.51,722.55,409.28Z" transform="translate(-682.01 -219.5)"/><path class="cls-2" d="M717.6,322.62h0c0.5-1.29,2.72-1.75,4.94-1l43.14,14c2.23,0.72,3.62,2.36,3.12,3.65h0c-0.5,1.29-2.72,1.75-4.94,1l-43.14-14C718.49,325.54,717.09,323.91,717.6,322.62Z" transform="translate(-682.01 -219.5)"/><path class="cls-2" d="M780.3,256.67h0c1.33-.62,3.34.53,4.49,2.57l20.6,36.81c1.14,2,1,4.21-.34,4.83h0c-1.33.62-3.34-.53-4.49-2.57L780,261.5C778.82,259.46,779,257.3,780.3,256.67Z" transform="translate(-682.01 -219.5)"/><path class="cls-2" d="M876,250.46h0c1.42,0.43,1.93,2.57,1.13,4.76L863,294.4c-0.8,2.2-2.6,3.64-4,3.21h0c-1.42-.43-1.93-2.57-1.13-4.76L872,253.67C872.82,251.47,874.62,250,876,250.46Z" transform="translate(-682.01 -219.5)"/><path class="cls-2" d="M947.86,307h0c0.68,1.22-.48,3-2.59,4l-40.65,19.13c-2.12,1-4.39.82-5.08-.4h0c-0.69-1.22.48-3,2.59-4l40.65-19.13C944.9,305.64,947.18,305.81,947.86,307Z" transform="translate(-682.01 -219.5)"/><path class="cls-2" d="M953.66,396h0c-0.49,1.29-2.7,1.77-4.93,1.06l-43.28-13.68c-2.23-.71-3.65-2.33-3.16-3.62h0c0.49-1.29,2.7-1.77,4.93-1.06l43.28,13.68C952.74,393.08,954.15,394.7,953.66,396Z" transform="translate(-682.01 -219.5)"/><path class="cls-2" d="M892.3,463.31h0c-1.35.59-3.33-.62-4.41-2.7l-19.41-37.33c-1.08-2.08-.86-4.24.49-4.82h0c1.35-.59,3.33.62,4.41,2.7l19.41,37.33C893.87,460.56,893.65,462.73,892.3,463.31Z" transform="translate(-682.01 -219.5)"/><path class="cls-2" d="M832.67,395.21a5.45,5.45,0,1,1-5.42-5A5.21,5.21,0,0,1,832.67,395.21Z" transform="translate(-682.01 -219.5)"/><path class="cls-2" d="M810.05,481.16c0,9.57-8.66,17.34-19.32,17.34s-19.32-7.77-19.32-17.34,8.66-17.34,19.32-17.34S810.05,471.58,810.05,481.16Z" transform="translate(-682.01 -219.5)"/></svg>